<svg width="262" height="825" viewBox="0 0 262 825" fill="none" xmlns="http://www.w3.org/2000/svg">
<path d="M-67.8359 635.306C41.6249 624.005 122.835 470.048 130.851 352.268C140.076 216.54 49.8552 161.649 86.78 59.5507C120.444 -33.6209 212.837 -35.5054 232.857 -104.191C251.253 -167.314 203.703 -270.257 -58.2215 -447.223" stroke="#D4E6F3" stroke-miterlimit="10"/>
<path d="M-71.4243 -439.917C186.68 -265.127 236.373 -162.041 220.37 -97.9168C208.446 -50.3935 162.326 -33.7345 124.436 2.3097C104.979 20.2781 89.9717 42.7345 80.7607 67.6624C50.5265 149.313 98.9196 200.629 114.319 289.783C118.311 312.511 119.662 335.756 118.344 359.042C112.026 477.371 40.1067 629.945 -65.6058 643.823" stroke="#D4E6F3" stroke-miterlimit="10"/>
<path d="M-84.5881 -432.59C169.681 -259.976 221.502 -156.806 207.884 -91.8153C197.87 -44.0424 153.791 -26.2036 117.67 9.98814C98.8232 28.4299 84.1474 50.8651 74.7614 75.5833C44.2303 156.027 87.4336 207.117 101.763 296.537C105.451 319.264 106.816 342.423 105.837 365.644C100.861 484.527 38.6067 635.714 -63.3588 652.169" stroke="#D4E6F3" stroke-miterlimit="10"/>
<path d="M-97.7157 -425.281C152.666 -254.884 206.594 -151.572 195.41 -85.6365C187.265 -37.5771 145.271 -18.6339 110.894 17.7623C92.6712 36.6365 78.3212 59.0328 68.7589 83.5232C37.9245 162.838 75.9707 213.529 89.2036 303.31C92.636 326.047 94.0335 349.147 93.3791 372.324C89.952 491.751 37.1561 641.542 -61.0629 660.575" stroke="#D4E6F3" stroke-miterlimit="10"/>
<path d="M-110.933 -417.977C135.675 -249.753 191.677 -146.377 182.924 -79.4391C176.634 -31.1515 136.716 -11.0079 104.14 25.5758C86.5316 44.8964 72.4903 67.2947 62.7518 91.5979C31.6135 169.783 64.4799 220.133 76.6321 310.314C79.761 333.015 81.1699 356.004 80.8462 379.079C78.9665 499.069 35.6102 647.464 -58.8653 669.094" stroke="#D4E6F3" stroke-miterlimit="10"/>
<path d="M-124.106 -410.747C118.691 -244.64 178.576 -141.052 170.464 -73.2401C164.726 -24.834 128.299 -3.37569 97.3778 33.3513C80.4118 53.1094 66.68 75.5091 56.755 99.6161C25.3122 176.671 53.0022 226.642 64.0658 317.088C66.9395 339.771 68.3767 362.684 68.3687 385.684C68.1111 506.24 34.1381 653.237 -56.6128 677.443" stroke="#D4E6F3" stroke-miterlimit="10"/>
<path d="M-137.293 -403.344C101.688 -239.509 161.731 -135.991 158.101 -67.0564C155.301 -18.3787 119.768 4.29085 90.5968 41.1456C74.281 61.3186 60.8514 83.7221 50.741 107.634C18.9933 183.56 41.5208 233.209 51.4944 323.94C54.0901 346.606 55.5434 369.444 55.8486 392.365C57.1386 513.484 32.6801 659.088 -54.3841 685.869" stroke="#D4E6F3" stroke-miterlimit="10"/>
<path d="M-150.472 -396.038C84.7083 -234.436 146.863 -130.814 145.531 -60.862C144.665 -11.9915 111.404 12.002 83.8539 48.9408C68.2034 69.5127 55.0812 91.9301 44.8025 115.654C12.7328 190.431 30.0599 239.757 38.9978 330.794C41.0538 351.976 42.8469 374.573 43.4221 399.048C46.3142 520.752 31.1674 664.936 -52.1164 694.296" stroke="#D4E6F3" stroke-miterlimit="10"/>
<path d="M-163.648 -388.732C67.7123 -229.266 131.802 -125.644 133.125 -54.6801C134.022 -5.60404 103.031 19.7327 77.138 56.7765C62.1602 77.7483 49.3202 100.192 38.8325 123.732C6.45704 197.38 18.6426 246.347 26.4501 337.706C28.2744 358.974 30.0349 381.513 30.943 405.809C35.4328 527.924 29.6839 670.788 -49.8398 702.726" stroke="#D4E6F3" stroke-miterlimit="10"/>
<path d="M-176.804 -381.405C50.7405 -224.133 116.782 -120.471 120.627 -48.4816C123.271 0.780014 94.6167 27.5591 70.378 64.515C56.0829 85.8585 43.5194 108.325 32.8213 131.675C0.138362 204.212 7.14271 252.838 13.952 344.504C15.5523 365.765 17.3114 388.322 18.5338 412.438C24.6918 535.256 28.3175 676.645 -47.4835 711.161" stroke="#D4E6F3" stroke-miterlimit="10"/>
<path d="M-189.98 -374.099C33.7722 -219.02 101.727 -115.3 108.195 -42.3386C112.567 7.10791 86.2929 35.254 63.6209 72.2728C50.036 93.9853 37.7544 116.491 26.8482 139.657C-6.14013 211.046 -4.2991 259.332 1.32347 351.318C2.65478 372.664 4.43734 395.165 5.95693 419.081C13.7944 542.468 26.7545 682.438 -45.3091 719.57" stroke="#D4E6F3" stroke-miterlimit="10"/>
<path d="M-203.152 -366.792C16.7906 -213.889 86.6785 -110.091 95.7633 -36.0993C101.844 13.5507 77.9866 43.0846 56.8874 80.0894C44.7671 101.362 32.5119 123.149 20.878 147.717C-12.399 217.978 -15.7597 265.922 -11.2104 358.213C-10.1264 379.607 -8.32189 402.07 -6.50959 425.844C3.00791 549.8 25.3031 688.371 -43.0374 728.06" stroke="#D4E6F3" stroke-miterlimit="10"/>
<path d="M-216.321 -359.485C-0.24077 -208.758 71.6114 -105.017 83.3273 -29.9171C91.136 19.9372 69.7277 50.9181 50.1655 87.8884C38.6186 109.704 26.656 131.562 14.9204 155.74C-18.7209 224.87 -27.19 272.457 -23.7343 365.071C-22.9163 386.513 -21.0913 408.958 -18.9598 432.494C-7.72279 557.002 23.8717 694.192 -40.7479 736.458" stroke="#D4E6F3" stroke-miterlimit="10"/>
<path d="M-229.487 -352.218C-17.137 -203.643 56.5133 -99.7321 70.8969 -23.7353C80.3782 26.3212 61.4942 58.7521 43.4317 95.6865C32.4941 118.067 20.8068 139.974 8.95661 163.686C-24.939 231.708 -38.6475 278.914 -36.2918 371.929C-35.7042 393.438 -33.8556 415.827 -31.4467 439.182C-18.4536 564.263 22.4451 700.052 -38.4535 744.895" stroke="#D4E6F3" stroke-miterlimit="10"/>
<path d="M-242.636 -344.852C-34.0805 -198.509 41.4017 -94.5818 58.498 -17.5315C69.67 32.7472 53.3309 66.6098 36.7524 103.469C26.4427 126.414 14.9901 148.408 3.0329 171.789C-31.1697 238.644 -50.0511 285.548 -48.7819 378.791C-48.2481 401.281 -46.5892 423.679 -43.8115 445.896C-29.1516 571.508 20.9935 705.971 -36.1239 753.337" stroke="#D4E6F3" stroke-miterlimit="10"/>
<path d="M-255.801 -337.546C-51.0404 -193.376 26.3389 -89.276 46.112 -11.4048C58.9568 39.0955 45.1991 74.4107 30.0598 111.29C20.3966 134.801 9.18153 156.843 -2.89562 179.815C-37.4108 245.561 -61.4818 292.105 -61.284 385.615C-61.0316 408.075 -59.3664 430.432 -56.2986 452.549C-39.7325 578.759 19.5985 711.778 -33.7296 761.801" stroke="#D4E6F3" stroke-miterlimit="10"/>
<path d="M-268.96 -330.239C-67.9691 -188.262 11.1595 -83.9747 33.7312 -5.14271C48.2158 45.5395 37.1135 82.3296 23.4071 119.074C14.4093 143.152 3.37533 165.24 -8.80501 187.823C-43.6308 252.421 -72.879 298.645 -73.7794 392.518C-73.784 414.948 -72.0935 437.269 -68.7229 459.283C-50.4285 585.988 18.2007 717.646 -31.463 770.244" stroke="#D4E6F3" stroke-miterlimit="10"/>
<path d="M-282.056 -322.913C-84.7781 -183.121 -3.67322 -78.8073 21.6372 1.06509C37.8046 52.0303 29.3774 90.2219 17.0344 126.889C8.72694 151.614 -2.12952 173.693 -14.4413 195.887C-49.5693 259.363 -84.0769 305.229 -86.0746 399.433C-86.3247 421.832 -84.6073 444.121 -80.9429 466.033C-60.8133 593.284 17.1228 723.587 -28.8539 778.768" stroke="#D4E6F3" stroke-miterlimit="10"/>
<path d="M-295.149 -315.607C-101.415 -178.071 -18.5527 -73.526 9.49118 7.29056C27.3105 58.4992 21.6013 98.0943 10.565 134.721C2.904 159.956 -7.74954 182.181 -20.1714 203.95C-55.6772 266.3 -95.3819 311.83 -98.4213 406.349C-98.9176 428.716 -97.1729 450.977 -93.2143 472.785C-71.2269 600.584 15.9343 729.625 -26.2843 787.294" stroke="#D4E6F3" stroke-miterlimit="10"/>
<path d="M-308.246 -308.301C-118.175 -172.851 -33.446 -68.2245 -2.52919 13.5035C16.9608 64.995 14.0143 105.976 4.32526 142.565C-2.52376 168.374 -13.1333 190.623 -25.7073 212.022C-61.5522 273.229 -106.483 318.423 -110.661 413.273C-111.414 435.608 -109.641 457.846 -105.379 479.544C-81.4723 607.875 15.0202 735.484 -23.541 795.832" stroke="#D4E6F3" stroke-miterlimit="10"/>
<path d="M-321.325 -300.974C-134.923 -167.706 -48.4468 -62.9261 -14.6105 19.6576C6.51671 71.4114 6.37764 113.762 -2.0175 150.309C-8.07137 176.693 -18.602 199.005 -31.2497 219.999C-67.4548 280.101 -117.638 324.958 -122.9 420.122C-123.89 442.429 -122.09 464.65 -117.544 486.249C-91.5577 615.022 13.9852 741.36 -20.8301 804.332" stroke="#D4E6F3" stroke-miterlimit="10"/>
<path d="M-334.424 -293.687C-37.8565 -80.9462 10.2019 63.0208 -8.3789 158.226C-28.6596 262.156 -126.605 298.243 -135.219 427.122C-145.304 578.309 18.2279 736.282 -18.1308 812.909" stroke="#D4E6F3" stroke-miterlimit="10"/>
</svg>
