<svg width="213" height="432" viewBox="0 0 213 432" fill="none" xmlns="http://www.w3.org/2000/svg">
<path d="M94.125 -39.0205C89.7161 -41.566 84.2839 -41.566 79.875 -39.0205L19.5312 -4.18068C15.1223 -1.63518 12.4063 3.06914 12.4062 8.16014L12.4062 77.8398C12.4063 82.9308 15.1223 87.6352 19.5312 90.1807L79.875 125.02C84.1462 127.486 89.3778 127.564 93.709 125.252L94.125 125.021L154.469 90.1807C158.878 87.6352 161.594 82.9308 161.594 77.8398L161.594 8.16016C161.594 3.06916 158.878 -1.63516 154.469 -4.18067L94.125 -39.0205Z" stroke="#B8D5EB" stroke-opacity="0.3" stroke-width="1.5"/>
<path d="M169.125 1.97949C164.716 -0.565981 159.284 -0.565982 154.875 1.97948L94.5312 36.8193C90.1223 39.3648 87.4063 44.0691 87.4062 49.1601L87.4062 118.84C87.4063 123.931 90.1223 128.635 94.5312 131.181L154.875 166.02C159.146 168.486 164.378 168.564 168.709 166.252L169.125 166.021L229.469 131.181C233.878 128.635 236.594 123.931 236.594 118.84L236.594 49.1602C236.594 44.0692 233.878 39.3648 229.469 36.8193L169.125 1.97949Z" stroke="#B8D5EB" stroke-opacity="0.3" stroke-width="1.5"/>
<path d="M243.125 -39.0205C238.716 -41.566 233.284 -41.566 228.875 -39.0205L168.531 -4.18068C164.122 -1.63518 161.406 3.06914 161.406 8.16014L161.406 77.8398C161.406 82.9308 164.122 87.6352 168.531 90.1807L228.875 125.02C233.146 127.486 238.378 127.564 242.709 125.252L243.125 125.021L303.469 90.1807C307.878 87.6352 310.594 82.9308 310.594 77.8398L310.594 8.16016C310.594 3.06916 307.878 -1.63516 303.469 -4.18067L243.125 -39.0205Z" stroke="#B8D5EB" stroke-opacity="0.3" stroke-width="1.5"/>
<path d="M169.125 89.9795C164.716 87.434 159.284 87.434 154.875 89.9795L94.5312 124.819C90.1223 127.365 87.4063 132.069 87.4062 137.16L87.4062 206.84C87.4063 211.931 90.1223 216.635 94.5312 219.181L154.875 254.02C159.146 256.486 164.378 256.564 168.709 254.252L169.125 254.021L229.469 219.181C233.878 216.635 236.594 211.931 236.594 206.84L236.594 137.16C236.594 132.069 233.878 127.365 229.469 124.819L169.125 89.9795Z" stroke="#B8D5EB" stroke-opacity="0.3" stroke-width="1.5"/>
<path d="M170.125 262.979C165.716 260.434 160.284 260.434 155.875 262.979L95.5312 297.819C91.1223 300.365 88.4063 305.069 88.4062 310.16L88.4062 379.84C88.4063 384.931 91.1223 389.635 95.5312 392.181L155.875 427.02C160.146 429.486 165.378 429.564 169.709 427.252L170.125 427.021L230.469 392.181C234.878 389.635 237.594 384.931 237.594 379.84L237.594 310.16C237.594 305.069 234.878 300.365 230.469 297.819L170.125 262.979Z" stroke="#B8D5EB" stroke-opacity="0.3" stroke-width="1.5"/>
<path d="M97.125 132.979C92.7161 130.434 87.2839 130.434 82.875 132.979L22.5312 167.819C18.1223 170.365 15.4063 175.069 15.4062 180.16L15.4062 249.84C15.4063 254.931 18.1223 259.635 22.5312 262.181L82.875 297.02C87.1462 299.486 92.3778 299.564 96.709 297.252L97.125 297.021L157.469 262.181C161.878 259.635 164.594 254.931 164.594 249.84L164.594 180.16C164.594 175.069 161.878 170.365 157.469 167.819L97.125 132.979Z" stroke="#B8D5EB" stroke-opacity="0.3" stroke-width="1.5"/>
<path d="M97.125 219.979C92.7161 217.434 87.2839 217.434 82.875 219.979L22.5312 254.819C18.1223 257.365 15.4063 262.069 15.4062 267.16L15.4062 336.84C15.4063 341.931 18.1223 346.635 22.5312 349.181L82.875 384.02C87.1462 386.486 92.3778 386.564 96.709 384.252L97.125 384.021L157.469 349.181C161.878 346.635 164.594 341.931 164.594 336.84L164.594 267.16C164.594 262.069 161.878 257.365 157.469 254.819L97.125 219.979Z" stroke="#B8D5EB" stroke-opacity="0.3" stroke-width="1.5"/>
</svg>
