<svg width="231" height="376" viewBox="0 0 231 376" fill="none" xmlns="http://www.w3.org/2000/svg">
<path d="M136.875 471.021C141.284 473.566 146.716 473.566 151.125 471.021L211.469 436.181C215.878 433.635 218.594 428.931 218.594 423.84L218.594 354.16C218.594 349.069 215.878 344.365 211.469 341.819L151.125 306.98C146.854 304.514 141.622 304.436 137.291 306.748L136.875 306.979L76.5313 341.819C72.1223 344.365 69.4063 349.069 69.4063 354.16L69.4063 423.84C69.4063 428.931 72.1223 433.635 76.5313 436.181L136.875 471.021Z" stroke="#B8D5EB" stroke-opacity="0.3" stroke-width="1.5"/>
<path d="M61.875 430.021C66.2839 432.566 71.7161 432.566 76.125 430.021L136.469 395.181C140.878 392.635 143.594 387.931 143.594 382.84L143.594 313.16C143.594 308.069 140.878 303.365 136.469 300.819L76.125 265.98C71.8538 263.514 66.6222 263.436 62.291 265.748L61.875 265.979L1.53126 300.819C-2.87767 303.365 -5.5937 308.069 -5.59374 313.16L-5.59375 382.84C-5.59371 387.931 -2.87768 392.635 1.53125 395.181L61.875 430.021Z" stroke="#B8D5EB" stroke-opacity="0.3" stroke-width="1.5"/>
<path d="M-12.125 471.021C-7.71607 473.566 -2.28393 473.566 2.125 471.021L62.4688 436.181C66.8777 433.635 69.5937 428.931 69.5938 423.84L69.5938 354.16C69.5937 349.069 66.8777 344.365 62.4688 341.819L2.12501 306.98C-2.14617 304.514 -7.37779 304.436 -11.709 306.748L-12.125 306.979L-72.4687 341.819C-76.8777 344.365 -79.5937 349.069 -79.5937 354.16L-79.5937 423.84C-79.5937 428.931 -76.8777 433.635 -72.4687 436.181L-12.125 471.021Z" stroke="#B8D5EB" stroke-opacity="0.3" stroke-width="1.5"/>
<path d="M61.875 342.021C66.2839 344.566 71.7161 344.566 76.125 342.021L136.469 307.181C140.878 304.635 143.594 299.931 143.594 294.84L143.594 225.16C143.594 220.069 140.878 215.365 136.469 212.819L76.125 177.98C71.8538 175.514 66.6222 175.436 62.291 177.748L61.875 177.979L1.53126 212.819C-2.87767 215.365 -5.5937 220.069 -5.59374 225.16L-5.59375 294.84C-5.59371 299.931 -2.87768 304.635 1.53125 307.181L61.875 342.021Z" stroke="#B8D5EB" stroke-opacity="0.3" stroke-width="1.5"/>
<path d="M60.875 169.021C65.2839 171.566 70.7161 171.566 75.125 169.021L135.469 134.181C139.878 131.635 142.594 126.931 142.594 121.84L142.594 52.1602C142.594 47.0692 139.878 42.3648 135.469 39.8193L75.125 4.9795C70.8538 2.51356 65.6222 2.4362 61.291 4.74805L60.875 4.9795L0.531262 39.8193C-3.87767 42.3648 -6.5937 47.0692 -6.59374 52.1602L-6.59375 121.84C-6.59371 126.931 -3.87768 131.635 0.531253 134.181L60.875 169.021Z" stroke="#B8D5EB" stroke-opacity="0.3" stroke-width="1.5"/>
<path d="M133.875 299.021C138.284 301.566 143.716 301.566 148.125 299.021L208.469 264.181C212.878 261.635 215.594 256.931 215.594 251.84L215.594 182.16C215.594 177.069 212.878 172.365 208.469 169.819L148.125 134.98C143.854 132.514 138.622 132.436 134.291 134.748L133.875 134.979L73.5313 169.819C69.1223 172.365 66.4063 177.069 66.4063 182.16L66.4063 251.84C66.4063 256.931 69.1223 261.635 73.5313 264.181L133.875 299.021Z" stroke="#B8D5EB" stroke-opacity="0.3" stroke-width="1.5"/>
<path d="M133.875 212.021C138.284 214.566 143.716 214.566 148.125 212.021L208.469 177.181C212.878 174.635 215.594 169.931 215.594 164.84L215.594 95.1602C215.594 90.0692 212.878 85.3648 208.469 82.8193L148.125 47.9795C143.854 45.5136 138.622 45.4362 134.291 47.7481L133.875 47.9795L73.5313 82.8193C69.1223 85.3648 66.4063 90.0692 66.4063 95.1602L66.4063 164.84C66.4063 169.931 69.1223 174.635 73.5313 177.181L133.875 212.021Z" stroke="#B8D5EB" stroke-opacity="0.3" stroke-width="1.5"/>
</svg>
