<svg width="47" height="47" viewBox="0 0 47 47" fill="none" xmlns="http://www.w3.org/2000/svg">
<path d="M30.0432 17.6484L30.0432 27.4011C30.0432 27.5843 29.9704 27.7599 29.8409 27.8894C29.7114 28.0189 29.5358 28.0916 29.3527 28.0916C29.1695 28.0916 28.9939 28.0189 28.8644 27.8894C28.7349 27.7599 28.6622 27.5843 28.6622 27.4011L28.6632 19.3132L18.137 29.8393C18.0077 29.9686 17.8323 30.0413 17.6494 30.0413C17.4665 30.0413 17.2911 29.9686 17.1618 29.8393C17.0324 29.71 16.9598 29.5346 16.9598 29.3517C16.9598 29.1688 17.0324 28.9934 17.1618 28.864L27.6879 18.3379L19.5999 18.3389C19.4168 18.3389 19.2412 18.2662 19.1117 18.1367C18.9822 18.0072 18.9095 17.8315 18.9095 17.6484C18.9095 17.4653 18.9822 17.2897 19.1117 17.1602C19.2412 17.0307 19.4168 16.9579 19.5999 16.9579L29.3527 16.9579C29.4434 16.9578 29.5332 16.9756 29.617 17.0102C29.7009 17.0449 29.777 17.0958 29.8412 17.1599C29.9053 17.224 29.9562 17.3002 29.9908 17.384C30.0255 17.4679 30.0433 17.5577 30.0432 17.6484Z" fill="white"/>
</svg>
