<svg width="50" height="51" viewBox="0 0 50 51" fill="none" xmlns="http://www.w3.org/2000/svg">
<path d="M26.5 1.36602C25.5718 0.830127 24.4282 0.830127 23.5 1.36603L4.84937 12.134C3.92116 12.6699 3.34937 13.6603 3.34937 14.7321V36.268C3.34937 37.3397 3.92116 38.3301 4.84937 38.866L23.5 49.634C24.4282 50.1699 25.5718 50.1699 26.5 49.634L45.1506 38.866C46.0788 38.3301 46.6506 37.3397 46.6506 36.2679V14.732C46.6506 13.6603 46.0788 12.6699 45.1506 12.134L26.5 1.36602Z" fill="#2D9BD6"/>
<g clip-path="url(#clip0_344_5166)">
<path d="M29.1791 30.358H29.5505C30.8477 30.358 31.4962 29.6969 31.4962 28.3809V22.3109H27.7619C27.1074 22.3109 26.7357 21.9394 26.7357 21.2843V17.5H23.4677C22.1705 17.5 21.5159 18.1611 21.5159 19.4771V19.7857H22.3342C23.2222 19.7857 23.9337 20.0377 24.6391 20.7429L28.2094 24.3257C28.9208 25.0371 29.1791 25.7677 29.1791 26.624V30.358ZM27.8879 21.5237H31.1937C31.1562 21.322 31.0239 21.1457 30.8037 20.9254L28.1208 18.1926C27.9065 17.9723 27.7179 17.8337 27.5225 17.8023L27.5288 21.1583C27.5288 21.4166 27.6297 21.5237 27.8879 21.5237ZM20.2879 33.5H26.3708C27.6679 33.5 28.3225 32.8389 28.3225 31.5229V26.454H23.7637C22.9514 26.454 22.5737 26.07 22.5737 25.264V20.642H20.2879C18.9908 20.642 18.3359 21.3031 18.3359 22.6191V31.5229C18.3359 32.8451 18.9908 33.5 20.2879 33.5ZM23.7574 25.5914H27.9888C27.9259 25.3457 27.7559 25.1191 27.4725 24.8294L24.1982 21.4986C23.9211 21.2151 23.6754 21.0451 23.4362 20.9757V25.27C23.4362 25.4843 23.5433 25.5914 23.7574 25.5914Z" fill="white"/>
</g>
<defs>
<clipPath id="clip0_344_5166">
<rect width="16" height="16" fill="white" transform="translate(17 17.5)"/>
</clipPath>
</defs>
</svg>
