<svg xmlns="http://www.w3.org/2000/svg">
	<symbol id="geo" width="24" height="24" viewBox="0 0 24 24" fill="#2981C4">
		<path
			d="M19 9C19 8.08075 18.8189 7.1705 18.4672 6.32122C18.1154 5.47194 17.5998 4.70026 16.9497 4.05025C16.2997 3.40024 15.5281 2.88463 14.6788 2.53284C13.8295 2.18106 12.9193 2 12 2C11.0807 2 10.1705 2.18106 9.32122 2.53284C8.47194 2.88463 7.70026 3.40024 7.05025 4.05025C6.40024 4.70026 5.88463 5.47194 5.53284 6.32122C5.18106 7.1705 5 8.08075 5 9C5 10.387 5.409 11.677 6.105 12.765H6.097L12 22L17.903 12.765H17.896C18.6169 11.6416 19.0001 10.3348 19 9ZM12 12C11.2044 12 10.4413 11.6839 9.87868 11.1213C9.31607 10.5587 9 9.79565 9 9C9 8.20435 9.31607 7.44129 9.87868 6.87868C10.4413 6.31607 11.2044 6 12 6C12.7956 6 13.5587 6.31607 14.1213 6.87868C14.6839 7.44129 15 8.20435 15 9C15 9.79565 14.6839 10.5587 14.1213 11.1213C13.5587 11.6839 12.7956 12 12 12Z"/>
	</symbol>
	<symbol id="email" width="22" height="22" viewBox="0 0 22 22" fill="currentColor">
		<path
			d="M20.1654 6.90709V15.5833C20.1654 16.2848 19.8974 16.9597 19.4162 17.4701C18.935 17.9804 18.2769 18.2876 17.5767 18.3288L17.4154 18.3333H4.58203C3.88059 18.3334 3.20564 18.0654 2.69529 17.5842C2.18494 17.1029 1.87777 16.4449 1.83661 15.7447L1.83203 15.5833V6.90709L10.4899 12.6793L10.5963 12.7398C10.7216 12.8011 10.8592 12.8329 10.9987 12.8329C11.1382 12.8329 11.2758 12.8011 11.4011 12.7398L11.5074 12.6793L20.1654 6.90709Z" />
		<path
			d="M17.4137 3.66667C18.4037 3.66667 19.2718 4.18917 19.7558 4.97475L10.997 10.8139L2.23828 4.97475C2.46817 4.60151 2.78396 4.28863 3.15932 4.0622C3.53468 3.83577 3.95873 3.70236 4.39611 3.67308L4.58036 3.66667H17.4137Z" />
	</symbol>
	<symbol id="tel" viewBox="0 0 22 22" fill="currentColor">
		<path
			d="M17.6268 13.9883L15.2985 13.7225C15.0247 13.6903 14.7472 13.7207 14.4868 13.8112C14.2264 13.9016 13.99 14.05 13.7951 14.245L12.1085 15.9317C9.50642 14.6079 7.39136 12.4929 6.06764 9.89083L7.76347 8.195C8.15764 7.80083 8.35014 7.25083 8.28597 6.69167L8.02014 4.38167C7.96836 3.93441 7.75381 3.52185 7.4174 3.22263C7.08098 2.9234 6.64621 2.75843 6.19597 2.75917H4.61014C3.57431 2.75917 2.71264 3.62083 2.7768 4.65667C3.26264 12.485 9.52347 18.7367 17.3426 19.2225C18.3785 19.2867 19.2401 18.425 19.2401 17.3892V15.8033C19.2493 14.8775 18.5526 14.0983 17.6268 13.9883Z" />
	</symbol>
	<symbol id="arr" width="15" height="10" viewBox="0 0 15 10" fill="none" stroke="currentColor">
		<path d="M9.85658 1.18762L13.6661 4.99905L9.85658 8.80952M1.28516 5H13.6661" 
			stroke-linecap="round" stroke-linejoin="round" />
	</symbol>
	<symbol id="arr-down" viewBox="0 0 47 47" stroke="currentColor">
  <path d="M15.668 35.2499L23.5013 43.0833M23.5013 43.0833L31.3346 35.2499M23.5013 43.0833V3.91659" stroke="currentColor" stroke-width="1.5" stroke-linecap="round" stroke-linejoin="round" />
</symbol>
<symbol id="arr-show" fill="none">
  <path d="M2.97672 6.35208C3.02896 6.29978 3.091 6.25829 3.15928 6.22998C3.22757 6.20167 3.30076 6.1871 3.37469 6.1871C3.44861 6.1871 3.52181 6.20167 3.59009 6.22998C3.65838 6.25829 3.72041 6.29978 3.77265 6.35208L8.99969 11.5798L14.2267 6.35208C14.3323 6.24653 14.4754 6.18723 14.6247 6.18723C14.774 6.18723 14.9171 6.24653 15.0227 6.35208C15.1282 6.45762 15.1875 6.60078 15.1875 6.75004C15.1875 6.89931 15.1282 7.04247 15.0227 7.14801L9.39766 12.773C9.34542 12.8253 9.28338 12.8668 9.21509 12.8951C9.1468 12.9234 9.07361 12.938 8.99969 12.938C8.92577 12.938 8.85257 12.9234 8.78428 12.8951C8.716 12.8668 8.65396 12.8253 8.60172 12.773L2.97672 7.14802C2.92442 7.09577 2.88293 7.03374 2.85462 6.96545C2.82631 6.89716 2.81174 6.82397 2.81174 6.75005C2.81174 6.67612 2.82631 6.60293 2.85462 6.53464C2.88293 6.46636 2.92442 6.40432 2.97672 6.35208Z" fill="#070707" />
</symbol>
<symbol id="service-arr" viewBox="0 0 18 18" fill="currentColor">
  <path d="M11.6484 15.0233C11.7007 14.971 11.7422 14.909 11.7705 14.8407C11.7988 14.7724 11.8134 14.6992 11.8134 14.6253C11.8134 14.5514 11.7988 14.4782 11.7705 14.4099C11.7422 14.3416 11.7007 14.2796 11.6484 14.2273L6.42068 9.00031L11.6484 3.77328C11.754 3.66773 11.8133 3.52458 11.8133 3.37531C11.8133 3.22605 11.754 3.08289 11.6484 2.97734C11.5429 2.8718 11.3997 2.8125 11.2504 2.8125C11.1012 2.8125 10.958 2.8718 10.8525 2.97734L5.22747 8.60234C5.17517 8.65458 5.13369 8.71662 5.10538 8.78491C5.07707 8.8532 5.0625 8.92639 5.0625 9.00031C5.0625 9.07423 5.07707 9.14743 5.10538 9.21572C5.13369 9.284 5.17517 9.34604 5.22747 9.39828L10.8525 15.0233C10.9047 15.0756 10.9668 15.1171 11.035 15.1454C11.1033 15.1737 11.1765 15.1883 11.2504 15.1883C11.3244 15.1883 11.3976 15.1737 11.4658 15.1454C11.5341 15.1171 11.5962 15.0756 11.6484 15.0233Z" fill="white" />
</symbol>
<symbol id="arr-slider" viewBox="0 0 18 15" fill="currentColor">
  <path d="M0.52789 7.97805L7.19456 14.6447C7.31974 14.7699 7.48952 14.8402 7.66656 14.8402C7.84359 14.8402 8.01338 14.7699 8.13856 14.6447C8.26374 14.5195 8.33407 14.3498 8.33407 14.1727C8.33407 13.9957 8.26374 13.8259 8.13856 13.7007L2.60922 8.17272L16.9999 8.17272C17.1767 8.17272 17.3463 8.10248 17.4713 7.97746C17.5963 7.85243 17.6666 7.68286 17.6666 7.50605C17.6666 7.32924 17.5963 7.15967 17.4713 7.03465C17.3463 6.90962 17.1767 6.83938 16.9999 6.83938L2.60922 6.83938L8.13856 1.31138C8.26374 1.1862 8.33407 1.01642 8.33407 0.839384C8.33407 0.662349 8.26374 0.492566 8.13856 0.367384C8.01338 0.242201 7.84359 0.171875 7.66656 0.171875C7.48952 0.171875 7.31974 0.242201 7.19456 0.367384L0.52789 7.03405C0.465805 7.09598 0.416548 7.16955 0.382939 7.25054C0.349331 7.33153 0.332032 7.41836 0.332032 7.50605C0.332032 7.59374 0.349331 7.68057 0.382939 7.76156C0.416548 7.84256 0.465805 7.91612 0.52789 7.97805Z" fill="currentColor" />
</svg>
</svg>