<svg width="14" height="13" viewBox="0 0 14 13" fill="none" xmlns="http://www.w3.org/2000/svg">
<path d="M12.418 6.49934C12.418 3.50771 9.99293 1.08267 7.0013 1.08267C4.00968 1.08267 1.58464 3.50771 1.58464 6.49934C1.58299 7.4566 1.83632 8.39702 2.31859 9.22392L1.58464 11.9138L4.27564 11.1815C5.1028 11.6642 6.04363 11.9177 7.0013 11.916C9.99293 11.916 12.418 9.49096 12.418 6.49934ZM9.54714 8.34534L9.5428 8.45367C9.53798 8.52372 9.51958 8.59215 9.48864 8.65517C9.45532 8.7139 9.41372 8.76754 9.36514 8.81442C9.30393 8.87942 9.25084 8.91626 9.19939 8.9558C8.9389 9.15615 8.61909 9.26402 8.29047 9.26238C8.02505 9.2613 7.76668 9.19197 7.52509 9.08363C7.03651 8.86209 6.51922 8.49755 6.03984 8.01655C5.92447 7.90063 5.80855 7.78688 5.70076 7.66446C5.17458 7.06677 4.79511 6.35456 4.59251 5.58447L4.54539 5.2768C4.53997 5.17659 4.54755 5.07638 4.55243 4.97563C4.56074 4.81791 4.60345 4.66391 4.67755 4.52442C4.7142 4.45355 4.75396 4.38433 4.79672 4.31696C4.79672 4.31696 4.81225 4.29403 4.84547 4.24926C4.89964 4.17613 4.93809 4.13117 5.00147 4.07051C5.04841 4.02501 5.10294 3.98709 5.16505 3.95676C5.25334 3.91451 5.4218 3.87226 5.56209 3.85492C5.66934 3.84192 5.72784 3.84572 5.76414 3.84734C5.82209 3.84951 5.88222 3.89771 5.90768 3.95026L6.04905 4.26551C6.04905 4.26551 6.25434 4.73676 6.38543 5.02492C6.39856 5.05509 6.40608 5.08739 6.40764 5.12026C6.41151 5.15732 6.40738 5.19479 6.39551 5.23011C6.38364 5.26544 6.36431 5.2978 6.33884 5.32501C6.33993 5.32772 6.30905 5.36401 5.83455 5.75563C5.80435 5.77811 5.78152 5.80907 5.76898 5.84457C5.75644 5.88007 5.75475 5.9185 5.76414 5.95497C5.77354 5.99027 5.78549 6.02484 5.79989 6.05842C5.82805 6.12559 5.83889 6.14888 5.85839 6.19492C5.99385 6.50591 6.17717 6.79377 6.40168 7.04805C6.46126 7.1163 6.52626 7.17967 6.58909 7.24467C6.79319 7.45776 7.02406 7.64348 7.27593 7.79717L7.32739 7.82913C7.36216 7.85174 7.39942 7.87028 7.43843 7.88438C7.51805 7.90497 7.58197 7.85134 7.58197 7.85134C7.58197 7.85134 7.72605 7.71972 7.80405 7.65851C7.87989 7.59892 7.95355 7.54855 8.00609 7.51605C8.10901 7.45213 8.21464 7.43209 8.29643 7.46567C8.66693 7.61734 9.03544 7.77406 9.40197 7.93584C9.47455 7.9678 9.52655 8.06259 9.53684 8.14872C9.54046 8.17797 9.54334 8.20722 9.54551 8.23647C9.54968 8.3092 9.54896 8.38212 9.54334 8.45476L9.54714 8.34534Z" fill="#2D9BD6"/>
</svg>
