<svg width="13" height="13" viewBox="0 0 13 13" fill="none" xmlns="http://www.w3.org/2000/svg">
<path d="M11.918 6.49946C11.918 3.50784 9.49293 1.0828 6.5013 1.0828C3.50968 1.0828 1.08464 3.50784 1.08464 6.49946C1.08299 7.45672 1.33632 8.39715 1.81859 9.22405L1.08464 11.914L3.77564 11.1816C4.6028 11.6643 5.54363 11.9178 6.5013 11.9161C9.49293 11.9161 11.918 9.49109 11.918 6.49946ZM9.04714 8.34546L9.0428 8.4538C9.03798 8.52384 9.01958 8.59227 8.98864 8.6553C8.95532 8.71403 8.91372 8.76766 8.86514 8.81455C8.80393 8.87955 8.75084 8.91638 8.69939 8.95592C8.4389 9.15627 8.11909 9.26414 7.79047 9.2625C7.52505 9.26142 7.26668 9.19209 7.02509 9.08375C6.53651 8.86221 6.01922 8.49767 5.53984 8.01667C5.42447 7.90075 5.30855 7.787 5.20076 7.66459C4.67458 7.06689 4.29511 6.35469 4.09251 5.58459L4.04539 5.27692C4.03997 5.17671 4.04755 5.0765 4.05243 4.97575C4.06074 4.81803 4.10345 4.66403 4.17755 4.52455C4.2142 4.45367 4.25396 4.38445 4.29672 4.31709C4.29672 4.31709 4.31225 4.29416 4.34547 4.24938C4.39964 4.17625 4.43809 4.13129 4.50147 4.07063C4.54841 4.02513 4.60294 3.98721 4.66505 3.95688C4.75334 3.91463 4.9218 3.87238 5.06209 3.85505C5.16934 3.84205 5.22784 3.84584 5.26414 3.84746C5.32209 3.84963 5.38222 3.89784 5.40768 3.95038L5.54905 4.26563C5.54905 4.26563 5.75434 4.73688 5.88543 5.02505C5.89856 5.05521 5.90608 5.08752 5.90764 5.12038C5.91151 5.15744 5.90738 5.19491 5.89551 5.23024C5.88364 5.26556 5.86431 5.29792 5.83884 5.32513C5.83993 5.32784 5.80905 5.36413 5.33455 5.75575C5.30435 5.77823 5.28152 5.80919 5.26898 5.84469C5.25644 5.88019 5.25475 5.91862 5.26414 5.95509C5.27354 5.99039 5.28549 6.02497 5.29989 6.05855C5.32805 6.12571 5.33889 6.149 5.35839 6.19505C5.49385 6.50603 5.67717 6.79389 5.90168 7.04817C5.96126 7.11642 6.02626 7.1798 6.08909 7.2448C6.29319 7.45788 6.52406 7.6436 6.77593 7.7973L6.82739 7.82925C6.86216 7.85186 6.89942 7.8704 6.93843 7.8845C7.01805 7.90509 7.08197 7.85146 7.08197 7.85146C7.08197 7.85146 7.22605 7.71984 7.30405 7.65863C7.37989 7.59905 7.45355 7.54867 7.50609 7.51617C7.60901 7.45225 7.71464 7.43221 7.79643 7.4658C8.16693 7.61746 8.53544 7.77418 8.90197 7.93596C8.97455 7.96792 9.02655 8.06271 9.03684 8.14884C9.04046 8.17809 9.04334 8.20734 9.04551 8.23659C9.04968 8.30932 9.04896 8.38225 9.04334 8.45488L9.04714 8.34546Z" fill="white"/>
</svg>
