<svg width="13" height="13" viewBox="0 0 13 13" fill="none" xmlns="http://www.w3.org/2000/svg">
<path d="M6.49871 1.08334C9.49033 1.08334 11.9154 3.50839 11.9154 6.50001C11.9154 9.49164 9.49033 11.9167 6.49871 11.9167C5.54145 11.9183 4.60102 11.665 3.77412 11.1827L1.08421 11.9167L1.81654 9.22568C1.33389 8.39851 1.08036 7.45769 1.08204 6.50001C1.08204 3.50839 3.50708 1.08334 6.49871 1.08334ZM4.65271 3.95418L4.54437 3.95851C4.47433 3.96334 4.40589 3.98173 4.34287 4.01268C4.28414 4.046 4.23051 4.08759 4.18362 4.13618C4.11862 4.19739 4.08179 4.25047 4.04225 4.30193C3.8419 4.56242 3.73402 4.88222 3.73566 5.21084C3.73675 5.47626 3.80608 5.73464 3.91441 5.97622C4.13596 6.4648 4.5005 6.98209 4.9815 7.46147C5.09741 7.57684 5.21116 7.69276 5.33358 7.80055C5.93127 8.32673 6.64348 8.7062 7.41358 8.9088L7.72125 8.95593C7.82146 8.96134 7.92167 8.95376 8.02242 8.94889C8.18014 8.94057 8.33414 8.89786 8.47362 8.82376C8.5445 8.78711 8.61372 8.74735 8.68108 8.70459C8.68108 8.70459 8.70401 8.68907 8.74879 8.65584C8.82192 8.60168 8.86687 8.56322 8.92754 8.49984C8.97304 8.4529 9.01096 8.39837 9.04129 8.33626C9.08354 8.24797 9.12579 8.07951 9.14312 7.93922C9.15612 7.83197 9.15233 7.77347 9.15071 7.73718C9.14854 7.67922 9.10033 7.61909 9.04779 7.59364L8.73254 7.45226C8.73254 7.45226 8.26129 7.24697 7.97312 7.11589C7.94296 7.10275 7.91065 7.09523 7.87779 7.09368C7.84073 7.0898 7.80326 7.09394 7.76793 7.1058C7.73261 7.11767 7.70024 7.137 7.67304 7.16247C7.67033 7.16139 7.63404 7.19226 7.24241 7.66676C7.21994 7.69696 7.18897 7.71979 7.15347 7.73233C7.11797 7.74487 7.07954 7.74656 7.04308 7.73718C7.00778 7.72777 6.9732 7.71582 6.93962 7.70143C6.87246 7.67326 6.84916 7.66243 6.80312 7.64293C6.49214 7.50746 6.20428 7.32414 5.95 7.09964C5.88175 7.04005 5.81837 6.97505 5.75337 6.91222C5.54029 6.70812 5.35457 6.47725 5.20087 6.22539L5.16891 6.17393C5.14631 6.13915 5.12777 6.10189 5.11366 6.06289C5.09308 5.98326 5.14671 5.91934 5.14671 5.91934C5.14671 5.91934 5.27833 5.77526 5.33954 5.69726C5.39912 5.62143 5.4495 5.54776 5.482 5.49522C5.54591 5.3923 5.56596 5.28668 5.53237 5.20489C5.38071 4.83439 5.22398 4.46587 5.06221 4.09934C5.03025 4.02676 4.93546 3.97476 4.84933 3.96447C4.82008 3.96086 4.79083 3.95797 4.76158 3.9558C4.68885 3.95163 4.61592 3.95235 4.54329 3.95797L4.65271 3.95418Z" fill="#214C9F"/>
</svg>
