<svg width="311" height="1127" viewBox="0 0 311 1127" fill="none" xmlns="http://www.w3.org/2000/svg">
<path d="M310.277 22.2319C281.267 62.5824 245.213 97.3673 203.85 124.915C105.611 189.714 33.8731 173.149 18.699 214.071C-4.74265 277.307 160.1 334.484 174.372 473.206C184.853 574.953 109.158 670.642 91.6224 692.79C23.2819 779.198 -44.2996 785.341 -52.048 851.042C-57.7673 899.099 -24.0775 916.505 -16.1019 993.192C-10.5513 1046.58 -21.2729 1091.89 -31.3637 1122.17" stroke="#D4E6F3" stroke-miterlimit="10"/>
<path d="M302.328 21.5532C273.309 61.9068 237.25 96.6968 195.884 124.253C97.6277 189.051 25.9066 172.487 10.7327 213.392C-12.7091 276.645 152.133 333.822 166.406 472.527C176.869 574.29 101.175 669.98 83.6559 692.128C15.3154 778.536 -52.2659 784.661 -60.0145 850.38C-65.7338 898.437 -32.0437 915.826 -24.0684 992.53C-18.518 1045.93 -29.2394 1091.23 -39.3302 1121.51" stroke="#D4E6F3" stroke-miterlimit="10"/>
<path d="M294.379 20.874C265.365 61.232 229.305 96.0229 187.935 123.574C89.6784 188.372 17.9574 171.808 2.7832 212.73C-20.6578 275.915 144.184 333.16 158.456 471.865C168.92 573.611 93.2254 669.301 75.7067 691.448C7.34911 777.857 -60.2154 783.999 -67.9637 849.701C-73.683 897.758 -39.9761 915.164 -32.0006 991.851C-26.4502 1045.25 -37.1716 1090.55 -47.2624 1120.83" stroke="#D4E6F3" stroke-miterlimit="10"/>
<path d="M286.434 20.2285C257.408 60.5774 221.343 95.3616 179.972 122.911C81.7163 187.71 9.99524 171.145 -5.17873 212.05C-28.6206 275.303 136.222 332.48 150.494 471.185C160.958 572.948 85.2632 668.638 67.7445 690.786C-0.613057 777.194 -68.1773 783.32 -75.9259 849.038C-81.6452 897.095 -47.9381 914.484 -39.9628 991.188C-34.4123 1044.59 -45.1337 1089.89 -55.2246 1120.17" stroke="#D4E6F3" stroke-miterlimit="10"/>
<path d="M278.484 19.5322C249.465 59.8858 213.407 94.6758 172.04 122.232C73.7837 187.048 2.04581 170.466 -13.1113 211.388C-36.5529 274.624 128.289 331.818 142.562 470.523C153.025 572.286 77.3309 667.959 59.8119 690.124C-8.54542 776.515 -76.1099 782.658 -83.8583 848.359C-89.5776 896.416 -55.8707 913.822 -47.8951 990.509C-42.3447 1043.91 -53.0832 1089.21 -63.1569 1119.49" stroke="#D4E6F3" stroke-miterlimit="10"/>
<path d="M270.539 18.8706C241.515 59.2203 205.457 94.0096 164.095 121.571C65.8386 186.369 -5.89947 169.804 -21.0564 210.71C-44.4976 273.911 120.344 331.14 134.685 469.862C145.149 571.609 69.4539 667.299 51.9351 689.446C-16.4224 775.854 -83.9867 781.98 -91.7353 847.698C-97.4545 895.755 -63.7474 913.144 -55.7721 989.848C-50.2217 1043.25 -60.9602 1088.55 -71.0341 1118.85" stroke="#D4E6F3" stroke-miterlimit="10"/>
<path d="M262.574 18.2236C233.547 58.5723 197.476 93.3514 156.096 120.889C57.8398 185.704 -13.8981 169.123 -29.0552 210.045C-52.5138 273.281 112.328 330.475 126.601 469.18C137.081 570.943 61.387 666.616 43.8681 688.781C-24.4893 775.172 -92.0537 781.315 -99.8021 847.016C-105.521 895.073 -71.8145 912.479 -63.839 989.166C-58.3056 1042.57 -69.027 1087.87 -79.1008 1118.15" stroke="#D4E6F3" stroke-miterlimit="10"/>
<path d="M254.695 17.5293C225.681 57.8873 189.622 92.6782 148.251 120.229C50.0119 185.028 -21.7262 168.463 -36.9002 209.368C-60.342 272.621 104.5 329.798 118.773 468.52C129.254 570.267 53.5589 665.957 36.0231 688.104C-32.3174 774.512 -99.8817 780.638 -107.647 846.356C-113.367 894.413 -79.6597 911.819 -71.7013 988.506C-66.1506 1041.89 -76.872 1087.19 -86.9631 1117.49" stroke="#D4E6F3" stroke-miterlimit="10"/>
<path d="M246.68 16.8486C217.661 57.2081 181.603 92.004 140.235 119.566C41.9961 184.364 -29.7418 167.782 -44.916 208.705C-68.3572 271.906 96.4845 329.135 110.808 467.84C121.289 569.604 45.5945 665.277 28.0585 687.441C-40.2818 773.832 -107.863 779.975 -115.612 845.676C-121.331 893.733 -87.6412 911.139 -79.6657 987.826C-74.1152 1041.23 -84.8367 1086.53 -94.9275 1116.81" stroke="#D4E6F3" stroke-miterlimit="10"/>
<path d="M238.73 16.2202C209.688 56.5673 173.606 91.3457 132.218 118.885C33.9622 183.684 -37.7589 167.119 -52.933 208.041C-76.3747 271.277 88.4677 328.454 102.74 467.176C113.221 568.923 37.5262 664.613 19.9904 686.76C-48.3501 773.168 -115.931 779.294 -123.68 845.012C-129.399 893.069 -95.7094 910.475 -87.7339 987.162C-82.1833 1040.55 -92.9047 1085.85 -102.996 1116.14" stroke="#D4E6F3" stroke-miterlimit="10"/>
<path d="M230.816 15.5249C201.792 55.8746 165.735 90.6638 124.372 118.225C26.1159 183.023 -45.6051 166.459 -60.7791 207.364C-84.2207 270.6 80.6215 327.794 94.8939 466.499C105.358 568.262 29.6631 663.935 12.1442 686.099C-56.1961 772.491 -123.778 778.633 -131.526 844.352C-137.245 892.391 -103.555 909.798 -95.5802 986.502C-90.0298 1039.91 -100.751 1085.2 -110.842 1115.48" stroke="#D4E6F3" stroke-miterlimit="10"/>
<path d="M222.836 14.8438C193.816 55.1974 157.758 89.9874 116.392 117.544C18.1355 182.342 -53.5855 165.778 -68.7597 206.7C-92.2013 269.936 72.641 327.113 86.9133 465.835C97.3771 567.581 21.6824 663.271 4.16371 685.418C-64.1939 771.826 -131.758 777.952 -139.507 843.671C-145.226 891.727 -111.519 909.134 -103.544 985.821C-97.9929 1039.21 -108.714 1084.5 -118.805 1114.8" stroke="#D4E6F3" stroke-miterlimit="10"/>
<path d="M214.891 14.2168C185.862 54.5626 149.805 89.3511 108.446 116.917C10.1901 181.715 -61.5309 165.151 -76.7049 206.056C-100.129 269.258 64.764 326.487 78.9686 465.156C89.4322 566.92 13.7378 662.593 -3.78117 684.757C-72.1385 771.148 -139.703 777.291 -147.452 843.01C-153.171 891.049 -119.464 908.456 -111.488 985.16C-105.938 1038.56 -116.677 1083.86 -126.75 1114.14" stroke="#D4E6F3" stroke-miterlimit="10"/>
<path d="M206.941 13.5034C177.922 53.857 141.864 88.647 100.497 116.203C2.24093 181.002 -69.4971 164.437 -84.6543 205.36C-108.096 268.595 56.7465 325.772 71.0187 464.494C81.4826 566.241 5.7879 661.931 -11.7306 684.061C-80.0882 770.469 -147.652 776.595 -155.401 842.313C-161.12 890.37 -127.413 907.776 -119.438 984.463C-113.887 1037.85 -124.626 1083.15 -134.7 1113.45" stroke="#D4E6F3" stroke-miterlimit="10"/>
<path d="M198.992 12.8403C169.968 53.19 133.911 87.9793 92.5479 115.54C-5.70829 180.339 -77.4464 163.774 -92.6033 204.679C-116.045 267.898 48.7973 325.109 63.0527 463.814C73.5163 565.577 -2.17816 661.25 -19.6971 683.415C-88.0544 769.806 -155.619 775.948 -163.367 841.667C-169.087 889.707 -135.38 907.113 -127.404 983.817C-121.871 1037.22 -132.592 1082.52 -142.666 1112.8" stroke="#D4E6F3" stroke-miterlimit="10"/>
<path d="M191.027 12.2124C162.017 52.5741 125.957 87.3657 84.5831 114.912C-13.6561 179.711 -85.3942 163.146 -100.551 204.069C-124.009 267.253 40.8836 324.482 55.1053 463.152C65.5862 564.899 -10.1085 660.589 -27.6272 682.736C-95.9848 769.144 -163.549 775.27 -171.298 840.988C-177.017 889.045 -143.31 906.452 -135.334 983.139C-129.801 1036.53 -140.522 1081.82 -150.596 1112.12" stroke="#D4E6F3" stroke-miterlimit="10"/>
<path d="M183.066 11.499C154.052 51.857 117.993 86.6479 76.6221 114.199C-21.617 178.997 -93.3551 162.433 -108.529 203.338C-131.971 266.574 32.8715 323.768 47.1439 462.473C57.6246 564.236 -18.0698 659.909 -35.6058 682.073C-103.946 768.465 -171.528 774.607 -179.276 840.326C-184.996 888.383 -151.305 905.772 -143.33 982.476C-137.78 1035.88 -148.501 1081.18 -158.592 1111.46" stroke="#D4E6F3" stroke-miterlimit="10"/>
<path d="M175.133 10.8193C146.118 51.1774 110.059 85.9682 68.6885 113.519C-29.5506 178.318 -101.289 161.753 -116.463 202.675C-139.904 265.894 24.9379 323.088 39.176 461.81C49.6569 563.556 -26.0378 659.246 -43.5736 681.393C-111.914 767.802 -179.495 773.927 -187.244 839.646C-192.963 887.702 -159.273 905.109 -151.298 981.796C-145.747 1035.18 -156.469 1080.48 -166.56 1110.78" stroke="#D4E6F3" stroke-miterlimit="10"/>
<path d="M167.184 10.209C138.164 50.5626 102.106 85.3526 60.7393 112.909C-37.5169 177.707 -109.238 161.143 -124.412 202.048C-147.887 265.232 17.0057 322.478 31.2618 461.132C41.7254 562.895 -33.9693 658.585 -51.488 680.732C-119.828 767.124 -187.41 773.266 -195.158 838.985C-200.878 887.041 -167.188 904.431 -159.212 981.135C-153.662 1034.54 -164.383 1079.84 -174.474 1110.12" stroke="#D4E6F3" stroke-miterlimit="10"/>
<path d="M159.188 9.47803C130.173 49.8361 94.1139 84.6269 52.7432 112.178C-45.513 176.976 -117.234 160.412 -132.408 201.334C-155.85 264.57 8.99254 321.747 23.2648 460.469C33.7799 562.216 -41.9148 657.906 -59.4335 680.053C-127.791 766.461 -195.355 772.587 -203.104 838.306C-208.823 886.362 -175.116 903.769 -167.141 980.456C-161.59 1033.84 -172.312 1079.14 -182.403 1109.44" stroke="#D4E6F3" stroke-miterlimit="10"/>
<path d="M151.289 8.81543C122.27 49.169 86.2112 83.959 44.8448 111.515C-53.4114 176.314 -125.132 159.749 -140.306 200.654C-163.748 263.89 1.09413 321.084 15.2983 459.788C25.762 561.552 -49.9327 657.242 -67.4514 679.389C-135.809 765.78 -203.373 771.923 -211.122 837.642C-216.841 885.698 -183.134 903.087 -175.159 979.791C-169.608 1033.2 -180.33 1078.49 -190.42 1108.77" stroke="#D4E6F3" stroke-miterlimit="10"/>
<path d="M143.344 8.20508C114.324 48.5587 78.2659 83.3487 36.8995 110.905C-61.3567 175.703 -133.095 159.139 -148.252 200.061C-171.761 263.228 -6.86826 320.474 7.42193 459.128C17.8858 560.874 -57.8089 656.564 -75.3276 678.711C-143.685 765.12 -211.249 771.245 -218.998 836.964C-224.717 885.02 -191.01 902.427 -183.035 979.114C-177.484 1032.5 -188.223 1077.81 -198.297 1108.1" stroke="#D4E6F3" stroke-miterlimit="10"/>
<path d="M135.312 7.47461C106.289 47.8243 70.2309 82.6136 28.8682 110.175C-69.388 174.973 -141.126 158.408 -156.283 199.314C-179.725 262.549 -14.8825 319.744 -0.609979 458.448C9.939 560.213 -65.7557 655.903 -83.2744 678.05C-151.632 764.458 -219.196 770.584 -226.945 836.303C-232.664 884.359 -198.957 901.748 -190.982 978.453C-185.431 1031.86 -196.17 1077.15 -206.243 1107.43" stroke="#D4E6F3" stroke-miterlimit="10"/>
<path d="M127.43 6.79492C98.4204 47.1515 62.3671 81.9423 21.0025 109.495C-77.2537 174.293 -148.992 157.729 -164.149 198.651C-187.608 261.887 -22.7653 319.064 -8.47591 457.786C1.98793 559.532 -73.7067 655.222 -91.2255 677.37C-159.583 763.778 -227.147 769.92 -234.896 835.622C-240.615 883.679 -206.908 901.085 -198.933 977.772C-193.399 1031.16 -204.121 1076.47 -214.195 1106.75" stroke="#D4E6F3" stroke-miterlimit="10"/>
<path d="M119.484 6.20117C90.47 46.5592 54.4108 81.3501 13.0401 108.901C-85.199 173.7 -156.937 157.135 -172.111 198.04C-195.637 261.224 -30.7447 318.47 -16.4372 457.107C-5.95654 558.87 -81.6512 654.56 -99.187 676.707C-167.527 763.116 -235.092 769.242 -242.857 834.96C-248.577 883.017 -214.87 900.406 -206.911 977.11C-201.361 1030.51 -212.082 1075.81 -222.173 1106.09" stroke="#D4E6F3" stroke-miterlimit="10"/>
<path d="M111.539 5.4541C82.5247 45.8121 46.4655 80.603 5.0948 108.154C-93.1443 172.953 -164.882 156.388 -180.057 197.31C-203.498 260.546 -38.6561 317.74 -24.3836 456.445C-13.9027 558.191 -89.5462 653.882 -107.133 676.046C-175.474 762.437 -243.055 768.579 -250.804 834.281C-256.523 882.338 -222.833 899.744 -214.857 976.431C-209.307 1029.83 -220.028 1075.13 -230.119 1105.41" stroke="#D4E6F3" stroke-miterlimit="10"/>
<path d="M103.59 4.79199C74.5704 45.1456 38.512 79.9356 -2.85443 107.492C-101.111 172.29 -172.832 155.726 -188.006 196.631C-211.447 259.884 -46.6051 317.061 -32.3326 455.766C-21.8519 557.529 -97.5466 653.219 -115.082 675.366C-183.423 761.775 -251.004 767.9 -258.753 833.619C-264.472 881.676 -230.782 899.065 -222.807 975.769C-217.256 1029.17 -227.978 1074.47 -238.069 1104.75" stroke="#D4E6F3" stroke-miterlimit="10"/>
</svg>
