<svg width="121" height="235" viewBox="0 0 121 235" fill="none" xmlns="http://www.w3.org/2000/svg">
<path d="M79.1016 136.638C77.1796 135.539 74.8204 135.539 72.8984 136.638L35.7305 157.886C33.7839 158.999 32.583 161.069 32.583 163.312V205.688C32.583 207.931 33.7839 210.001 35.7305 211.114L72.8984 232.362C74.8204 233.461 77.1796 233.461 79.1016 232.362L116.27 211.114C118.216 210.001 119.417 207.931 119.417 205.688V163.312C119.417 161.069 118.216 158.999 116.27 157.886L79.1016 136.638Z" stroke="#B8D5EB" stroke-opacity="0.66" stroke-width="1.5"/>
<path d="M-4.375 153.093C-5.6077 152.381 -7.10877 152.336 -8.375 152.959L-8.625 153.093L-28.3066 164.456C-29.6216 165.215 -30.4316 166.618 -30.4316 168.137V190.863C-30.4316 192.382 -29.6216 193.785 -28.3066 194.544L-8.625 205.907C-7.3923 206.619 -5.89123 206.664 -4.625 206.041L-4.375 205.907L15.3066 194.544C16.6216 193.785 17.4316 192.382 17.4316 190.863V168.137C17.4316 166.618 16.6216 165.215 15.3066 164.456L-4.375 153.093Z" stroke="#B8D5EB" stroke-opacity="0.66" stroke-width="1.5"/>
<path d="M23.625 19.9795C19.3538 17.5136 14.1222 17.4362 9.79102 19.748L9.375 19.9795L-35.8135 46.0693C-40.2224 48.6148 -42.9384 53.3192 -42.9385 58.4102V110.59C-42.9384 115.681 -40.2224 120.385 -35.8135 122.931L9.375 149.021C13.6462 151.486 18.8778 151.564 23.209 149.252L23.625 149.021L68.8135 122.931C73.2224 120.385 75.9384 115.681 75.9385 110.59V58.4102C75.9384 53.3192 73.2224 48.6148 68.8135 46.0693L23.625 19.9795Z" stroke="#B8D5EB" stroke-opacity="0.66" stroke-width="1.5"/>
</svg>
