<svg width="143" height="388" viewBox="0 0 143 388" fill="none" xmlns="http://www.w3.org/2000/svg">
<path d="M94.6562 471.983C90.2473 474.529 84.8152 474.529 80.4062 471.983L20.0625 437.144C15.6536 434.598 12.9375 429.894 12.9375 424.803L12.9375 355.123C12.9375 350.032 15.6535 345.328 20.0625 342.782L80.4062 307.942C84.6774 305.476 89.909 305.399 94.2402 307.711L94.6562 307.942L155 342.782C159.409 345.328 162.125 350.032 162.125 355.123L162.125 424.803C162.125 429.894 159.409 434.598 155 437.144L94.6562 471.983Z" stroke="#B8D5EB" stroke-opacity="0.3" stroke-width="1.5"/>
<path d="M169.656 430.983C165.247 433.529 159.815 433.529 155.406 430.983L95.0625 396.144C90.6536 393.598 87.9375 388.894 87.9375 383.803L87.9375 314.123C87.9375 309.032 90.6535 304.328 95.0625 301.782L155.406 266.942C159.677 264.476 164.909 264.399 169.24 266.711L169.656 266.942L230 301.782C234.409 304.328 237.125 309.032 237.125 314.123L237.125 383.803C237.125 388.894 234.409 393.598 230 396.144L169.656 430.983Z" stroke="#B8D5EB" stroke-opacity="0.3" stroke-width="1.5"/>
<path d="M169.656 342.983C165.247 345.529 159.815 345.529 155.406 342.983L95.0625 308.144C90.6536 305.598 87.9375 300.894 87.9375 295.803L87.9375 226.123C87.9375 221.032 90.6535 216.328 95.0625 213.782L155.406 178.942C159.677 176.476 164.909 176.399 169.24 178.711L169.656 178.942L230 213.782C234.409 216.328 237.125 221.032 237.125 226.123L237.125 295.803C237.125 300.894 234.409 305.598 230 308.144L169.656 342.983Z" stroke="#B8D5EB" stroke-opacity="0.3" stroke-width="1.5"/>
<path d="M170.656 169.983C166.247 172.529 160.815 172.529 156.406 169.983L96.0625 135.144C91.6536 132.598 88.9375 127.894 88.9375 122.803L88.9375 53.1231C88.9375 48.0321 91.6535 43.3277 96.0625 40.7822L156.406 5.94239C160.677 3.47645 165.909 3.3991 170.24 5.71094L170.656 5.94239L231 40.7822C235.409 43.3277 238.125 48.032 238.125 53.123L238.125 122.803C238.125 127.894 235.409 132.598 231 135.144L170.656 169.983Z" stroke="#B8D5EB" stroke-opacity="0.3" stroke-width="1.5"/>
<path d="M97.6562 299.983C93.2473 302.529 87.8152 302.529 83.4062 299.983L23.0625 265.144C18.6536 262.598 15.9375 257.894 15.9375 252.803L15.9375 183.123C15.9375 178.032 18.6535 173.328 23.0625 170.782L83.4062 135.942C87.6774 133.476 92.909 133.399 97.2402 135.711L97.6562 135.942L158 170.782C162.409 173.328 165.125 178.032 165.125 183.123L165.125 252.803C165.125 257.894 162.409 262.598 158 265.144L97.6562 299.983Z" stroke="#B8D5EB" stroke-opacity="0.3" stroke-width="1.5"/>
<path d="M97.6562 212.983C93.2473 215.529 87.8152 215.529 83.4062 212.983L23.0625 178.144C18.6536 175.598 15.9375 170.894 15.9375 165.803L15.9375 96.1231C15.9375 91.0321 18.6535 86.3277 23.0625 83.7822L83.4062 48.9424C87.6774 46.4765 92.909 46.3991 97.2402 48.7109L97.6562 48.9424L158 83.7822C162.409 86.3277 165.125 91.032 165.125 96.123L165.125 165.803C165.125 170.894 162.409 175.598 158 178.144L97.6562 212.983Z" stroke="#B8D5EB" stroke-opacity="0.3" stroke-width="1.5"/>
</svg>
