<svg width="300" height="365" viewBox="0 0 300 365" fill="none" xmlns="http://www.w3.org/2000/svg">
<path d="M71.125 131.979C66.7161 129.434 61.2839 129.434 56.875 131.979L-3.46875 166.819C-7.87769 169.365 -10.5937 174.069 -10.5938 179.16V248.84C-10.5937 253.931 -7.87769 258.635 -3.46875 261.181L56.875 296.021C61.1462 298.486 66.3778 298.564 70.709 296.252L71.125 296.021L131.469 261.181C135.878 258.635 138.594 253.931 138.594 248.84V179.16C138.594 174.069 135.878 169.365 131.469 166.819L71.125 131.979Z" stroke="#B8D5EB" stroke-opacity="0.47" stroke-width="1.5"/>
<path d="M146.125 172.979C141.716 170.434 136.284 170.434 131.875 172.979L71.5312 207.819C67.1223 210.365 64.4063 215.069 64.4062 220.16V289.84C64.4063 294.931 67.1223 299.635 71.5312 302.181L131.875 337.021C136.146 339.486 141.378 339.564 145.709 337.252L146.125 337.021L206.469 302.181C210.878 299.635 213.594 294.931 213.594 289.84V220.16C213.594 215.069 210.878 210.365 206.469 207.819L146.125 172.979Z" stroke="#B8D5EB" stroke-opacity="0.47" stroke-width="1.5"/>
<path d="M220.125 131.979C215.716 129.434 210.284 129.434 205.875 131.979L145.531 166.819C141.122 169.365 138.406 174.069 138.406 179.16V248.84C138.406 253.931 141.122 258.635 145.531 261.181L205.875 296.021C210.146 298.486 215.378 298.564 219.709 296.252L220.125 296.021L280.469 261.181C284.878 258.635 287.594 253.931 287.594 248.84V179.16C287.594 174.069 284.878 169.365 280.469 166.819L220.125 131.979Z" stroke="#B8D5EB" stroke-opacity="0.47" stroke-width="1.5"/>
<path d="M146.125 260.979C141.716 258.434 136.284 258.434 131.875 260.979L71.5312 295.819C67.1223 298.365 64.4063 303.069 64.4062 308.16V377.84C64.4063 382.931 67.1223 387.635 71.5312 390.181L131.875 425.021C136.146 427.486 141.378 427.564 145.709 425.252L146.125 425.021L206.469 390.181C210.878 387.635 213.594 382.931 213.594 377.84V308.16C213.594 303.069 210.878 298.365 206.469 295.819L146.125 260.979Z" stroke="#B8D5EB" stroke-opacity="0.47" stroke-width="1.5"/>
<path d="M146.125 2.97949C141.716 0.434026 136.284 0.434026 131.875 2.97949L71.5312 37.8193C67.1223 40.3648 64.4063 45.0692 64.4062 50.1602V119.84C64.4063 124.931 67.1223 129.635 71.5312 132.181L131.875 167.021C136.146 169.486 141.378 169.564 145.709 167.252L146.125 167.021L206.469 132.181C210.878 129.635 213.594 124.931 213.594 119.84V50.1602C213.594 45.0692 210.878 40.3648 206.469 37.8193L146.125 2.97949Z" stroke="#B8D5EB" stroke-opacity="0.47" stroke-width="1.5"/>
<path d="M74.125 303.979C69.7161 301.434 64.2839 301.434 59.875 303.979L-0.46875 338.819C-4.87769 341.365 -7.59371 346.069 -7.59375 351.16V420.84C-7.59371 425.931 -4.87769 430.635 -0.46875 433.181L59.875 468.021C64.1462 470.486 69.3778 470.564 73.709 468.252L74.125 468.021L134.469 433.181C138.878 430.635 141.594 425.931 141.594 420.84V351.16C141.594 346.069 138.878 341.365 134.469 338.819L74.125 303.979Z" stroke="#B8D5EB" stroke-opacity="0.47" stroke-width="1.5"/>
</svg>
