<svg width="40" height="39" viewBox="0 0 40 39" fill="none" xmlns="http://www.w3.org/2000/svg">
<path d="M20 24.375C12.8175 24.375 7 27.2837 7 30.875V34.125H33V30.875C33 27.2837 27.1825 24.375 20 24.375ZM13.5 14.625C13.5 16.3489 14.1848 18.0022 15.4038 19.2212C16.6228 20.4402 18.2761 21.125 20 21.125C21.7239 21.125 23.3772 20.4402 24.5962 19.2212C25.8152 18.0022 26.5 16.3489 26.5 14.625M19.1875 3.25C18.7 3.25 18.375 3.59125 18.375 4.0625V8.9375H16.75V4.875C16.75 4.875 13.0938 6.2725 13.0938 10.9688C13.0938 10.9688 11.875 11.1962 11.875 13H28.125C28.0437 11.1962 26.9062 10.9688 26.9062 10.9688C26.9062 6.2725 23.25 4.875 23.25 4.875V8.9375H21.625V4.0625C21.625 3.59125 21.3163 3.25 20.8125 3.25H19.1875Z" fill="#2D9BD6"/>
</svg>
