<svg width="107" height="213" viewBox="0 0 107 213" fill="none" xmlns="http://www.w3.org/2000/svg">
<path d="M-21.625 119.67C-19.6913 118.554 -17.3087 118.554 -15.375 119.67L15.2969 137.379C17.2305 138.495 18.4217 140.558 18.4219 142.791V178.209C18.4217 180.442 17.2305 182.505 15.2969 183.621L-15.375 201.33C-17.3087 202.446 -19.6913 202.446 -21.625 201.33L-52.2969 183.621C-54.2305 182.505 -55.4217 180.442 -55.4219 178.209V142.791C-55.4217 140.558 -54.2305 138.495 -52.2969 137.379L-21.625 119.67Z" stroke="#B8D5EB" stroke-width="1.5"/>
<path d="M50.375 134.093C51.6899 133.334 53.3101 133.334 54.625 134.093L70.8428 143.456C72.1577 144.215 72.9678 145.618 72.9678 147.137V165.863C72.9678 167.382 72.1577 168.785 70.8428 169.544L54.625 178.907C53.3923 179.619 51.8912 179.664 50.625 179.041L50.375 178.907L34.1572 169.544C32.8423 168.785 32.0322 167.382 32.0322 165.863V147.137C32.0322 145.618 32.8423 144.215 34.1572 143.456L50.375 134.093Z" stroke="#B8D5EB" stroke-width="1.5"/>
<path d="M25.375 19.9795C29.7839 17.434 35.2161 17.434 39.625 19.9795L76.1533 41.0693C80.5623 43.6148 83.2783 48.3192 83.2783 53.4102V95.5898C83.2783 100.681 80.5623 105.385 76.1533 107.931L39.625 129.021C35.3538 131.486 30.1222 131.564 25.791 129.252L25.375 129.021L-11.1533 107.931C-15.5623 105.385 -18.2783 100.681 -18.2783 95.5898V53.4102C-18.2783 48.3192 -15.5623 43.6148 -11.1533 41.0693L25.375 19.9795Z" stroke="#B8D5EB" stroke-width="1.5"/>
</svg>
