<svg width="219" height="476" viewBox="0 0 219 476" fill="none" xmlns="http://www.w3.org/2000/svg">
<path d="M94.125 471.021C89.7161 473.566 84.2839 473.566 79.875 471.021L19.5312 436.181C15.1223 433.635 12.4063 428.931 12.4062 423.84L12.4062 354.16C12.4063 349.069 15.1223 344.365 19.5312 341.819L79.875 306.98C84.1462 304.514 89.3778 304.436 93.709 306.748L94.125 306.979L154.469 341.819C158.878 344.365 161.594 349.069 161.594 354.16L161.594 423.84C161.594 428.931 158.878 433.635 154.469 436.181L94.125 471.021Z" stroke="#B8D5EB" stroke-opacity="0.3" stroke-width="1.5"/>
<path d="M169.125 430.021C164.716 432.566 159.284 432.566 154.875 430.021L94.5312 395.181C90.1223 392.635 87.4063 387.931 87.4062 382.84L87.4062 313.16C87.4063 308.069 90.1223 303.365 94.5312 300.819L154.875 265.98C159.146 263.514 164.378 263.436 168.709 265.748L169.125 265.979L229.469 300.819C233.878 303.365 236.594 308.069 236.594 313.16L236.594 382.84C236.594 387.931 233.878 392.635 229.469 395.181L169.125 430.021Z" stroke="#B8D5EB" stroke-opacity="0.3" stroke-width="1.5"/>
<path d="M243.125 471.021C238.716 473.566 233.284 473.566 228.875 471.021L168.531 436.181C164.122 433.635 161.406 428.931 161.406 423.84L161.406 354.16C161.406 349.069 164.122 344.365 168.531 341.819L228.875 306.98C233.146 304.514 238.378 304.436 242.709 306.748L243.125 306.979L303.469 341.819C307.878 344.365 310.594 349.069 310.594 354.16L310.594 423.84C310.594 428.931 307.878 433.635 303.469 436.181L243.125 471.021Z" stroke="#B8D5EB" stroke-opacity="0.3" stroke-width="1.5"/>
<path d="M169.125 342.021C164.716 344.566 159.284 344.566 154.875 342.021L94.5312 307.181C90.1223 304.635 87.4063 299.931 87.4062 294.84L87.4062 225.16C87.4063 220.069 90.1223 215.365 94.5312 212.819L154.875 177.98C159.146 175.514 164.378 175.436 168.709 177.748L169.125 177.979L229.469 212.819C233.878 215.365 236.594 220.069 236.594 225.16L236.594 294.84C236.594 299.931 233.878 304.635 229.469 307.181L169.125 342.021Z" stroke="#B8D5EB" stroke-opacity="0.3" stroke-width="1.5"/>
<path d="M170.125 169.021C165.716 171.566 160.284 171.566 155.875 169.021L95.5312 134.181C91.1223 131.635 88.4063 126.931 88.4062 121.84L88.4062 52.1602C88.4063 47.0692 91.1223 42.3648 95.5312 39.8193L155.875 4.9795C160.146 2.51356 165.378 2.4362 169.709 4.74805L170.125 4.9795L230.469 39.8193C234.878 42.3648 237.594 47.0692 237.594 52.1602L237.594 121.84C237.594 126.931 234.878 131.635 230.469 134.181L170.125 169.021Z" stroke="#B8D5EB" stroke-opacity="0.3" stroke-width="1.5"/>
<path d="M97.125 299.021C92.7161 301.566 87.2839 301.566 82.875 299.021L22.5312 264.181C18.1223 261.635 15.4063 256.931 15.4062 251.84L15.4062 182.16C15.4063 177.069 18.1223 172.365 22.5312 169.819L82.875 134.98C87.1462 132.514 92.3778 132.436 96.709 134.748L97.125 134.979L157.469 169.819C161.878 172.365 164.594 177.069 164.594 182.16L164.594 251.84C164.594 256.931 161.878 261.635 157.469 264.181L97.125 299.021Z" stroke="#B8D5EB" stroke-opacity="0.3" stroke-width="1.5"/>
<path d="M97.125 212.021C92.7161 214.566 87.2839 214.566 82.875 212.021L22.5312 177.181C18.1223 174.635 15.4063 169.931 15.4062 164.84L15.4062 95.1602C15.4063 90.0692 18.1223 85.3648 22.5312 82.8193L82.875 47.9795C87.1462 45.5136 92.3778 45.4362 96.709 47.7481L97.125 47.9795L157.469 82.8193C161.878 85.3648 164.594 90.0692 164.594 95.1602L164.594 164.84C164.594 169.931 161.878 174.635 157.469 177.181L97.125 212.021Z" stroke="#B8D5EB" stroke-opacity="0.3" stroke-width="1.5"/>
</svg>
