<svg width="91" height="102" viewBox="0 0 91 102" fill="none" xmlns="http://www.w3.org/2000/svg">
<path d="M63.25 55.165C61.6546 54.2439 59.712 54.1862 58.0732 54.9922L57.75 55.165L47.7285 60.9512C46.0269 61.9336 44.9786 63.749 44.9785 65.7139V77.2861C44.9786 79.251 46.0269 81.0664 47.7285 82.0488L57.75 87.835C59.4517 88.8174 61.5483 88.8174 63.25 87.835L73.2715 82.0488C74.9731 81.0664 76.0214 79.251 76.0215 77.2861V65.7139C76.0214 63.749 74.9731 61.9336 73.2715 60.9512L63.25 55.165Z" stroke="#2681B2"/>
<path d="M76.5 29.1547C75.2624 28.4402 73.7376 28.4402 72.5 29.1547L66.5407 32.5953C65.3031 33.3098 64.5407 34.6303 64.5407 36.0594V42.9406C64.5407 44.3697 65.3031 45.6902 66.5407 46.4047L72.5 49.8453C73.7376 50.5598 75.2624 50.5598 76.5 49.8453L82.4593 46.4047C83.6969 45.6902 84.4593 44.3697 84.4593 42.9406V36.0594C84.4593 34.6303 83.6969 33.3098 82.4593 32.5953L76.5 29.1547Z" fill="#2D9BD6"/>
<path d="M33.875 3.3916C31.7866 2.18594 29.2134 2.18594 27.125 3.3916L8.71094 14.0234C6.62269 15.2293 5.33594 17.4577 5.33594 19.8691V41.1309C5.33594 43.5423 6.62269 45.7707 8.71094 46.9766L27.125 57.6084C29.0828 58.7386 31.4665 58.8092 33.4775 57.8203L33.875 57.6084L52.2891 46.9766C54.3773 45.7707 55.6641 43.5423 55.6641 41.1309V19.8691C55.6641 17.4577 54.3773 15.2293 52.2891 14.0234L33.875 3.3916Z" stroke="#2681B2" stroke-width="2.5"/>
</svg>
