<svg width="224" height="1302" viewBox="0 0 224 1302" fill="none" xmlns="http://www.w3.org/2000/svg">
<path d="M-105.836 1105.02C3.62491 1093.72 84.8349 939.762 92.8512 821.982C102.076 686.254 11.8552 631.363 48.78 529.265C82.4445 436.093 174.837 434.208 194.857 365.523C213.253 302.4 165.703 199.457 -96.2215 22.4911" stroke="#D4E6F3" stroke-miterlimit="10"/>
<path d="M-109.424 29.7965C148.68 204.587 198.373 307.672 182.37 371.797C170.446 419.32 124.326 435.979 86.4365 472.024C66.9794 489.992 51.9717 512.448 42.7607 537.376C12.5265 619.027 60.9196 670.343 76.3193 759.497C80.3107 782.224 81.6615 805.47 80.3441 828.756C74.0262 947.085 2.10675 1099.66 -103.606 1113.54" stroke="#D4E6F3" stroke-miterlimit="10"/>
<path d="M-122.588 37.1235C131.681 209.738 183.502 312.908 169.884 377.899C159.87 425.671 115.791 443.51 79.6698 479.702C60.8232 498.144 46.1474 520.579 36.7614 545.297C6.23029 625.741 49.4336 676.831 63.763 766.251C67.4507 788.977 68.8161 812.136 67.8374 835.358C62.8615 954.241 0.606699 1105.43 -101.359 1121.88" stroke="#D4E6F3" stroke-miterlimit="10"/>
<path d="M-135.716 44.4324C114.666 214.83 168.594 318.142 157.41 384.077C149.265 432.137 107.271 451.08 72.8939 487.476C54.6712 506.35 40.3212 528.747 30.7589 553.237C-0.0755439 632.551 37.9707 683.243 51.2036 773.024C54.636 795.761 56.0335 818.861 55.3791 842.038C51.952 961.465 -0.843867 1111.26 -99.0629 1130.29" stroke="#D4E6F3" stroke-miterlimit="10"/>
<path d="M-148.933 51.7371C97.6747 219.961 153.677 323.337 144.924 390.275C138.634 438.562 98.7159 458.706 66.1405 495.29C48.5316 514.61 34.4903 537.009 24.7518 561.312C-6.38649 639.497 26.4799 689.847 38.6321 780.028C41.761 802.728 43.1699 825.718 42.8462 848.793C40.9665 968.783 -2.38976 1117.18 -96.8653 1138.81" stroke="#D4E6F3" stroke-miterlimit="10"/>
<path d="M-162.106 58.9669C80.6909 225.074 140.576 328.662 132.464 396.474C126.726 444.88 90.2987 466.338 59.3778 503.065C42.4118 522.823 28.68 545.223 18.755 569.33C-12.6878 646.385 15.0022 696.356 26.0658 786.802C28.9395 809.485 30.3767 832.398 30.3687 855.398C30.1111 975.954 -3.86191 1122.95 -94.6128 1147.16" stroke="#D4E6F3" stroke-miterlimit="10"/>
<path d="M-175.293 66.3694C63.6881 230.205 123.731 333.723 120.101 402.657C117.301 451.335 81.7684 474.005 52.5968 510.859C36.281 531.032 22.8514 553.436 12.741 577.348C-19.0067 653.274 3.52078 702.923 13.4944 793.654C16.0901 816.32 17.5434 839.158 17.8486 862.078C19.1386 983.197 -5.31991 1128.8 -92.3841 1155.58" stroke="#D4E6F3" stroke-miterlimit="10"/>
<path d="M-188.472 73.6756C46.7083 235.278 108.863 338.9 107.531 408.852C106.665 457.722 73.4036 481.716 45.8539 518.655C30.2034 539.227 17.0812 561.644 6.80249 585.368C-25.2672 660.145 -7.94014 709.471 0.997845 800.508C3.05384 821.69 4.84693 844.287 5.42209 868.762C8.31425 990.466 -6.83265 1134.65 -90.1164 1164.01" stroke="#D4E6F3" stroke-miterlimit="10"/>
<path d="M-201.648 80.9818C29.7123 240.448 93.8023 344.07 95.125 415.034C96.0219 464.11 65.0306 489.447 39.138 526.49C24.1602 547.462 11.3202 569.906 0.832481 593.446C-31.543 667.094 -19.3574 716.061 -11.5499 807.419C-9.72555 828.688 -7.96508 851.226 -7.05701 875.523C-2.56725 997.638 -8.31606 1140.5 -87.8398 1172.44" stroke="#D4E6F3" stroke-miterlimit="10"/>
<path d="M-214.804 88.3089C12.7405 245.581 78.7816 349.243 82.6272 421.232C85.2709 470.494 56.6167 497.273 32.378 534.229C18.0829 555.572 5.51941 578.039 -5.17865 601.389C-37.8616 673.926 -30.8573 722.552 -24.048 814.218C-22.4477 835.478 -20.6886 858.036 -19.4662 882.152C-13.3082 1004.97 -9.68255 1146.36 -85.4835 1180.87" stroke="#D4E6F3" stroke-miterlimit="10"/>
<path d="M-227.98 95.6153C-4.22777 250.694 63.7274 354.413 70.1946 427.375C74.5667 476.822 48.2929 504.968 25.6209 541.987C12.036 563.699 -0.245648 586.205 -11.1518 609.371C-44.1401 680.76 -42.2991 729.046 -36.6765 821.032C-35.3452 842.378 -33.5627 864.878 -32.0431 888.795C-24.2056 1012.18 -11.2455 1152.15 -83.3091 1189.28" stroke="#D4E6F3" stroke-miterlimit="10"/>
<path d="M-241.152 102.922C-21.2094 255.825 48.6785 359.623 57.7633 433.615C63.8441 483.265 39.9866 512.798 18.8874 549.803C6.76707 571.076 -5.48813 592.863 -17.122 617.431C-50.399 687.692 -53.7597 735.636 -49.2104 827.927C-48.1264 849.321 -46.3219 871.784 -44.5096 895.558C-34.9921 1019.51 -12.6969 1158.09 -81.0374 1197.77" stroke="#D4E6F3" stroke-miterlimit="10"/>
<path d="M-254.321 110.229C-38.2408 260.956 33.6114 364.697 45.3273 439.797C53.136 489.651 31.7277 520.632 12.1655 557.602C0.618604 579.418 -11.344 601.275 -23.0796 625.454C-56.7209 694.584 -65.19 742.171 -61.7343 834.785C-60.9163 856.227 -59.0913 878.672 -56.9598 902.208C-45.7228 1026.72 -14.1283 1163.91 -78.7479 1206.17" stroke="#D4E6F3" stroke-miterlimit="10"/>
<path d="M-267.487 117.496C-55.137 266.071 18.5133 369.982 32.8969 445.979C42.3782 496.035 23.4942 528.466 5.43166 565.4C-5.50592 587.781 -17.1932 609.688 -29.0434 633.4C-62.939 701.422 -76.6475 748.627 -74.2918 841.642C-73.7042 863.152 -71.8556 885.541 -69.4467 908.896C-56.4536 1033.98 -15.5549 1169.77 -76.4535 1214.61" stroke="#D4E6F3" stroke-miterlimit="10"/>
<path d="M-280.636 124.862C-72.0805 271.205 3.4017 375.132 20.498 452.182C31.67 502.461 15.3309 536.324 -1.24757 573.183C-11.5573 596.128 -23.0099 618.122 -34.9671 641.503C-69.1697 708.358 -88.0511 755.262 -86.7819 848.505C-86.2481 870.995 -84.5892 893.393 -81.8115 915.61C-67.1516 1041.22 -17.0065 1175.68 -74.1239 1223.05" stroke="#D4E6F3" stroke-miterlimit="10"/>
<path d="M-293.801 132.168C-89.0404 276.338 -11.6611 380.438 8.11197 458.309C20.9568 508.809 7.19914 544.125 -7.94023 581.004C-17.6034 604.515 -28.8185 626.557 -40.8956 649.529C-75.4108 715.275 -99.4818 761.819 -99.284 855.329C-99.0316 877.789 -97.3664 900.146 -94.2986 922.263C-77.7325 1048.47 -18.4015 1181.49 -71.7296 1231.52" stroke="#D4E6F3" stroke-miterlimit="10"/>
<path d="M-306.96 139.475C-105.969 281.452 -26.8405 385.739 -4.26878 464.571C10.2158 515.253 -0.886458 552.043 -14.5929 588.788C-23.5907 612.865 -34.6247 634.954 -46.805 657.537C-81.6308 722.135 -110.879 768.359 -111.779 862.232C-111.784 884.662 -110.093 906.983 -106.723 928.996C-88.4285 1055.7 -19.7993 1187.36 -69.463 1239.96" stroke="#D4E6F3" stroke-miterlimit="10"/>
<path d="M-320.056 146.801C-122.778 286.593 -41.6732 390.907 -16.3628 470.779C-0.195401 521.744 -8.6226 559.936 -20.9656 596.603C-29.2731 621.328 -40.1295 643.407 -52.4413 665.601C-87.5693 729.077 -122.077 774.942 -124.075 869.147C-124.325 891.546 -122.607 913.835 -118.943 935.747C-98.8133 1063 -20.8772 1193.3 -66.8539 1248.48" stroke="#D4E6F3" stroke-miterlimit="10"/>
<path d="M-333.149 154.107C-139.415 291.643 -56.5527 396.188 -28.5088 477.004C-10.6895 528.213 -16.3987 567.808 -27.435 604.435C-35.096 629.67 -45.7495 651.895 -58.1714 673.664C-93.6772 736.014 -133.382 781.544 -136.421 876.063C-136.918 898.43 -135.173 920.691 -131.214 942.499C-109.227 1070.3 -22.0657 1199.34 -64.2843 1257.01" stroke="#D4E6F3" stroke-miterlimit="10"/>
<path d="M-346.246 161.413C-156.175 296.863 -71.446 401.489 -40.5292 483.217C-21.0392 534.709 -23.9857 575.69 -33.6747 612.278C-40.5238 638.088 -51.1333 660.336 -63.7073 681.736C-99.5522 742.943 -144.483 788.137 -148.661 882.987C-149.414 905.322 -147.641 927.559 -143.379 949.258C-119.472 1077.59 -22.9798 1205.2 -61.541 1265.55" stroke="#D4E6F3" stroke-miterlimit="10"/>
<path d="M-359.325 168.74C-172.923 302.008 -86.4468 406.788 -52.6105 489.371C-31.4833 541.125 -31.6224 583.475 -40.0175 620.023C-46.0714 646.407 -56.602 668.719 -69.2497 689.713C-105.455 749.815 -155.638 794.672 -160.9 889.835C-161.89 912.142 -160.09 934.364 -155.544 955.963C-129.558 1084.74 -24.0148 1211.07 -58.8301 1274.05" stroke="#D4E6F3" stroke-miterlimit="10"/>
<path d="M-372.424 176.027C-75.8565 388.768 -27.7981 532.735 -46.3789 627.94C-66.6596 731.87 -164.605 767.956 -173.219 896.836C-183.304 1048.02 -19.7721 1206 -56.1308 1282.62" stroke="#D4E6F3" stroke-miterlimit="10"/>
</svg>
