<svg width="180" height="1527" viewBox="0 0 180 1527" fill="none" xmlns="http://www.w3.org/2000/svg">
<path d="M254.047 1310.78C141.512 1291.5 70.5787 1101.14 72.4262 958.282C74.5694 793.652 172.862 731.884 143.379 606.51C116.507 492.099 20.8593 485.088 6.02371 400.991C-7.60739 323.704 50.5826 201.635 337.462 1.01635" stroke="#D4E6F3" stroke-miterlimit="10"/>
<path d="M350.12 10.6561C67.3858 208.839 6.96131 330.972 18.0247 409.347C26.2902 467.435 72.6801 489.945 108.862 535.48C127.489 558.208 141.115 586.137 148.516 616.757C172.826 717.059 118.215 776.644 94.5545 883.684C88.4547 910.968 85.0486 939.013 84.406 967.244C80.7499 1110.68 142.169 1298.9 250.596 1321.09" stroke="#D4E6F3" stroke-miterlimit="10"/>
<path d="M362.742 20.3195C84.172 216.067 21.5327 338.193 30.0482 417.494C36.3119 475.786 80.4832 499.618 114.819 545.24C132.772 568.51 146.056 596.396 153.657 626.772C178.378 725.63 129.169 785.208 106.595 892.624C100.81 919.921 97.3967 947.861 96.4084 975.996C91.3128 1120.04 142.829 1306.08 247.149 1331.2" stroke="#D4E6F3" stroke-miterlimit="10"/>
<path d="M375.321 29.9588C100.974 223.224 36.1393 345.414 42.0484 425.733C46.3491 484.275 88.2631 509.337 120.772 555.117C138.041 578.878 150.99 606.7 158.793 636.81C183.927 734.316 140.1 793.677 118.632 901.585C113.111 928.909 109.669 956.775 108.349 984.841C101.6 1129.46 143.427 1313.33 243.639 1341.38" stroke="#D4E6F3" stroke-miterlimit="10"/>
<path d="M388.005 39.5988C117.765 230.429 50.7731 352.589 54.0756 433.996C56.4329 492.719 96.0893 519.126 126.714 565.041C143.307 589.31 155.935 617.119 163.937 647.011C189.482 743.167 151.057 802.379 130.676 910.827C125.473 938.122 122.029 965.855 120.374 993.78C111.972 1139 144.13 1320.7 240.234 1351.69" stroke="#D4E6F3" stroke-miterlimit="10"/>
<path d="M400.64 49.1452C134.545 237.609 63.5123 359.828 66.0737 442.258C67.8478 501.097 103.77 528.915 132.665 574.918C148.553 599.683 160.86 627.477 169.072 657.142C195.029 751.947 162.005 810.965 142.73 919.789C137.794 947.076 134.327 974.714 132.351 1002.53C122.218 1148.35 144.765 1327.88 236.781 1361.8" stroke="#D4E6F3" stroke-miterlimit="10"/>
<path d="M413.283 58.9018C151.353 244.814 80.1651 366.939 77.9825 450.497C76.6863 509.514 111.574 538.751 138.643 584.818C153.82 610.052 165.813 637.835 174.233 667.273C200.602 760.727 172.961 819.621 154.792 928.845C150.146 956.125 146.668 983.672 144.375 1011.38C132.589 1157.8 145.389 1335.15 233.354 1372" stroke="#D4E6F3" stroke-miterlimit="10"/>
<path d="M425.923 68.5413C168.139 251.948 94.7551 374.09 90.1018 458.76C86.7847 517.91 119.201 548.632 144.579 594.718C159.031 620.4 170.703 648.184 179.314 677.404C206.114 769.484 183.894 828.254 166.773 937.9C162.814 963.412 159.006 990.65 156.298 1020.22C142.801 1167.27 146.067 1342.43 229.886 1382.2" stroke="#D4E6F3" stroke-miterlimit="10"/>
<path d="M438.562 78.1809C184.942 259.199 109.557 381.241 102.064 466.999C96.9011 526.307 126.846 558.537 150.494 604.665C164.214 630.796 175.589 658.597 184.432 687.605C211.644 778.334 194.787 836.933 178.811 947.025C175.085 972.655 171.316 999.823 168.278 1029.16C153.089 1176.62 146.725 1349.7 226.417 1392.4" stroke="#D4E6F3" stroke-miterlimit="10"/>
<path d="M451.181 87.8444C201.727 266.403 124.322 388.394 114.125 475.263C107.135 534.705 134.53 568.56 156.469 614.496C169.447 641.041 180.533 668.856 189.609 697.643C217.233 787.045 205.778 845.496 190.811 956.011C187.318 981.641 183.549 1008.83 180.201 1037.94C163.223 1186.16 147.267 1356.97 222.87 1402.6" stroke="#D4E6F3" stroke-miterlimit="10"/>
<path d="M463.823 97.4842C218.514 273.584 139.128 395.545 126.13 483.455C117.333 543.033 142.139 578.418 162.446 624.35C174.655 651.304 185.444 679.152 194.751 707.728C222.787 795.755 216.713 854.059 202.95 965.02C199.729 990.767 195.94 1017.89 192.302 1046.74C173.534 1195.56 148.026 1364.18 219.521 1412.78" stroke="#D4E6F3" stroke-miterlimit="10"/>
<path d="M476.464 107.124C235.319 280.788 153.931 402.744 138.133 491.765C127.548 551.5 149.727 588.44 168.402 634.273C179.129 660.621 189.952 687.598 199.89 717.905C228.318 804.582 227.666 862.738 214.99 974.121C212.021 999.94 208.213 1027.01 204.283 1055.67C183.726 1205.1 148.665 1371.55 216.072 1423.04" stroke="#D4E6F3" stroke-miterlimit="10"/>
<path d="M489.103 116.764C252.181 287.993 168.773 409.78 150.154 500.004C137.762 559.898 157.274 598.461 174.357 644.174C184.441 671.149 194.952 698.195 205.028 728.037C233.927 813.363 238.598 871.347 227.028 983.177C224.331 1009.07 220.503 1036.12 216.264 1064.47C193.879 1214.48 149.304 1378.77 212.622 1433.2" stroke="#D4E6F3" stroke-miterlimit="10"/>
<path d="M501.745 126.357C268.911 295.173 183.638 417.071 162.179 508.243C148.037 568.295 164.806 608.482 180.335 654.074C189.737 681.7 199.956 708.791 210.189 738.074C239.441 822.073 249.573 879.863 239.109 992.232C236.644 1018.22 232.798 1045.2 228.287 1073.32C204.035 1223.92 149.947 1386.05 209.176 1443.4" stroke="#D4E6F3" stroke-miterlimit="10"/>
<path d="M514.362 136.067C285.692 302.378 198.534 424.201 174.178 516.507C158.268 576.74 172.272 618.528 186.267 663.952C194.968 692.228 204.935 719.412 215.304 748.299C244.969 830.9 260.482 888.59 251.124 1001.29C248.631 1028.46 244.981 1055.46 240.187 1082.19C214.166 1233.35 150.621 1393.39 205.704 1453.6" stroke="#D4E6F3" stroke-miterlimit="10"/>
<path d="M527.001 145.707C302.497 309.583 213.376 431.516 186.18 524.677C168.521 585.091 179.724 628.502 192.222 673.875C200.202 702.802 209.916 730.033 220.443 758.431C250.519 839.704 271.434 897.222 263.164 1010.3C260.965 1037.45 257.312 1064.4 252.227 1090.99C224.183 1242.77 151.26 1400.6 202.177 1463.82" stroke="#D4E6F3" stroke-miterlimit="10"/>
<path d="M539.641 155.347C319.282 316.763 228.354 438.831 198.183 533.009C178.814 593.558 187.136 638.616 198.159 683.752C205.399 713.329 214.918 740.606 225.582 768.538C256.07 848.437 282.368 905.831 275.203 1019.4C273.273 1046.52 269.597 1073.43 264.208 1099.88C234.337 1252.17 151.92 1407.87 198.806 1474.02" stroke="#D4E6F3" stroke-miterlimit="10"/>
<path d="M577.564 184.29C369.68 338.353 273.195 460.521 234.234 557.75C209.675 619.008 209.182 668.702 216.029 713.43C220.873 744.982 229.907 772.42 241.041 798.931C272.765 874.755 315.248 931.683 311.382 1046.56C310.233 1073.61 306.486 1100.4 300.215 1126.41C264.471 1280.34 153.861 1429.7 188.463 1504.62" stroke="#D4E6F3" stroke-miterlimit="10"/>
<path d="M590.186 193.953C386.466 345.557 288.252 467.814 246.237 565.92C219.987 627.406 216.479 678.607 221.986 723.214C225.954 755.416 234.89 782.924 246.123 808.946C278.278 883.443 326.163 940.222 323.384 1055.53C322.482 1082.54 318.71 1109.31 312.159 1135.19C274.257 1289.53 154.521 1436.88 184.996 1514.77" stroke="#D4E6F3" stroke-miterlimit="10"/>
<path d="M602.822 203.569C278.928 445.619 217.002 617.187 227.938 733.207C239.873 859.859 337.675 908.461 335.439 1064.68C332.796 1247.93 150.689 1430.55 181.543 1525.02" stroke="#D4E6F3" stroke-miterlimit="10"/>
</svg>
