<svg width="225" height="1557" viewBox="0 0 225 1557" fill="none" xmlns="http://www.w3.org/2000/svg">
<path d="M-101.499 1328.26C11.9795 1315.68 94.0566 1129.85 100.669 987.128C108.275 822.66 13.8104 755.181 50.6633 631.773C84.261 519.153 180.156 517.816 199.944 434.745C218.126 358.4 167.264 233.101 -107.237 15.852" stroke="#D4E6F3" stroke-miterlimit="10"/>
<path d="M-120.446 24.7254C150.062 239.298 203.15 364.793 187.467 442.376C175.777 499.872 128.136 519.597 89.3224 562.91C69.3826 584.496 54.1274 611.569 44.9263 641.698C14.7224 740.384 65.7101 803.098 82.993 911.351C87.467 938.947 89.207 967.145 88.1773 995.364C83.3362 1138.77 10.8837 1323.02 -98.6676 1338.76" stroke="#D4E6F3" stroke-miterlimit="10"/>
<path d="M-133.614 33.6249C132.88 245.519 188.18 371.139 174.986 449.796C165.282 507.615 119.778 528.792 82.8012 572.301C63.502 594.467 48.5912 621.518 39.2054 651.391C8.67543 748.612 54.2719 810.998 70.4474 919.562C74.6061 947.154 76.36 975.247 75.6811 1003.39C72.2413 1147.48 9.80249 1330.15 -95.8212 1349.05" stroke="#D4E6F3" stroke-miterlimit="10"/>
<path d="M-146.747 42.5025C115.678 251.669 173.166 377.482 162.513 457.31C154.754 515.496 111.43 538.032 76.268 581.808C57.6229 604.505 43.0498 631.512 33.4777 661.107C2.61657 756.954 42.8529 818.805 57.8952 927.795C61.7889 955.398 63.5753 983.419 63.2324 1011.51C61.4086 1156.28 8.77021 1337.35 -92.926 1359.42" stroke="#D4E6F3" stroke-miterlimit="10"/>
<path d="M-159.973 51.375C98.4965 257.867 158.139 383.779 150.024 464.847C144.194 523.328 103.044 547.342 69.7559 591.363C51.755 614.607 37.5026 641.62 27.7451 670.986C-3.4472 765.461 31.4057 826.844 45.3315 936.308C48.9096 963.863 50.7061 991.751 50.7052 1019.73C50.4961 1165.19 7.63864 1344.66 -90.1313 1369.92" stroke="#D4E6F3" stroke-miterlimit="10"/>
<path d="M-173.155 60.1565C81.3171 264.042 144.991 390.251 137.555 472.385C132.301 531.015 94.7949 556.658 63.2276 600.87C45.9012 624.651 31.9707 651.668 22.0172 680.795C-9.50637 773.897 19.9657 834.767 32.7648 944.541C36.0775 972.072 37.9023 999.867 38.2279 1027.75C39.7111 1173.92 6.57644 1351.79 -87.2854 1380.21" stroke="#D4E6F3" stroke-miterlimit="10"/>
<path d="M-186.351 69.1479C64.114 270.239 127.948 396.364 125.181 479.905C122.981 538.894 86.4234 566.015 56.6755 610.4C40.031 634.691 26.4151 661.715 16.2666 690.603C-15.5881 782.332 8.51862 842.759 20.1897 952.867C23.2134 980.375 25.0538 1008.08 25.7034 1035.87C28.8013 1182.73 5.52527 1359.02 -84.4672 1390.59" stroke="#D4E6F3" stroke-miterlimit="10"/>
<path d="M-199.541 78.0222C46.9345 276.367 112.959 402.638 112.592 487.436C112.402 546.679 78.224 575.428 50.1625 619.931C34.2153 644.712 20.9193 671.757 10.594 700.415C-21.61 790.747 -2.90747 850.729 7.69252 961.196C10.1343 986.899 12.3238 1014.31 13.2762 1043.99C18.0457 1191.58 4.41615 1366.24 -81.61 1400.98" stroke="#D4E6F3" stroke-miterlimit="10"/>
<path d="M-212.729 86.8966C29.7308 282.61 97.7587 408.901 100.162 494.952C101.806 554.462 70.0057 584.863 43.668 629.51C28.426 654.782 15.4245 681.862 4.88034 710.295C-27.6549 799.254 -14.2957 858.748 -4.86509 969.593C-2.66263 995.398 -0.508053 1022.74 0.787299 1052.21C7.22073 1200.31 3.32817 1373.46 -78.7511 1411.37" stroke="#D4E6F3" stroke-miterlimit="10"/>
<path d="M-225.898 95.7963C12.5498 288.809 82.5978 415.167 87.6345 502.487C91.0935 562.24 61.7428 594.413 37.1226 638.97C22.5959 664.7 9.88272 691.81 -0.881532 720.01C-33.7493 807.619 -25.7735 866.646 -17.3753 977.853C-15.4056 1003.65 -13.2523 1031.01 -11.6334 1060.26C-3.45873 1209.23 2.35734 1380.69 -75.8138 1421.76" stroke="#D4E6F3" stroke-miterlimit="10"/>
<path d="M-239.088 104.671C-4.63348 294.983 67.3944 421.43 75.1653 509.955C80.4205 569.949 53.5631 603.804 30.5723 648.452C16.7895 674.637 4.37086 701.797 -6.61087 729.772C-39.8085 815.986 -37.1968 874.546 -30.0262 986.127C-28.3346 1012.02 -26.158 1039.32 -24.2337 1068.33C-14.3086 1218.01 1.17345 1387.84 -73.0728 1432.12" stroke="#D4E6F3" stroke-miterlimit="10"/>
<path d="M-252.277 113.545C-21.8355 301.18 52.1904 427.739 62.6916 517.539C69.7222 577.796 45.3955 613.358 24.0394 658.006C11.7717 683.672 -0.628467 709.961 -12.3435 739.627C-45.8529 824.469 -48.644 882.562 -42.5833 994.5C-41.1479 1020.45 -38.9493 1047.7 -36.7235 1076.54C-25.0479 1226.92 0.0987471 1395.16 -70.238 1442.57" stroke="#D4E6F3" stroke-miterlimit="10"/>
<path d="M-265.464 122.421C-39.0939 307.374 36.9585 433.884 50.2041 525.053C59.0296 585.575 37.2685 622.916 17.5096 667.537C5.84656 693.868 -6.24716 720.244 -18.0717 749.437C-51.9705 832.903 -60.0662 890.509 -55.1361 1002.83C-53.9762 1028.83 -51.7569 1056.06 -49.2037 1084.62C-35.7374 1235.68 -0.966337 1402.33 -67.395 1452.91" stroke="#D4E6F3" stroke-miterlimit="10"/>
<path d="M-278.65 131.248C-56.2173 313.551 21.6908 440.283 37.7147 532.566C48.2768 593.349 29.1589 632.473 10.9584 677.066C-0.0625002 704.086 -11.8679 730.526 -23.8161 759.152C-57.9892 841.271 -71.5239 898.36 -67.7297 1011.15C-66.8078 1037.24 -64.5652 1064.4 -61.7273 1092.74C-46.433 1244.51 -2.03606 1409.56 -64.5566 1463.3" stroke="#D4E6F3" stroke-miterlimit="10"/>
<path d="M-291.822 140.195C-73.3978 319.75 6.39588 446.518 25.2457 540.104C37.5625 601.174 21.1085 642.059 4.44966 686.575C-5.90965 714.287 -17.4681 740.833 -29.5298 769.056C-64.0315 849.756 -82.9328 906.426 -80.2627 1019.48C-79.3826 1046.75 -77.3368 1073.92 -74.1334 1100.89C-57.1054 1253.32 -3.14611 1416.85 -61.6964 1473.69" stroke="#D4E6F3" stroke-miterlimit="10"/>
<path d="M-305.012 149.069C-90.6011 325.947 -8.85486 452.942 12.7785 547.549C26.8306 608.903 13.078 651.575 -2.0846 696.128C-11.7629 724.532 -23.0719 751.14 -35.2612 778.865C-70.0954 858.216 -94.3789 914.395 -92.816 1027.76C-92.2282 1054.99 -90.1769 1082.11 -86.6749 1108.96C-67.6649 1262.13 -4.21301 1424 -58.7828 1484.1" stroke="#D4E6F3" stroke-miterlimit="10"/>
<path d="M-318.198 157.944C-107.78 332.121 -24.2373 459.358 0.306171 555.156C16.0574 616.746 5.08248 661.232 -8.59273 705.636C-17.5707 734.733 -28.6883 761.398 -40.9871 788.65C-76.1512 866.605 -105.8 922.342 -105.37 1036.13C-105.05 1063.32 -102.973 1090.4 -99.1593 1117.12C-78.3548 1270.91 -5.29914 1431.22 -56.019 1494.48" stroke="#D4E6F3" stroke-miterlimit="10"/>
<path d="M-331.388 166.842C-125.06 338.314 -39.5546 465.592 -12.1838 562.67C5.29877 624.615 -2.87386 670.823 -15.1238 715.144C-23.3679 745.03 -34.2902 771.682 -46.7179 798.46C-82.1744 875.044 -117.244 930.288 -117.945 1044.46C-117.879 1071.61 -115.777 1098.65 -111.664 1125.24C-88.9707 1279.7 -6.36942 1438.45 -53.1812 1504.87" stroke="#D4E6F3" stroke-miterlimit="10"/>
<path d="M-344.577 175.716C-142.158 344.4 -54.9174 471.962 -24.7322 570.203C-5.55434 632.453 -10.8858 680.386 -21.7714 724.668C-29.3306 755.175 -40.0293 782.004 -52.5639 808.262C-88.3904 883.471 -128.805 938.25 -130.577 1052.78C-130.766 1079.89 -128.638 1106.89 -124.226 1133.36C-99.6242 1288.48 -7.58085 1445.78 -50.4197 1515.25" stroke="#D4E6F3" stroke-miterlimit="10"/>
<path d="M-357.768 184.591C-159.368 350.69 -70.2841 478.355 -37.1461 577.72C-16.2563 640.324 -18.7065 689.961 -28.1889 734.204C-34.8925 765.414 -45.5343 792.269 -58.2186 818.075C-94.375 891.889 -140.153 946.201 -143.095 1061.11C-143.549 1088.17 -141.394 1115.14 -136.674 1141.48C-110.104 1297.26 -8.52965 1452.89 -47.5057 1525.64" stroke="#D4E6F3" stroke-miterlimit="10"/>
<path d="M-370.937 193.49C-176.549 356.888 -85.7437 484.744 -49.6101 585.166C-27.0458 648.097 -26.5748 699.416 -34.7121 743.619C-40.5796 775.53 -51.1283 802.46 -63.882 827.772C-100.39 900.235 -151.552 954.08 -155.604 1069.35C-156.302 1096.37 -154.121 1123.32 -149.114 1149.54C-120.415 1305.85 -9.61147 1460.03 -44.6432 1535.98" stroke="#D4E6F3" stroke-miterlimit="10"/>
<path d="M-384.124 202.341C-75.1262 463.14 -23.4644 638.072 -41.249 753.242C-60.6605 878.965 -161.168 921.692 -168.183 1077.77C-176.392 1260.85 -5.41521 1453.93 -41.8073 1546.41" stroke="#D4E6F3" stroke-miterlimit="10"/>
</svg>
