<svg width="446" height="1815" viewBox="0 0 446 1815" fill="none" xmlns="http://www.w3.org/2000/svg">
<path d="M-427.865 109.913C-305.208 330.692 -182.377 437.709 -88.3878 494.535C-10.0302 541.903 16.5003 535.16 79.047 589.826C214.773 708.457 344.926 963.163 281.594 1113.33C250.396 1187.31 188.535 1175.47 87.5005 1229.06C-3.38672 1277.27 -121.288 1377.16 -223.553 1608.07" stroke="#D4E6F3" stroke-miterlimit="10"/>
<path d="M-404.301 105.424C-293.233 321.91 -176.354 428.855 -87.4048 486.707C-12.5444 535.379 13.2324 535.174 75.7947 594.058C207.037 717.583 330.735 956.474 273.534 1105.54C244.074 1182.33 184.982 1178.77 85.3819 1237.59C-2.30409 1289.38 -117.62 1390.25 -219.318 1617.44" stroke="#D4E6F3" stroke-miterlimit="10"/>
<path d="M-380.742 100.936C-281.26 313.124 -170.288 420.09 -86.4197 478.891C-14.971 528.983 9.94369 535.077 72.5445 598.303C199.353 726.378 316.792 950.156 265.481 1097.77C237.758 1177.51 181.462 1181.96 83.2696 1246.14C-1.21942 1301.37 -113.939 1403.36 -215.062 1626.83" stroke="#D4E6F3" stroke-miterlimit="10"/>
<path d="M-357.178 96.4474C-269.281 304.336 -164.172 411.444 -85.4132 471.071C-17.3169 522.656 6.65345 534.851 69.2965 602.566C191.741 734.869 303.113 944.182 257.428 1090C231.476 1172.86 177.967 1185.04 81.1586 1254.7C-0.145835 1313.21 -110.254 1416.48 -210.816 1636.21" stroke="#D4E6F3" stroke-miterlimit="10"/>
<path d="M-333.617 91.9611C-257.309 295.574 -158.026 402.944 -84.443 463.261C-19.5878 516.429 3.37679 534.549 66.0424 606.788C184.198 743.026 289.694 938.476 249.367 1082.2C225.208 1168.32 174.463 1187.96 79.0391 1263.23C0.89872 1324.88 -106.58 1429.57 -206.561 1645.56" stroke="#D4E6F3" stroke-miterlimit="10"/>
<path d="M-310.055 87.4732C-245.337 286.771 -151.843 394.599 -83.4554 455.446C-21.7736 510.326 0.114216 534.083 62.7914 611.034C176.758 750.943 276.546 933.062 241.315 1074.42C219.004 1163.93 170.95 1190.72 76.9251 1271.78C1.91494 1336.42 -102.898 1442.68 -202.331 1654.94" stroke="#D4E6F3" stroke-miterlimit="10"/>
<path d="M-286.493 82.985C-233.377 277.988 -145.651 386.448 -82.4676 447.63C-23.8831 504.357 -3.11137 533.532 59.543 615.275C169.42 758.633 263.665 927.885 233.259 1066.64C212.874 1159.67 167.419 1193.4 74.8145 1280.33C2.89044 1347.84 -99.2117 1455.8 -198.083 1664.31" stroke="#D4E6F3" stroke-miterlimit="10"/>
<path d="M-262.929 78.5132C-221.389 269.216 -139.454 378.527 -81.4805 439.831C-25.9312 498.57 -6.28716 532.917 56.2939 619.532C162.19 766.134 251.042 922.937 225.203 1058.88C206.833 1155.54 163.845 1195.93 72.7 1288.89C3.81662 1359.13 -95.5275 1468.88 -193.841 1673.69" stroke="#D4E6F3" stroke-miterlimit="10"/>
<path d="M-239.371 74.0084C-209.418 260.412 -133.285 370.808 -80.4941 431.998C-27.9279 492.947 -9.39824 532.143 53.0385 623.762C155.074 773.449 238.672 918.137 217.147 1051.08C200.897 1151.49 160.205 1198.29 70.5816 1297.42C4.69251 1370.3 -91.8591 1481.99 -189.591 1683.09" stroke="#D4E6F3" stroke-miterlimit="10"/>
<path d="M-215.822 69.5227C-197.453 251.632 -127.173 363.354 -79.5188 424.185C-29.9146 487.508 -12.4858 531.327 49.7776 628.005C148.056 780.613 226.525 913.477 209.079 1043.3C195.073 1147.53 156.489 1200.54 68.4554 1305.97C5.49688 1381.37 -88.1883 1495.1 -185.363 1692.44" stroke="#D4E6F3" stroke-miterlimit="10"/>
<path d="M-192.244 65.0335C-185.46 242.867 -121.112 356.154 -78.5178 416.373C-31.8807 482.303 -15.4585 530.436 46.5392 632.25C141.182 787.673 214.637 908.933 201.039 1035.52C189.422 1143.66 152.714 1202.67 66.3539 1314.52C6.26452 1392.34 -84.4936 1508.21 -181.098 1701.82" stroke="#D4E6F3" stroke-miterlimit="10"/>
<path d="M-168.684 60.5458C-173.494 234.06 -115.174 349.205 -77.5314 408.558C-33.9149 477.324 -18.3603 529.497 43.2894 636.492C134.407 794.644 202.945 904.474 192.982 1027.74C183.923 1139.84 148.832 1204.67 64.242 1323.06C6.95492 1403.24 -80.8159 1521.31 -176.858 1711.19" stroke="#D4E6F3" stroke-miterlimit="10"/>
<path d="M-145.123 56.057C-161.522 225.273 -109.382 342.481 -76.5449 400.742C-36.0604 472.572 -21.1928 528.467 40.0372 640.737C127.739 801.546 191.451 900.062 184.923 1019.96C178.601 1136.07 144.846 1206.57 62.1236 1331.61C7.57621 1414.06 -77.1381 1534.42 -172.616 1720.57" stroke="#D4E6F3" stroke-miterlimit="10"/>
<path d="M-121.56 51.5691C-149.544 216.491 -103.753 335.958 -75.5559 392.927C-38.3777 468.041 -23.927 527.409 36.785 644.97C121.177 808.388 180.126 895.669 176.87 1012.17C173.495 1132.34 140.749 1208.37 60.0092 1340.15C8.13462 1424.83 -73.4643 1547.52 -168.36 1729.94" stroke="#D4E6F3" stroke-miterlimit="10"/>
<path d="M-98.0026 47.0812C-137.576 207.706 -98.3253 329.583 -74.5765 385.094C-40.9604 463.679 -26.5833 526.297 33.531 649.207C114.716 815.202 168.992 891.26 168.809 1004.38C168.607 1128.6 136.529 1210.08 57.8792 1348.69C8.6059 1435.54 -69.7925 1560.62 -164.142 1739.31" stroke="#D4E6F3" stroke-miterlimit="10"/>
<path d="M-74.4354 42.5924C-125.594 198.94 -93.1033 323.296 -73.5832 377.296C-43.87 459.49 -29.1342 525.186 30.2849 653.466C108.371 822.006 158.007 886.848 160.762 996.62C163.975 1124.88 132.209 1211.73 55.784 1357.25C9.04386 1446.25 -66.0948 1573.74 -159.878 1748.7" stroke="#D4E6F3" stroke-miterlimit="10"/>
<path d="M-50.8715 38.126C-113.621 190.154 -76.2241 315.146 -72.5902 369.501C-66.6498 458.408 -31.5944 524.06 27.0393 657.733C102.096 828.827 147.152 882.364 152.704 988.84C159.611 1121.09 127.73 1213.31 53.6676 1365.8C9.40711 1456.92 -62.4151 1586.84 -155.622 1758.07" stroke="#D4E6F3" stroke-miterlimit="10"/>
<path d="M-27.3142 33.6181C-101.649 181.352 -73.3684 309.855 -71.6071 361.666C-68.5181 452.475 -33.9735 522.874 23.7862 661.954C95.9306 835.643 136.422 877.775 144.649 981.061C155.517 1117.24 123.141 1214.84 51.5472 1374.35C9.70092 1467.59 -58.7425 1599.95 -151.396 1767.45" stroke="#D4E6F3" stroke-miterlimit="10"/>
<path d="M-3.753 29.1294C-89.6798 172.566 -71.0146 304.054 -70.6233 353.85C-69.8895 446.803 -36.2591 521.697 20.5477 666.196C89.8299 842.475 125.779 873.081 136.609 973.276C151.74 1113.28 118.434 1216.34 49.4521 1382.89C9.96126 1478.25 -55.047 1613.05 -147.132 1776.82" stroke="#D4E6F3" stroke-miterlimit="10"/>
<path d="M19.8089 24.6415C-77.704 163.78 -74.3592 297.239 -69.6346 346.039C-60.3054 442.156 -38.454 520.529 17.2936 670.443C83.8065 849.348 115.209 868.251 128.548 965.501C148.244 1109.19 113.565 1217.81 47.3238 1391.45C10.133 1488.93 -51.3727 1626.17 -142.902 1786.2" stroke="#D4E6F3" stroke-miterlimit="10"/>
<path d="M43.3682 20.1536C-65.7308 154.994 -70.0958 290.136 -68.6472 338.219C-65.6668 437.075 -40.5653 519.351 14.0383 674.681C77.8528 856.243 104.706 863.248 120.489 957.716C145.085 1104.92 108.615 1219.27 45.2153 1399.99C10.267 1499.61 -47.6883 1639.26 -138.65 1795.58" stroke="#D4E6F3" stroke-miterlimit="10"/>
<path d="M66.9314 15.6649C-53.756 146.212 -65.9106 282.627 -67.6615 330.403C-71.3768 431.498 -42.5917 518.187 10.7822 678.927C71.9652 863.19 94.2401 858.067 112.429 949.94C142.213 1100.45 103.522 1220.72 43.0971 1408.54C10.3597 1510.32 -44.0177 1652.37 -134.412 1804.96" stroke="#D4E6F3" stroke-miterlimit="10"/>
</svg>
