<svg width="126" height="133" viewBox="0 0 126 133" fill="none" xmlns="http://www.w3.org/2000/svg">
<path d="M39.75 80.165C41.4517 79.1826 43.5483 79.1826 45.25 80.165L63.0654 90.4512C64.7671 91.4336 65.8153 93.249 65.8154 95.2139V115.786C65.8153 117.751 64.7671 119.566 63.0654 120.549L45.25 130.835C43.6546 131.756 41.712 131.814 40.0732 131.008L39.75 130.835L21.9346 120.549C20.2329 119.566 19.1847 117.751 19.1846 115.786V95.2139C19.1847 93.249 20.2329 91.4336 21.9346 90.4512L39.75 80.165Z" stroke="#2681B2"/>
<path d="M20 42.1547C21.2376 41.4402 22.7624 41.4402 24 42.1547L34.7224 48.3453C35.96 49.0598 36.7224 50.3803 36.7224 51.8094V64.1906C36.7224 65.6197 35.96 66.9402 34.7224 67.6547L24 73.8453C22.7624 74.5598 21.2376 74.5598 20 73.8453L9.27757 67.6547C8.03996 66.9402 7.27757 65.6197 7.27757 64.1906V51.8094C7.27757 50.3803 8.03996 49.0598 9.27757 48.3453L20 42.1547Z" fill="#2D9BD6"/>
<path d="M83.625 3.3916C85.5828 2.26136 87.9665 2.19084 89.9775 3.17969L90.375 3.3916L121.346 21.2734C123.434 22.4792 124.721 24.7076 124.721 27.1191V62.8809C124.721 65.2924 123.434 67.5208 121.346 68.7266L90.375 86.6084C88.2866 87.8141 85.7134 87.8141 83.625 86.6084L52.6543 68.7266C50.5658 67.5208 49.2793 65.2924 49.2793 62.8809V27.1191C49.2793 24.7076 50.5658 22.4792 52.6543 21.2734L83.625 3.3916Z" stroke="#2681B2" stroke-width="2.5"/>
</svg>
