<svg width="485" height="1815" viewBox="0 0 485 1815" fill="none" xmlns="http://www.w3.org/2000/svg">
<path d="M872.908 1704.66C750.251 1483.88 627.42 1376.86 533.431 1320.04C455.073 1272.67 428.543 1279.41 365.996 1224.75C230.27 1106.11 100.117 851.409 163.449 701.237C194.647 627.262 256.508 639.107 357.543 585.516C448.43 537.306 566.331 437.414 668.596 206.503" stroke="#D4E6F3" stroke-miterlimit="10"/>
<path d="M849.344 1709.15C738.276 1492.66 621.397 1385.72 532.448 1327.87C457.587 1279.19 431.811 1279.4 369.248 1220.51C238.006 1096.99 114.308 858.098 171.509 709.031C200.969 632.247 260.061 635.803 359.661 576.982C447.347 525.196 562.663 424.321 664.361 197.137" stroke="#D4E6F3" stroke-miterlimit="10"/>
<path d="M825.785 1713.64C726.303 1501.45 615.331 1394.48 531.463 1335.68C460.014 1285.59 435.099 1279.5 372.498 1216.27C245.69 1088.19 128.251 864.416 179.562 716.803C207.285 637.06 263.581 632.608 361.773 568.431C446.262 513.202 558.982 411.212 660.105 187.744" stroke="#D4E6F3" stroke-miterlimit="10"/>
<path d="M802.221 1718.12C714.324 1510.24 609.215 1403.13 530.456 1343.5C462.36 1291.92 438.39 1279.72 375.746 1212.01C253.302 1079.7 141.93 870.39 187.615 724.567C213.567 641.715 267.076 629.529 363.884 559.867C445.189 501.365 555.297 398.09 655.859 178.366" stroke="#D4E6F3" stroke-miterlimit="10"/>
<path d="M778.66 1722.61C702.352 1519 603.069 1411.63 529.486 1351.31C464.631 1298.14 441.666 1280.02 379.001 1207.78C260.845 1071.55 155.348 876.096 195.676 732.367C219.835 646.255 270.58 626.616 366.004 551.339C444.144 489.694 551.623 385 651.604 169.015" stroke="#D4E6F3" stroke-miterlimit="10"/>
<path d="M755.098 1727.1C690.38 1527.8 596.886 1419.97 528.498 1359.13C466.817 1304.25 444.929 1280.49 382.252 1203.54C268.285 1063.63 168.497 881.51 203.728 740.148C226.039 650.642 274.093 623.849 368.118 542.791C443.128 478.147 547.941 371.895 647.374 159.634" stroke="#D4E6F3" stroke-miterlimit="10"/>
<path d="M731.536 1731.59C678.42 1536.58 590.694 1428.12 527.511 1366.94C468.926 1310.21 448.154 1281.04 385.5 1199.3C275.623 1055.94 181.378 886.687 211.784 747.929C232.169 654.906 277.624 621.172 370.228 534.245C442.153 466.73 544.255 358.774 643.126 150.261" stroke="#D4E6F3" stroke-miterlimit="10"/>
<path d="M707.972 1736.06C666.432 1545.36 584.497 1436.05 526.523 1374.74C470.974 1316 451.33 1281.65 388.749 1195.04C282.853 1048.44 194.001 891.635 219.84 755.693C238.21 659.035 281.198 618.643 372.343 525.681C441.226 455.446 540.57 345.688 638.884 140.883" stroke="#D4E6F3" stroke-miterlimit="10"/>
<path d="M684.414 1740.56C654.461 1554.16 578.327 1443.76 525.537 1382.57C472.971 1321.62 454.441 1282.43 392.004 1190.81C289.969 1041.12 206.371 896.434 227.896 763.491C244.146 663.082 284.838 616.28 374.461 517.15C440.35 444.27 536.902 332.58 634.634 131.484" stroke="#D4E6F3" stroke-miterlimit="10"/>
<path d="M660.865 1745.05C642.496 1562.94 572.216 1451.22 524.562 1390.39C474.958 1327.06 457.529 1283.24 395.265 1186.57C296.987 1033.96 218.518 901.095 235.964 771.27C249.97 667.042 288.554 614.028 376.588 508.601C439.546 433.2 533.231 319.47 630.406 122.129" stroke="#D4E6F3" stroke-miterlimit="10"/>
<path d="M637.287 1749.54C630.503 1571.71 566.155 1458.42 523.561 1398.2C476.924 1332.27 460.502 1284.14 398.504 1182.32C303.861 1026.9 230.406 905.639 244.004 779.052C255.621 670.917 292.329 611.906 378.689 500.054C438.778 422.23 529.537 306.365 626.141 112.753" stroke="#D4E6F3" stroke-miterlimit="10"/>
<path d="M613.727 1754.03C618.537 1580.51 560.217 1465.37 522.574 1406.01C478.958 1337.25 463.403 1285.07 401.754 1178.08C310.636 1019.93 242.098 910.097 252.061 786.832C261.12 674.727 296.211 609.897 380.801 491.507C438.088 411.335 525.859 293.26 621.901 103.379" stroke="#D4E6F3" stroke-miterlimit="10"/>
<path d="M590.166 1758.51C606.565 1589.3 554.425 1472.09 521.588 1413.83C481.103 1342 466.236 1286.1 405.006 1173.83C317.304 1013.03 253.592 914.51 260.12 794.608C266.442 678.505 300.197 607.997 382.919 482.96C437.467 400.511 522.181 280.155 617.659 94.0008" stroke="#D4E6F3" stroke-miterlimit="10"/>
<path d="M566.603 1763C594.587 1598.08 548.796 1478.61 520.599 1421.64C483.421 1346.53 468.97 1287.16 408.258 1169.6C323.866 1006.18 264.917 918.903 268.173 802.398C271.548 682.233 304.294 606.205 385.034 474.421C436.908 389.739 518.507 267.048 613.403 84.629" stroke="#D4E6F3" stroke-miterlimit="10"/>
<path d="M543.046 1767.49C582.619 1606.87 543.368 1484.99 519.619 1429.48C486.003 1350.89 471.626 1288.28 411.512 1165.36C330.327 999.37 276.051 923.311 276.234 810.187C276.436 685.969 308.514 604.495 387.164 465.88C436.437 379.031 514.835 253.956 609.185 75.2641" stroke="#D4E6F3" stroke-miterlimit="10"/>
<path d="M519.478 1771.98C570.637 1615.63 538.146 1491.28 518.626 1437.28C488.913 1355.08 474.177 1289.39 414.758 1161.11C336.672 992.565 287.036 927.723 284.281 817.952C281.068 689.696 312.834 602.843 389.259 457.318C435.999 368.318 511.138 240.836 604.921 65.8763" stroke="#D4E6F3" stroke-miterlimit="10"/>
<path d="M495.914 1776.45C558.664 1624.42 521.267 1499.43 517.633 1445.07C511.693 1356.16 476.637 1290.51 418.004 1156.84C342.947 985.745 297.891 932.208 292.339 825.732C285.432 693.48 317.313 601.261 391.375 448.771C435.636 357.648 507.458 227.731 600.665 56.5012" stroke="#D4E6F3" stroke-miterlimit="10"/>
<path d="M472.357 1780.95C546.691 1633.22 518.411 1504.72 516.65 1452.91C513.561 1362.1 479.017 1291.7 421.257 1152.62C349.112 978.929 308.621 936.797 300.394 833.511C289.526 697.333 321.902 599.728 393.496 440.22C435.342 346.979 503.786 214.623 596.439 47.1215" stroke="#D4E6F3" stroke-miterlimit="10"/>
<path d="M448.796 1785.44C534.723 1642.01 516.058 1510.52 515.666 1460.72C514.932 1367.77 481.302 1292.87 424.495 1148.38C355.213 972.097 319.264 941.491 308.434 841.296C293.303 701.29 326.608 598.236 395.591 431.678C435.082 336.324 500.09 201.518 592.174 37.7487" stroke="#D4E6F3" stroke-miterlimit="10"/>
<path d="M425.234 1789.93C522.747 1650.79 519.402 1517.33 514.678 1468.53C505.348 1372.42 483.497 1294.04 427.749 1144.13C361.236 965.224 329.834 946.321 316.495 849.072C296.799 705.383 331.478 596.762 397.719 423.119C434.91 325.64 496.416 188.403 587.945 28.3679" stroke="#D4E6F3" stroke-miterlimit="10"/>
<path d="M401.675 1794.42C510.774 1659.58 515.139 1524.44 513.69 1476.35C510.71 1377.5 485.608 1295.22 431.005 1139.89C367.19 958.329 340.337 951.325 324.554 856.856C299.958 709.653 336.428 595.306 399.828 414.582C434.776 314.962 492.731 175.308 583.693 18.9961" stroke="#D4E6F3" stroke-miterlimit="10"/>
<path d="M378.112 1798.91C498.799 1668.36 510.954 1531.94 512.704 1484.17C516.42 1383.07 487.635 1296.38 434.261 1135.64C373.078 951.382 350.803 956.505 332.614 864.632C302.83 714.125 341.521 593.851 401.946 406.03C434.683 304.256 489.061 162.201 579.455 9.61629" stroke="#D4E6F3" stroke-miterlimit="10"/>
</svg>
