<svg width="162" height="755" viewBox="0 0 162 755" fill="none" xmlns="http://www.w3.org/2000/svg">
<path d="M287.974 690.012C232.929 561.561 170.172 516.796 122.199 500.039C68.6597 481.338 9.54505 489.146 6.28728 470.113C4.2004 457.927 26.5191 443.459 75.3408 416.637C223.386 335.301 262.268 334.211 273.11 298.452C288.309 248.358 222.483 215.885 225.557 138.455C227.816 81.585 265.809 36.3318 299.37 5.99964" stroke="#D4E6F3" stroke-miterlimit="10"/>
<path d="M282.106 692.943C228.229 568.101 167.306 520.88 122.393 502.939C72.2015 482.891 16.1325 490.67 13.8869 471.856C12.4419 459.761 34.3784 445.566 81.5271 419.657C224.791 340.919 264.169 339.217 274.508 303.723C288.997 253.322 218.334 222.101 219.021 143.799C219.036 142.092 219.071 140.412 219.149 138.731C221.758 83.2189 259.782 37.3099 293.155 6.30968" stroke="#D4E6F3" stroke-miterlimit="10"/>
<path d="M276.237 695.866C223.531 574.642 164.548 525.003 122.588 505.833C75.8175 484.466 22.7246 492.181 21.4876 473.592C20.6863 461.584 42.2424 447.66 87.7163 422.672C226.191 346.549 266.192 344.251 275.903 308.982C289.853 258.322 214.147 228.289 212.481 149.13C212.444 147.393 212.407 145.662 212.452 143.933C213.936 87.4794 252.776 39.1591 286.937 6.61034" stroke="#D4E6F3" stroke-miterlimit="10"/>
<path d="M270.37 698.795C218.821 581.172 161.919 529.195 122.785 508.731C79.5124 486.104 29.3248 493.689 29.0925 475.334C28.9405 463.409 50.107 449.772 93.9062 425.691C227.607 352.175 268.147 349.266 277.301 314.245C290.617 263.301 209.933 234.471 205.944 154.466C205.854 152.69 205.771 150.917 205.755 149.15C205.272 91.7401 245.77 41.0227 280.717 6.92538" stroke="#D4E6F3" stroke-miterlimit="10"/>
<path d="M264.499 701.723C214.123 587.709 159.42 533.473 122.979 511.63C83.2778 487.833 35.9291 495.189 36.6945 477.073C37.1934 465.228 57.9704 451.875 100.095 428.708C229.014 357.8 270.095 354.278 278.694 319.507C291.369 268.263 205.686 240.644 199.396 159.801C199.259 157.986 199.121 156.17 199.051 154.349C197.046 95.9958 238.758 42.8719 274.498 7.22035" stroke="#D4E6F3" stroke-miterlimit="10"/>
<path d="M258.628 704.652C209.423 594.244 157.065 537.864 123.175 514.524C87.11 489.688 42.5377 496.689 44.2938 478.809C45.4507 467.04 65.831 453.977 106.283 431.723C230.42 363.419 272.034 359.282 280.088 324.765C292.113 273.224 201.411 246.81 192.86 165.132C192.665 163.276 192.467 161.42 192.355 159.551C188.844 100.258 231.754 44.7155 268.283 7.52117" stroke="#D4E6F3" stroke-miterlimit="10"/>
<path d="M252.76 707.578C204.72 600.781 154.853 542.403 123.371 517.425C90.98 491.727 49.1584 498.179 51.8978 480.552C53.7146 468.856 73.7017 456.084 112.472 434.745C231.827 369.047 273.971 364.29 281.484 330.031C292.853 278.182 197.114 252.982 186.322 170.471C186.073 168.569 185.818 166.677 185.66 164.765C180.651 104.535 224.753 46.5763 262.065 7.83335" stroke="#D4E6F3" stroke-miterlimit="10"/>
<path d="M246.892 710.506C200.02 607.318 147.501 552.636 123.567 520.322C90.7297 500.362 55.7881 499.669 59.5003 482.291C61.9841 470.668 81.5604 458.187 118.671 437.762C233.244 374.672 275.911 369.294 282.89 335.293C293.594 283.138 192.801 259.151 179.792 175.808C179.49 173.87 179.18 171.93 178.971 169.97C172.482 108.799 217.752 48.4179 255.857 8.13216" stroke="#D4E6F3" stroke-miterlimit="10"/>
<path d="M241.022 713.435C195.317 613.853 144.258 557.755 123.761 523.22C93.8811 503.08 62.424 501.161 67.102 484.031C70.2563 472.479 89.4182 460.293 124.851 440.781C234.642 380.306 277.824 374.294 284.276 340.553C294.305 288.09 188.445 265.322 173.243 181.143C172.885 179.166 172.519 177.185 172.263 175.176C164.305 113.066 210.736 50.2789 249.629 8.43706" stroke="#D4E6F3" stroke-miterlimit="10"/>
<path d="M235.153 716.363C190.616 620.39 141.02 562.875 123.957 526.119C97.0328 505.798 69.069 502.652 74.704 485.771C78.534 474.292 97.2834 462.396 131.04 443.799C236.056 385.922 279.74 379.292 285.669 345.815C295.018 293.038 184.079 271.498 166.701 186.478C166.29 184.462 165.87 182.438 165.563 180.383C156.146 117.333 203.728 52.1319 243.41 8.74149" stroke="#D4E6F3" stroke-miterlimit="10"/>
<path d="M229.286 719.29C185.916 626.924 137.782 567.994 124.156 529.017C100.189 508.516 75.7255 504.146 82.3087 487.512C86.8215 476.107 105.151 464.5 137.226 446.816C237.454 391.547 281.649 384.288 287.063 351.078C295.718 297.986 179.692 277.677 160.16 191.813C159.691 189.756 159.221 187.692 158.863 185.591C147.997 121.596 196.72 53.9854 237.19 9.04641" stroke="#D4E6F3" stroke-miterlimit="10"/>
<path d="M223.416 722.218C181.217 633.465 134.544 573.109 124.36 531.913C103.35 511.232 82.392 505.642 89.92 489.254C95.1207 477.926 113.022 466.606 143.429 449.837C238.876 397.174 283.565 389.287 288.471 356.338C296.426 302.928 175.309 283.863 153.634 197.149C153.11 195.051 152.586 192.953 152.185 190.798C139.878 125.858 189.732 55.8391 230.99 9.35164" stroke="#D4E6F3" stroke-miterlimit="10"/>
<path d="M217.547 725.147C176.515 640 131.304 578.235 124.548 534.812C106.496 513.951 89.0521 507.148 97.5145 490.991C103.407 479.744 120.88 468.71 149.612 452.854C240.277 402.789 285.456 394.278 289.86 361.602C297.1 307.873 170.882 290.058 147.088 202.484C146.507 200.348 145.933 198.2 145.475 195.999C131.741 130.11 182.707 57.6862 224.762 9.65031" stroke="#D4E6F3" stroke-miterlimit="10"/>
<path d="M211.677 728.069C171.811 646.536 128.064 583.355 124.745 537.709C109.65 516.669 95.7205 508.656 105.116 492.73C111.703 481.566 128.741 470.813 155.798 455.87C241.682 408.419 287.35 399.272 291.254 366.864C297.771 312.812 166.442 296.259 140.546 207.82C139.908 205.644 139.283 203.453 138.774 201.211C123.611 134.372 175.705 59.5448 218.542 9.94885" stroke="#D4E6F3" stroke-miterlimit="10"/>
<path d="M205.807 731.001C167.109 653.073 124.823 588.474 124.938 540.606C112.801 519.387 102.392 510.169 112.721 494.47C120.005 483.394 136.606 472.916 161.991 458.896C243.093 414.051 289.233 404.273 292.651 372.134C298.434 317.761 162.013 302.476 134.008 213.163C133.314 210.948 132.639 208.713 132.078 206.427C115.497 138.63 168.702 61.4058 212.326 10.2708" stroke="#D4E6F3" stroke-miterlimit="10"/>
<path d="M199.94 733.929C162.409 659.61 121.586 593.594 125.136 543.506C115.956 522.104 109.069 511.69 120.321 496.209C128.305 485.226 144.47 475.022 168.179 461.905C244.498 419.668 291.11 409.259 294.046 377.386C299.083 322.692 157.555 308.684 127.476 218.49C126.725 216.236 126 213.959 125.39 211.616C107.386 142.871 161.693 63.2511 206.1 10.5675" stroke="#D4E6F3" stroke-miterlimit="10"/>
<path d="M194.068 736.858C157.707 666.146 118.351 598.715 125.329 546.403C119.101 524.832 115.746 513.217 127.922 497.949C136.605 487.064 152.33 477.126 174.36 464.924C245.896 425.293 292.974 414.252 295.431 382.649C299.71 327.633 153.082 314.909 120.919 223.826C120.109 221.532 119.335 219.212 118.673 216.832C99.2784 147.117 154.685 65.099 199.887 10.8727" stroke="#D4E6F3" stroke-miterlimit="10"/>
<path d="M188.194 739.786C153 672.682 115.1 603.835 125.521 549.302C122.254 527.542 122.417 514.748 135.518 499.692C144.894 488.906 160.187 479.231 180.549 467.945C247.302 430.92 294.842 419.247 296.829 387.912C300.344 332.574 148.619 321.142 114.392 229.161C113.523 226.83 112.701 224.465 111.987 222.041C91.1828 151.356 147.683 66.9579 193.679 11.1774" stroke="#D4E6F3" stroke-miterlimit="10"/>
<path d="M182.326 742.713C148.312 679.22 133.93 610.142 125.723 552.198C122.651 530.516 129.103 516.283 143.128 501.43C153.206 490.748 168.059 481.333 186.746 470.96C248.72 436.543 296.71 424.241 298.232 393.173C300.957 337.516 144.138 327.382 107.847 234.496C106.923 232.128 106.05 229.715 105.285 227.247C83.0832 155.594 140.674 68.8171 187.452 11.4803" stroke="#D4E6F3" stroke-miterlimit="10"/>
<path d="M176.459 745.641C143.6 685.751 113.549 615.485 125.914 555.095C130.376 533.311 135.776 517.824 150.728 503.169C161.506 492.595 175.918 483.438 192.932 473.978C250.124 442.166 298.56 429.237 299.622 398.435C301.553 342.461 139.648 333.631 101.304 239.833C100.321 237.423 99.4053 234.968 98.5842 232.454C75.1239 159.778 133.666 70.6642 181.234 11.7789" stroke="#D4E6F3" stroke-miterlimit="10"/>
<path d="M170.592 748.57C138.9 692.292 107.831 620.085 126.113 557.993C132.599 535.969 142.455 519.37 158.332 504.909C169.812 494.446 183.785 485.542 199.123 476.997C251.535 447.791 300.534 434.237 301.021 403.698C301.918 347.404 135.033 339.952 94.7676 245.168C93.7216 242.724 92.7619 240.222 91.8884 237.662C66.9707 164.03 126.66 72.5178 175.015 12.0897" stroke="#D4E6F3" stroke-miterlimit="10"/>
<path d="M164.723 751.498C134.2 698.829 102.152 624.315 126.31 560.893C162.733 465.283 302.146 459.897 302.415 408.958C302.723 350.889 121.61 345.866 85.1901 242.869C58.8166 168.283 119.653 74.3632 168.798 12.3942" stroke="#D4E6F3" stroke-miterlimit="10"/>
</svg>
