<svg width="145" height="1145" viewBox="0 0 145 1145" fill="none" xmlns="http://www.w3.org/2000/svg">
<path d="M377.2 1038.46C301.544 847.053 221.679 783.048 161.725 760.605C94.8144 735.56 22.7245 751.063 17.5286 722.4C14.2004 704.046 40.694 680.72 98.9512 637.017C275.609 504.487 323.278 500.426 334.344 445.52C349.857 368.603 266.995 323.431 265.903 205.806C265.104 119.415 308.906 48.4277 348.206 0.345277" stroke="#D4E6F3" stroke-miterlimit="10"/>
<path d="M370.178 1043.27C296.182 857.264 218.414 789.421 162.143 764.993C99.2582 737.696 30.906 752.967 26.9666 724.573C24.4324 706.318 50.4737 683.43 106.734 641.215C277.684 512.922 325.925 507.9 336.389 453.429C351.012 376.09 262.289 333.117 258.212 214.317C258.123 211.727 258.061 209.177 258.051 206.622C257.766 122.269 301.566 50.2852 340.593 1.20128" stroke="#D4E6F3" stroke-miterlimit="10"/>
<path d="M363.154 1048.06C290.825 867.475 215.286 795.845 162.563 769.369C103.796 739.861 39.0938 754.851 36.4067 726.734C34.6684 708.573 60.2596 686.118 114.522 645.404C279.756 521.374 328.724 515.41 338.431 461.317C352.375 383.621 257.536 342.76 250.516 222.808C250.362 220.176 250.207 217.553 250.154 214.927C248.428 129.215 293.079 53.5239 332.976 2.04256" stroke="#D4E6F3" stroke-miterlimit="10"/>
<path d="M356.134 1052.87C285.451 877.671 212.32 802.365 162.987 773.753C108.435 742.117 47.2913 756.73 45.8526 728.906C44.9165 710.828 70.0475 688.835 122.311 649.6C281.848 529.819 331.439 522.895 340.478 469.213C353.625 391.124 252.75 352.397 242.824 231.306C242.603 228.618 242.389 225.933 242.259 223.254C238.057 136.214 284.594 56.7844 325.358 2.90573" stroke="#D4E6F3" stroke-miterlimit="10"/>
<path d="M349.113 1057.67C280.097 887.876 209.524 809.008 163.41 778.138C113.169 744.505 55.4968 758.595 55.298 731.073C55.1661 713.076 79.8367 691.537 130.101 653.791C283.931 538.262 334.148 530.375 342.521 477.107C354.863 398.603 247.927 362.022 235.123 239.802C234.84 237.058 234.557 234.311 234.356 231.554C228.228 143.178 276.103 60.0231 317.743 3.7382" stroke="#D4E6F3" stroke-miterlimit="10"/>
<path d="M342.091 1062.48C274.739 898.078 206.911 815.813 163.834 782.513C117.993 747.08 63.7077 760.46 64.7401 733.233C65.421 715.312 89.6228 694.237 137.89 657.979C286.013 546.696 336.846 537.844 344.566 484.994C356.091 406.081 243.067 371.638 227.436 248.292C227.08 245.489 226.72 242.687 226.466 239.858C218.428 150.149 267.622 63.2522 310.134 4.57852" stroke="#D4E6F3" stroke-miterlimit="10"/>
<path d="M335.068 1067.28C269.374 908.284 204.479 822.834 164.255 786.902C122.871 749.934 71.9283 762.309 74.184 735.406C75.6797 717.555 99.417 696.946 145.677 662.18C288.092 555.146 339.538 545.319 346.608 492.895C357.31 413.555 238.177 381.266 219.742 256.794C219.317 253.924 218.885 251.072 218.57 248.182C208.636 157.144 259.141 66.5086 302.519 5.43754" stroke="#D4E6F3" stroke-miterlimit="10"/>
<path d="M328.045 1072.09C264.01 918.489 196.091 838.811 164.675 791.284C123.103 763.046 80.1588 764.16 83.6244 737.574C85.9436 719.792 109.195 699.649 153.476 666.372C290.183 563.589 342.23 552.789 348.662 500.789C358.527 421.026 233.267 390.89 212.057 265.293C211.565 262.373 211.061 259.45 210.682 256.49C198.871 164.118 250.659 69.736 294.912 6.27599" stroke="#D4E6F3" stroke-miterlimit="10"/>
<path d="M321.026 1076.89C258.651 928.692 192.436 846.774 165.1 795.666C127.148 766.971 88.4045 766.011 93.0715 739.741C96.2184 722.025 118.979 702.356 161.257 670.567C292.257 572.047 344.899 560.253 350.699 508.681C359.716 428.491 228.311 400.518 204.356 273.79C203.793 270.814 203.219 267.832 202.777 264.801C189.104 171.095 242.166 72.9923 287.289 7.12342" stroke="#D4E6F3" stroke-miterlimit="10"/>
<path d="M314.002 1081.7C253.287 938.897 188.78 854.741 165.52 800.051C131.186 770.9 96.6541 767.861 102.512 741.908C106.493 724.261 128.766 705.059 169.043 674.762C294.343 580.476 347.562 567.715 352.737 516.575C360.899 435.951 223.335 410.155 196.656 282.287C196.024 279.255 195.382 276.211 194.876 273.113C179.352 178.072 233.675 76.2371 279.669 7.97072" stroke="#D4E6F3" stroke-miterlimit="10"/>
<path d="M306.979 1086.5C247.925 949.098 185.123 862.705 165.944 804.434C135.229 774.826 104.918 769.715 111.956 744.078C116.78 726.501 138.556 707.762 176.825 678.954C296.412 588.921 350.217 575.175 354.777 524.47C362.068 443.413 218.335 419.8 188.957 290.784C188.253 287.693 187.546 284.591 186.974 281.428C169.612 185.043 225.185 79.4823 272.049 8.81856" stroke="#D4E6F3" stroke-miterlimit="10"/>
<path d="M299.955 1091.3C242.565 959.31 181.468 870.663 166.375 808.813C139.28 778.749 113.196 771.57 121.409 746.249C127.083 728.745 148.351 710.469 184.63 683.152C298.509 597.367 352.883 582.637 356.835 532.362C363.246 450.865 213.341 429.452 181.279 299.28C180.504 296.131 179.73 292.981 179.102 289.739C159.909 192.01 216.72 82.7268 264.455 9.66554" stroke="#D4E6F3" stroke-miterlimit="10"/>
<path d="M292.936 1096.11C237.206 969.513 177.814 878.638 166.791 813.199C143.315 782.678 121.47 773.441 130.845 748.413C137.373 730.99 158.133 713.172 192.413 687.344C300.584 605.797 355.521 590.091 358.874 540.259C364.387 458.323 208.297 439.124 173.58 307.777C172.732 304.575 171.893 301.352 171.192 298.042C150.189 198.963 208.213 85.9638 256.829 10.5049" stroke="#D4E6F3" stroke-miterlimit="10"/>
<path d="M285.914 1100.9C231.844 979.718 174.16 886.605 167.217 817.581C147.362 786.606 129.755 775.316 140.289 750.58C147.675 733.24 167.919 715.875 200.201 691.536C302.667 614.249 358.162 597.547 360.919 548.154C365.524 465.773 203.238 448.803 165.886 316.277C164.966 313.015 164.06 309.731 163.295 306.362C140.478 205.93 199.735 89.2167 249.214 11.3433" stroke="#D4E6F3" stroke-miterlimit="10"/>
<path d="M278.89 1105.71C226.48 989.923 170.503 894.567 167.635 821.962C151.4 790.531 138.04 777.197 149.736 752.747C157.983 735.498 177.708 718.578 207.993 695.742C304.751 622.703 360.788 605.014 362.964 556.059C366.648 473.236 198.191 458.505 158.193 324.784C157.202 321.467 156.232 318.12 155.401 314.687C130.782 212.89 191.253 92.472 241.602 12.2156" stroke="#D4E6F3" stroke-miterlimit="10"/>
<path d="M271.87 1110.52C221.12 1000.13 166.849 902.535 168.059 826.348C155.443 794.458 146.334 779.09 159.176 754.915C168.288 737.763 187.494 721.285 215.78 699.923C306.829 631.136 363.405 612.461 365.007 563.94C367.754 480.676 193.106 468.198 150.508 333.27C149.444 329.897 148.41 326.488 147.514 322.973C121.089 219.826 182.764 95.7063 233.975 13.0526" stroke="#D4E6F3" stroke-miterlimit="10"/>
<path d="M264.847 1115.32C215.759 1010.33 163.2 910.5 168.48 830.73C159.478 798.4 154.629 780.991 168.62 757.081C178.597 740.035 197.279 723.987 223.56 704.117C308.901 639.579 366.01 619.917 367.04 571.833C368.836 488.13 188.008 477.915 142.794 341.766C141.655 338.337 140.559 334.867 139.597 331.298C111.403 226.766 174.277 98.9415 226.367 13.8988" stroke="#D4E6F3" stroke-miterlimit="10"/>
<path d="M257.817 1120.13C210.389 1020.54 159.529 918.468 168.896 835.116C163.518 802.315 162.915 782.902 178.054 759.255C188.888 742.315 207.057 726.695 231.348 708.316C310.979 648.027 368.615 627.378 369.085 579.732C369.923 495.584 182.918 487.645 135.114 350.263C133.9 346.781 132.742 343.246 131.713 339.613C101.728 233.698 165.795 102.196 218.763 14.7466" stroke="#D4E6F3" stroke-miterlimit="10"/>
<path d="M250.796 1124.93C205.044 1030.74 183.044 926.866 169.326 839.495C164.192 806.801 171.219 784.814 187.506 761.419C199.208 744.593 216.853 729.395 239.145 712.505C313.073 656.467 371.222 634.836 371.137 587.623C370.985 503.042 177.808 497.387 127.413 358.76C126.129 355.225 124.906 351.62 123.811 347.925C92.0495 240.627 157.305 105.449 211.136 15.5913" stroke="#D4E6F3" stroke-miterlimit="10"/>
<path d="M243.775 1129.74C199.667 1040.94 158.355 936.233 169.742 843.877C173.851 810.561 179.507 786.738 196.944 763.586C209.514 746.88 226.632 732.1 246.928 716.699C315.149 664.907 373.805 642.299 373.174 595.517C372.027 510.505 172.686 507.142 119.713 367.259C118.354 363.665 117.076 359.998 115.91 356.236C82.5383 247.465 148.816 108.684 203.518 16.4293" stroke="#D4E6F3" stroke-miterlimit="10"/>
<path d="M236.756 1134.54C194.308 1051.15 151.623 943.564 170.167 848.26C176.747 814.455 187.805 788.67 206.389 765.755C219.827 749.175 236.424 734.805 254.718 720.895C317.234 673.352 376.543 649.76 375.222 603.412C372.785 517.979 167.417 517.016 112.023 375.756C110.585 372.114 109.249 368.379 108.016 364.551C72.7948 254.42 140.33 111.931 195.902 17.2866" stroke="#D4E6F3" stroke-miterlimit="10"/>
<path d="M229.736 1139.35C188.95 1061.36 144.919 950.331 170.594 852.645C209.305 705.383 380.137 688.577 377.267 611.303C373.995 523.215 151.31 526.816 100.121 372.862C63.053 261.375 131.845 115.163 188.291 18.1332" stroke="#D4E6F3" stroke-miterlimit="10"/>
</svg>
