<svg width="157" height="625" viewBox="0 0 157 625" fill="none" xmlns="http://www.w3.org/2000/svg">
<path d="M284.814 570.12C230.902 464.381 168.982 427.665 121.571 413.996C68.6567 398.742 10.1052 405.362 6.96595 389.68C4.95493 379.638 27.1128 367.64 75.5608 345.375C222.473 277.856 260.966 276.838 271.859 247.321C287.13 205.971 222.116 179.4 225.506 115.548C227.998 68.6515 265.809 31.2226 299.167 6.11003" stroke="#D4E6F3" stroke-miterlimit="10"/>
<path d="M278.944 572.533C226.2 469.774 166.137 431.031 121.782 416.378C72.2146 400.003 16.707 406.589 14.5697 391.086C13.1944 381.118 34.9614 369.347 81.725 347.842C223.819 282.485 262.785 280.96 273.174 251.666C287.736 210.069 217.964 184.546 218.995 119.988C219.017 118.581 219.06 117.195 219.145 115.809C221.976 70.0348 259.801 32.0681 292.958 6.4073" stroke="#D4E6F3" stroke-miterlimit="10"/>
<path d="M273.073 574.94C221.502 475.167 163.402 434.428 121.998 418.753C75.8469 401.283 23.3139 407.807 22.1741 392.486C21.4358 382.59 42.8129 371.044 87.8897 350.304C225.155 287.124 264.718 285.106 274.48 256.001C288.5 214.195 213.777 189.669 212.485 124.417C212.456 122.986 212.427 121.559 212.479 120.133C214.2 73.5892 252.822 33.6352 286.746 6.69732" stroke="#D4E6F3" stroke-miterlimit="10"/>
<path d="M267.207 577.351C216.794 480.551 160.798 437.881 122.218 421.133C79.5581 402.615 29.9295 409.022 29.7823 393.892C29.6855 384.062 50.663 372.755 94.0528 352.771C226.504 291.758 266.578 289.235 275.781 260.338C289.167 218.303 209.566 194.787 205.983 128.85C205.903 127.386 205.828 125.924 205.82 124.468C205.6 77.1456 245.848 35.2135 280.534 6.99879" stroke="#D4E6F3" stroke-miterlimit="10"/>
<path d="M261.419 579.784C212.166 485.959 158.371 441.421 122.47 423.529C83.3577 404.035 36.5513 410.245 37.3886 395.31C37.9345 385.544 58.5189 374.474 100.236 355.248C227.906 296.402 268.503 293.372 277.154 264.684C289.905 222.405 205.387 199.903 199.536 133.285C199.408 131.79 199.28 130.293 199.219 128.792C197.5 80.6989 238.944 36.781 274.409 7.28385" stroke="#D4E6F3" stroke-miterlimit="10"/>
<path d="M255.635 582.217C207.54 491.364 156.088 445.054 122.726 425.92C87.224 405.56 43.1775 411.469 44.9918 396.725C46.187 387.021 66.3711 376.19 106.417 357.723C229.308 301.041 270.421 297.503 278.529 269.027C290.635 226.507 201.185 205.015 193.107 137.718C192.923 136.189 192.735 134.659 192.633 133.119C189.431 84.257 232.054 38.3438 268.293 7.57368" stroke="#D4E6F3" stroke-miterlimit="10"/>
<path d="M249.861 584.648C202.917 496.771 153.953 448.808 122.987 428.318C91.1285 407.237 49.8159 412.683 52.599 398.146C54.4449 388.501 74.2321 377.912 112.599 360.204C230.713 305.687 272.337 301.636 279.906 273.376C291.362 230.606 196.966 210.13 186.683 142.156C186.446 140.589 186.203 139.031 186.055 137.455C181.381 87.8274 225.175 39.9205 262.181 7.87262" stroke="#D4E6F3" stroke-miterlimit="10"/>
<path d="M244.093 587.081C198.303 502.178 146.724 457.272 123.252 430.712C90.9388 414.362 56.463 413.899 60.2039 399.565C62.7068 389.977 82.0798 379.63 118.791 362.681C232.129 310.33 274.255 305.766 281.294 277.721C292.09 234.703 192.738 215.243 180.275 146.592C179.986 144.996 179.688 143.398 179.491 141.783C173.362 91.3868 218.303 41.4813 256.084 8.16063" stroke="#D4E6F3" stroke-miterlimit="10"/>
<path d="M238.328 589.514C193.692 507.583 143.581 461.506 123.518 433.107C94.1356 416.6 63.1161 415.116 67.8069 400.983C70.9699 391.453 89.9251 381.35 124.962 365.16C233.526 314.981 276.147 309.893 282.661 282.065C292.789 238.796 188.474 220.357 173.856 151.027C173.513 149.399 173.16 147.767 172.916 146.112C165.346 94.9478 211.424 43.0577 249.974 8.45335" stroke="#D4E6F3" stroke-miterlimit="10"/>
<path d="M232.573 591.947C189.09 512.989 140.449 465.742 123.79 435.502C97.3346 418.838 69.7777 416.332 75.4091 402.402C79.2366 392.93 97.776 383.069 131.141 367.638C234.941 319.616 278.042 314.017 284.037 286.41C293.491 242.885 184.206 225.475 167.453 155.461C167.056 153.801 166.652 152.134 166.359 150.441C157.356 98.5083 204.561 44.6274 243.88 8.74557" stroke="#D4E6F3" stroke-miterlimit="10"/>
<path d="M226.826 594.378C184.496 518.392 137.323 469.977 124.069 437.897C100.54 421.076 76.4499 417.55 83.0122 403.822C87.5107 394.408 105.627 384.787 137.317 370.115C236.342 324.258 279.929 318.14 285.414 290.754C294.181 246.975 179.925 230.596 161.059 159.895C160.607 158.201 160.153 156.501 159.809 154.771C149.387 102.066 197.707 46.197 237.792 9.0379" stroke="#D4E6F3" stroke-miterlimit="10"/>
<path d="M221.084 596.812C179.911 523.802 134.203 474.208 124.356 440.29C103.752 423.312 83.1309 418.771 90.6198 405.242C95.7937 395.891 113.479 386.507 143.507 372.595C237.766 328.902 281.825 322.265 286.805 295.098C294.88 251.059 175.654 235.721 154.69 164.328C154.183 162.601 153.676 160.874 153.291 159.099C141.457 105.622 190.881 47.7667 231.733 9.33026" stroke="#D4E6F3" stroke-miterlimit="10"/>
<path d="M215.351 599.245C175.329 529.206 131.088 478.448 124.631 442.686C106.949 425.55 89.8032 419.998 98.2078 406.658C104.06 397.372 121.314 388.225 149.676 375.071C239.171 333.535 283.695 326.383 288.177 299.443C295.546 255.145 171.346 240.853 148.309 168.761C147.746 167.003 147.191 165.234 146.749 163.422C133.521 109.168 184.028 49.3302 225.652 9.61664" stroke="#D4E6F3" stroke-miterlimit="10"/>
<path d="M209.623 601.673C170.752 534.611 127.979 482.683 124.917 445.079C110.155 427.788 96.4808 421.228 105.798 408.076C112.331 398.856 129.148 389.943 155.844 377.546C240.582 338.181 285.568 330.502 289.555 303.786C296.21 259.226 167.032 245.99 141.941 173.194C141.323 171.402 140.717 169.598 140.227 167.753C125.602 112.722 177.206 50.9025 219.587 9.90223" stroke="#D4E6F3" stroke-miterlimit="10"/>
<path d="M203.902 604.109C166.182 540.016 124.873 486.916 125.2 447.473C113.355 430.025 103.156 422.462 113.388 409.494C120.602 400.345 136.98 391.66 162.014 380.03C241.997 342.828 287.43 334.628 290.935 308.135C296.867 263.314 162.735 251.139 135.584 177.631C134.911 175.808 134.257 173.969 133.716 172.086C117.707 116.273 170.391 52.476 213.534 10.2063" stroke="#D4E6F3" stroke-miterlimit="10"/>
<path d="M198.19 606.542C161.619 545.42 121.772 491.15 125.486 449.867C116.555 432.261 109.831 423.701 120.964 410.911C128.863 401.837 144.803 393.379 168.175 382.498C243.405 347.461 289.286 338.74 292.314 312.468C297.511 267.386 158.411 256.279 129.238 182.055C128.51 180.199 127.806 178.325 127.217 176.397C109.821 119.808 163.576 54.0351 207.475 10.488" stroke="#D4E6F3" stroke-miterlimit="10"/>
<path d="M192.36 608.976C156.9 550.82 118.478 495.377 125.578 452.251C119.546 434.495 116.297 424.934 128.346 412.316C136.938 403.32 152.454 395.082 174.183 384.96C244.745 352.083 291.115 342.84 293.673 316.791C298.129 271.445 153.918 261.411 122.679 186.457C121.892 184.569 121.141 182.66 120.5 180.701C101.729 123.314 156.611 55.5602 201.327 10.7378" stroke="#D4E6F3" stroke-miterlimit="10"/>
<path d="M186.521 611.409C152.172 556.221 115.167 499.604 125.67 454.635C122.551 436.713 122.769 426.17 135.734 413.723C145.013 404.806 160.113 396.786 180.21 387.423C246.093 356.707 292.949 346.942 295.045 321.115C298.753 275.502 149.43 266.549 116.144 190.858C115.299 188.94 114.5 186.994 113.808 184.998C93.642 126.815 149.644 57.0934 195.177 10.9861" stroke="#D4E6F3" stroke-miterlimit="10"/>
<path d="M180.686 613.841C147.463 561.622 133.605 504.741 125.779 457.016C122.85 439.158 129.269 427.409 143.151 415.126C153.126 406.292 167.8 398.488 186.254 389.882C247.456 361.329 294.785 351.043 296.422 325.436C299.355 279.562 144.925 271.694 109.591 195.26C108.691 193.311 107.842 191.326 107.099 189.295C85.5494 130.315 142.668 58.6269 189.004 11.2329" stroke="#D4E6F3" stroke-miterlimit="10"/>
<path d="M174.848 616.274C142.73 567.019 113.428 509.205 125.885 459.399C130.379 441.432 135.77 428.653 150.572 416.53C161.243 407.782 175.487 400.192 192.299 392.343C248.808 365.95 296.603 355.146 297.788 329.759C299.942 283.624 140.411 276.846 103.039 199.664C102.081 197.681 101.19 195.66 100.392 193.591C77.5948 133.77 135.692 60.1508 182.836 11.4764" stroke="#D4E6F3" stroke-miterlimit="10"/>
<path d="M169.008 618.707C138.01 572.424 107.697 513.011 126.001 461.782C132.496 443.611 142.289 429.901 158.009 417.934C169.376 409.276 183.194 401.895 198.356 394.805C250.168 370.574 298.545 359.252 299.162 334.082C300.298 287.685 135.773 282.058 96.4933 204.066C95.4729 202.055 94.5378 199.996 93.6879 197.889C69.4471 137.282 128.714 61.6796 176.665 11.7293" stroke="#D4E6F3" stroke-miterlimit="10"/>
<path d="M163.164 621.14C133.289 577.826 102.007 516.512 126.122 464.167C162.482 385.256 300.038 380.387 300.532 338.403C301.095 290.544 122.449 286.962 86.9813 202.186C61.2976 140.796 121.733 63.2019 170.493 11.9772" stroke="#D4E6F3" stroke-miterlimit="10"/>
</svg>
