<svg width="91" height="102" viewBox="0 0 91 102" fill="none" xmlns="http://www.w3.org/2000/svg">
<path d="M29.75 54.0107C30.1561 53.7763 30.6446 53.747 31.0713 53.9229L31.25 54.0107L45.2715 62.1055C45.7355 62.3734 46.0213 62.8686 46.0215 63.4043V79.5957C46.0213 80.1314 45.7355 80.6266 45.2715 80.8945L31.25 88.9893C30.7859 89.2572 30.2141 89.2572 29.75 88.9893L15.7285 80.8945C15.2645 80.6266 14.9787 80.1314 14.9785 79.5957V63.4043C14.9787 62.8686 15.2645 62.3734 15.7285 62.1055L29.75 54.0107Z" stroke="#226CA3"/>
<path d="M16.25 28.7217C16.4047 28.6324 16.5953 28.6324 16.75 28.7217L25.709 33.8945C25.8636 33.9838 25.9589 34.1486 25.959 34.3271V44.6729C25.9589 44.8514 25.8636 45.0162 25.709 45.1055L16.75 50.2783C16.5953 50.3676 16.4047 50.3676 16.25 50.2783L7.29102 45.1055C7.13637 45.0162 7.04109 44.8514 7.04102 44.6729V34.3271C7.04109 34.1486 7.13637 33.9838 7.29102 33.8945L16.25 28.7217Z" stroke="#4D96CE"/>
<path d="M57 2.02073C59.1658 0.770296 61.8342 0.770297 64 2.02073L83.4138 13.2293C85.5796 14.4797 86.9138 16.7906 86.9138 19.2915V41.7085C86.9138 44.2094 85.5796 46.5203 83.4138 47.7707L64 58.9793C61.8342 60.2297 59.1658 60.2297 57 58.9793L37.5862 47.7707C35.4204 46.5203 34.0862 44.2094 34.0862 41.7085V19.2915C34.0862 16.7906 35.4204 14.4797 37.5862 13.2293L57 2.02073Z" fill="#2D9BD6"/>
</svg>
