<svg width="113" height="213" viewBox="0 0 113 213" fill="none" xmlns="http://www.w3.org/2000/svg">
<path d="M128.625 119.67C126.691 118.554 124.309 118.554 122.375 119.67L91.7031 137.379C89.7695 138.495 88.5783 140.558 88.5781 142.791V178.209C88.5783 180.442 89.7695 182.505 91.7031 183.621L122.375 201.33C124.309 202.446 126.691 202.446 128.625 201.33L159.297 183.621C161.231 182.505 162.422 180.442 162.422 178.209V142.791C162.422 140.558 161.231 138.495 159.297 137.379L128.625 119.67Z" stroke="#B8D5EB" stroke-width="1.5"/>
<path d="M56.625 134.093C55.3101 133.334 53.6899 133.334 52.375 134.093L36.1572 143.456C34.8423 144.215 34.0322 145.618 34.0322 147.137V165.863C34.0322 167.382 34.8423 168.785 36.1572 169.544L52.375 178.907C53.6077 179.619 55.1088 179.664 56.375 179.041L56.625 178.907L72.8428 169.544C74.1577 168.785 74.9678 167.382 74.9678 165.863V147.137C74.9678 145.618 74.1577 144.215 72.8428 143.456L56.625 134.093Z" stroke="#B8D5EB" stroke-width="1.5"/>
<path d="M81.625 19.9795C77.2161 17.434 71.7839 17.434 67.375 19.9795L30.8467 41.0693C26.4377 43.6148 23.7217 48.3192 23.7217 53.4102V95.5898C23.7217 100.681 26.4377 105.385 30.8467 107.931L67.375 129.021C71.6462 131.486 76.8778 131.564 81.209 129.252L81.625 129.021L118.153 107.931C122.562 105.385 125.278 100.681 125.278 95.5898V53.4102C125.278 48.3192 122.562 43.6148 118.153 41.0693L81.625 19.9795Z" stroke="#B8D5EB" stroke-width="1.5"/>
</svg>
