<svg width="859" height="841" viewBox="0 0 859 841" fill="none" xmlns="http://www.w3.org/2000/svg">
<g clip-path="url(#clip0_348_4125)">
<path d="M0 0.505859H844C852.284 0.505859 859 7.22159 859 15.5059V825.506C859 833.79 852.284 840.506 844 840.506H0V0.505859Z" fill="#214C9F"/>
<g filter="url(#filter0_f_348_4125)">
<path fill-rule="evenodd" clip-rule="evenodd" d="M126.658 1143.47C56.4034 1110.74 19.173 1035.41 -33.7945 978.59C-81.0636 927.887 -143.159 889.089 -170.207 825.043C-197.083 761.404 -177.859 689.322 -185.035 620.468C-193.211 542.034 -244.248 462.481 -215.666 388.91C-187.409 316.174 -104.319 282.591 -38.0202 242.047C23.7276 204.286 88.7324 173.404 159.548 159.451C229.872 145.596 303.685 138.884 371.643 161.332C438.155 183.301 487.525 236.779 538.786 284.718C588.062 330.8 637.174 377.4 667.412 437.93C698.199 499.557 705.234 568.429 714.69 636.835C725.412 714.397 767.054 801.282 726.942 868.569C686.087 937.103 576.965 921.119 515.251 971.392C451.297 1023.49 439.5 1130.7 364.246 1164.03C290.418 1196.72 199.635 1177.47 126.658 1143.47Z" fill="#73BCE4"/>
</g>
<path d="M185.875 539.485C190.284 536.94 195.716 536.94 200.125 539.485L320.225 608.825C324.634 611.371 327.35 616.075 327.35 621.166V759.846C327.35 764.937 324.634 769.641 320.225 772.187L200.125 841.526C195.854 843.992 190.622 844.07 186.291 841.758L185.875 841.526L65.7754 772.187C61.3665 769.641 58.6504 764.937 58.6504 759.846V621.166C58.6504 616.075 61.3665 611.371 65.7754 608.825L185.875 539.485Z" stroke="#B8D5EB" stroke-opacity="0.28" stroke-width="1.5"/>
<path d="M51.875 398.485C56.2839 395.94 61.7161 395.94 66.125 398.485L186.225 467.825C190.634 470.371 193.35 475.075 193.35 480.166V618.846C193.35 623.937 190.634 628.641 186.225 631.187L66.125 700.526C61.8538 702.992 56.6222 703.07 52.291 700.758L51.875 700.526L-68.2246 631.187C-72.6335 628.641 -75.3496 623.937 -75.3496 618.846V480.166C-75.3496 475.075 -72.6335 470.371 -68.2246 467.825L51.875 398.485Z" stroke="#B8D5EB" stroke-opacity="0.28" stroke-width="1.5"/>
<path d="M-82.625 472.485C-78.3538 470.019 -73.1222 469.942 -68.791 472.254L-68.375 472.485L51.292 541.575C55.7009 544.121 58.417 548.825 58.417 553.916V692.096C58.417 697.187 55.7009 701.891 51.292 704.437L-68.375 773.526C-72.6462 775.992 -77.8778 776.07 -82.209 773.758L-82.625 773.526L-202.292 704.437C-206.701 701.891 -209.417 697.187 -209.417 692.096V553.916C-209.417 548.825 -206.701 544.121 -202.292 541.575L-82.625 472.485Z" stroke="#B8D5EB" stroke-opacity="0.28" stroke-width="1.5"/>
<path d="M51.375 240.485C55.6462 238.019 60.8778 237.942 65.209 240.254L65.625 240.485L185.292 309.575C189.701 312.121 192.417 316.825 192.417 321.916V460.096C192.417 465.187 189.701 469.891 185.292 472.437L65.625 541.526C61.3538 543.992 56.1222 544.07 51.791 541.758L51.375 541.526L-68.292 472.437C-72.7009 469.891 -75.417 465.187 -75.417 460.096V321.916C-75.417 316.825 -72.7009 312.121 -68.292 309.575L51.375 240.485Z" stroke="#B8D5EB" stroke-opacity="0.28" stroke-width="1.5"/>
<path d="M-82.625 630.485C-78.3538 628.019 -73.1222 627.942 -68.791 630.254L-68.375 630.485L51.292 699.575C55.7009 702.121 58.417 706.825 58.417 711.916V850.096C58.417 855.187 55.7009 859.891 51.292 862.437L-68.375 931.526C-72.6462 933.992 -77.8778 934.07 -82.209 931.758L-82.625 931.526L-202.292 862.437C-206.701 859.891 -209.417 855.187 -209.417 850.096V711.916C-209.417 706.825 -206.701 702.121 -202.292 699.575L-82.625 630.485Z" stroke="#B8D5EB" stroke-opacity="0.28" stroke-width="1.5"/>
<path d="M-81.125 165.485C-76.7161 162.94 -71.2839 162.94 -66.875 165.485L53.2246 234.825C57.6336 237.371 60.3496 242.075 60.3496 247.166V385.846C60.3496 390.937 57.6336 395.641 53.2246 398.187L-66.875 467.526C-71.1462 469.992 -76.3778 470.07 -80.709 467.758L-81.125 467.526L-201.225 398.187C-205.634 395.641 -208.35 390.937 -208.35 385.846V247.166C-208.35 242.075 -205.634 237.371 -201.225 234.825L-81.125 165.485Z" stroke="#B8D5EB" stroke-opacity="0.28" stroke-width="1.5"/>
<path d="M46.875 706.485C51.2839 703.94 56.7161 703.94 61.125 706.485L181.225 775.825C185.634 778.371 188.35 783.075 188.35 788.166V926.846C188.35 931.937 185.634 936.641 181.225 939.187L61.125 1008.53C56.8538 1010.99 51.6222 1011.07 47.291 1008.76L46.875 1008.53L-73.2246 939.187C-77.6335 936.641 -80.3496 931.937 -80.3496 926.846V788.166C-80.3496 783.075 -77.6335 778.371 -73.2246 775.825L46.875 706.485Z" stroke="#B8D5EB" stroke-opacity="0.28" stroke-width="1.5"/>
<path d="M902.625 143.176C900.691 142.059 898.309 142.059 896.375 143.176L820.67 186.885C818.736 188.001 817.545 190.064 817.545 192.297V279.715C817.545 281.948 818.736 284.011 820.67 285.127L896.375 328.836C898.188 329.883 900.396 329.948 902.258 329.032L902.625 328.836L978.33 285.127C980.264 284.011 981.455 281.948 981.455 279.715V192.297C981.455 190.064 980.264 188.001 978.33 186.885L902.625 143.176Z" stroke="#B8D5EB" stroke-opacity="0.28" stroke-width="1.5"/>
<path d="M746.125 175.599C744.81 174.839 743.19 174.839 741.875 175.599L700.109 199.712C698.795 200.471 697.984 201.874 697.984 203.393V251.619C697.984 253.137 698.795 254.541 700.109 255.3L741.875 279.413C743.19 280.172 744.81 280.172 746.125 279.413L787.891 255.3C789.205 254.541 790.016 253.137 790.016 251.619V203.393C790.016 201.874 789.205 200.471 787.891 199.712L746.125 175.599Z" stroke="#B8D5EB" stroke-opacity="0.28" stroke-width="1.5"/>
<path d="M795.125 -78.5146C790.854 -80.9806 785.622 -81.0579 781.291 -78.7461L780.875 -78.5146L682.426 -21.6748C678.017 -19.1293 675.301 -14.425 675.301 -9.33398V104.346C675.301 109.437 678.017 114.141 682.426 116.687L780.875 173.526C785.146 175.992 790.378 176.07 794.709 173.758L795.125 173.526L893.574 116.687C897.983 114.141 900.699 109.437 900.699 104.346V-9.33398C900.699 -14.425 897.983 -19.1293 893.574 -21.6748L795.125 -78.5146Z" stroke="#B8D5EB" stroke-opacity="0.28" stroke-width="1.5"/>
</g>
<defs>
<filter id="filter0_f_348_4125" x="-774.277" y="-403.281" width="2068.31" height="2134.16" filterUnits="userSpaceOnUse" color-interpolation-filters="sRGB">
<feFlood flood-opacity="0" result="BackgroundImageFix"/>
<feBlend mode="normal" in="SourceGraphic" in2="BackgroundImageFix" result="shape"/>
<feGaussianBlur stdDeviation="275" result="effect1_foregroundBlur_348_4125"/>
</filter>
<clipPath id="clip0_348_4125">
<path d="M0 0.505859H844C852.284 0.505859 859 7.22159 859 15.5059V825.506C859 833.79 852.284 840.506 844 840.506H0V0.505859Z" fill="white"/>
</clipPath>
</defs>
</svg>
