<svg width="214" height="1459" viewBox="0 0 214 1459" fill="none" xmlns="http://www.w3.org/2000/svg">
<path d="M376.354 1334.19C303.22 1086.1 220.737 1000.88 157.839 969.679C87.6414 934.857 10.385 951.713 5.95605 914.815C3.11895 891.189 32.1856 862.434 95.8106 808.916C288.745 646.623 339.594 643.4 353.462 573.591C372.902 475.798 286.512 414.557 289.85 263.979C292.305 153.385 341.602 64.3521 385.235 4.44495" stroke="#D4E6F3" stroke-miterlimit="10"/>
<path d="M368.704 1340.05C297.13 1098.95 217.024 1008.9 158.117 975.312C92.2873 937.774 19.0147 954.488 15.9116 917.987C13.915 894.52 42.484 866.306 103.929 814.61C290.632 657.503 342.125 653.074 355.336 583.796C373.845 485.427 281.138 426.757 281.347 274.552C281.352 271.234 281.384 267.967 281.471 264.698C284.395 156.733 333.727 66.4246 377.108 5.22448" stroke="#D4E6F3" stroke-miterlimit="10"/>
<path d="M361.054 1345.9C291.045 1111.79 213.454 1016.99 158.399 980.929C97.033 940.731 27.6527 957.236 25.8707 921.143C24.7169 897.828 52.7907 870.151 112.053 820.292C292.514 668.405 344.817 662.799 357.21 593.975C375.01 495.119 275.718 438.901 272.842 285.099C272.778 281.724 272.714 278.361 272.758 274.999C274.202 165.235 324.581 70.217 368.978 5.98478" stroke="#D4E6F3" stroke-miterlimit="10"/>
<path d="M353.401 1351.76C284.937 1124.62 210.048 1025.22 158.679 986.558C101.876 943.813 36.2953 959.982 35.8298 924.314C35.5258 901.141 63.0926 874.034 120.172 825.987C294.413 679.301 347.415 672.493 359.081 604.167C376.049 504.775 270.257 451.038 264.333 295.658C264.201 292.209 264.076 288.764 264.04 285.33C262.902 173.765 315.429 74.0403 360.841 6.77591" stroke="#D4E6F3" stroke-miterlimit="10"/>
<path d="M345.75 1357.62C278.851 1137.46 206.819 1033.6 158.96 992.185C106.819 947.062 44.949 962.707 45.7906 927.476C46.3388 904.44 73.3985 877.896 128.296 831.671C296.304 690.19 350.008 682.175 360.951 614.351C377.078 514.395 264.758 463.153 255.818 306.21C255.622 302.686 255.426 299.159 255.318 295.622C252.182 182.267 306.275 77.831 352.71 7.5235" stroke="#D4E6F3" stroke-miterlimit="10"/>
<path d="M338.101 1363.48C272.765 1150.29 203.781 1042.21 159.246 997.805C111.853 950.561 53.6114 965.437 55.7509 930.636C57.1606 907.729 83.704 881.76 136.421 837.357C298.197 701.073 352.594 691.849 362.826 624.534C378.1 524.02 259.224 475.262 247.32 316.76C247.049 313.158 246.773 309.557 246.611 305.927C241.495 190.787 297.135 81.6162 344.588 8.28765" stroke="#D4E6F3" stroke-miterlimit="10"/>
<path d="M330.454 1369.33C266.675 1163.13 200.931 1051.09 159.531 1003.44C116.935 954.413 62.2874 968.141 65.7153 933.805C67.9888 911.021 94.0205 885.629 144.546 843.053C300.089 711.97 355.175 701.525 364.7 634.726C379.115 533.633 253.66 487.377 238.817 327.32C238.476 323.629 238.125 319.961 237.901 316.249C230.819 199.331 287.996 85.4297 336.461 9.069" stroke="#D4E6F3" stroke-miterlimit="10"/>
<path d="M322.795 1375.19C260.574 1175.97 191.395 1071.19 159.804 1009.06C116.675 971.204 70.9632 970.852 75.6659 936.971C78.8124 914.31 104.309 889.496 152.672 848.742C301.984 722.864 357.746 711.197 366.576 644.916C380.118 543.246 248.064 499.493 230.314 337.88C229.902 334.123 229.478 330.361 229.189 326.557C220.162 207.853 278.846 89.2104 328.334 9.82868" stroke="#D4E6F3" stroke-miterlimit="10"/>
<path d="M315.144 1381.05C254.482 1188.8 187.2 1081.23 160.086 1014.69C120.823 976.395 79.6589 973.561 85.627 940.135C89.6512 917.593 114.609 893.363 160.785 854.432C303.864 733.774 360.296 720.86 368.437 655.099C381.095 552.849 242.423 511.609 221.796 348.434C221.311 344.602 220.815 340.763 220.462 336.866C209.506 216.377 269.687 93.0254 320.192 10.5968" stroke="#D4E6F3" stroke-miterlimit="10"/>
<path d="M307.49 1386.9C248.387 1201.64 183.007 1091.27 160.364 1020.32C124.967 981.589 88.3608 976.27 95.5829 943.299C100.492 920.88 124.912 897.228 168.903 860.122C305.76 744.647 362.843 730.519 370.303 665.286C382.067 562.444 236.763 523.736 213.283 358.989C212.727 355.082 212.16 351.161 211.741 347.175C198.868 224.901 260.533 96.8259 312.057 11.3652" stroke="#D4E6F3" stroke-miterlimit="10"/>
<path d="M299.841 1392.76C242.297 1214.47 178.817 1101.31 160.65 1025.94C129.119 986.78 97.0808 978.983 105.545 946.466C111.348 924.17 135.222 901.092 177.021 865.809C307.639 755.538 365.383 740.174 372.173 675.473C383.027 572.04 231.079 535.87 204.773 369.543C204.143 365.558 203.51 361.559 203.023 357.487C188.246 233.418 251.383 100.626 303.923 12.1335" stroke="#D4E6F3" stroke-miterlimit="10"/>
<path d="M292.191 1398.62C236.21 1227.32 174.628 1111.34 160.944 1031.57C133.28 991.969 105.816 981.702 115.519 949.636C122.222 927.471 145.539 904.962 185.164 871.505C309.55 766.436 367.936 749.835 374.063 685.659C383.998 581.627 225.402 548.017 196.287 380.1C195.583 376.037 194.879 371.974 194.336 367.799C177.665 241.934 242.26 104.429 295.819 12.9043" stroke="#D4E6F3" stroke-miterlimit="10"/>
<path d="M284.54 1404.48C230.117 1240.16 170.435 1121.4 161.215 1037.2C137.418 997.165 114.541 984.439 125.468 952.798C133.076 930.77 155.835 908.827 193.278 877.193C311.431 777.31 370.453 759.484 375.926 695.851C384.923 591.22 219.666 560.186 187.77 390.656C186.992 386.522 186.222 382.363 185.603 378.098C167.059 250.431 233.087 108.22 287.674 13.663" stroke="#D4E6F3" stroke-miterlimit="10"/>
<path d="M276.889 1410.32C224.026 1252.99 166.245 1131.44 161.502 1042.82C141.572 1002.36 123.28 987.181 135.429 955.961C143.947 934.075 166.139 912.69 201.4 882.878C313.323 788.211 372.978 769.134 377.799 706.036C385.848 600.799 213.916 572.362 179.264 401.213C178.41 397.001 177.573 392.76 176.888 388.417C156.465 258.943 223.947 112.03 279.544 14.419" stroke="#D4E6F3" stroke-miterlimit="10"/>
<path d="M269.234 1416.19C217.929 1265.83 162.048 1141.48 161.777 1048.45C145.714 1007.55 132.017 989.93 145.39 959.124C154.82 937.391 176.443 916.554 209.524 888.583C315.214 799.117 375.482 778.799 379.67 716.238C386.756 610.397 208.175 584.569 170.756 411.781C169.829 407.495 168.926 403.172 168.173 398.744C145.886 267.449 214.801 115.845 271.413 15.2203" stroke="#D4E6F3" stroke-miterlimit="10"/>
<path d="M261.586 1422.05C211.84 1278.67 157.859 1151.53 162.061 1054.08C149.865 1012.74 140.765 992.697 155.347 962.29C165.693 940.717 186.748 920.424 217.646 894.257C317.102 809.995 377.982 788.438 381.541 726.408C387.648 619.964 202.399 596.763 162.26 422.323C161.258 417.962 160.288 413.558 159.47 409.022C135.314 275.924 205.65 119.633 263.272 15.9755" stroke="#D4E6F3" stroke-miterlimit="10"/>
<path d="M253.931 1427.91C205.745 1291.51 153.671 1161.57 162.338 1059.7C154.001 1017.95 149.511 995.473 165.304 965.454C176.566 944.052 197.047 924.288 225.755 899.947C318.979 820.887 380.463 798.089 383.398 736.595C388.51 629.548 196.602 608.989 153.728 432.877C152.648 428.442 151.615 423.956 150.728 419.349C124.745 284.404 196.498 123.422 255.146 16.7442" stroke="#D4E6F3" stroke-miterlimit="10"/>
<path d="M246.274 1433.76C199.647 1304.35 149.466 1171.61 162.616 1065.33C158.151 1023.13 158.252 998.261 175.256 968.626C187.425 947.395 207.344 928.157 233.88 905.642C320.869 831.783 382.952 807.744 385.274 746.787C389.384 639.133 190.82 621.23 145.239 443.433C144.081 438.927 142.985 434.355 142.03 429.663C114.194 292.875 187.356 127.235 247.03 17.5139" stroke="#D4E6F3" stroke-miterlimit="10"/>
<path d="M238.625 1439.62C193.573 1317.19 174.152 1183.34 162.906 1070.95C158.697 1028.9 167.011 1001.05 185.226 971.789C198.314 950.74 217.66 932.02 242.012 911.327C322.774 842.673 385.439 817.398 387.156 756.973C390.23 648.722 185.014 633.487 136.725 453.99C135.495 449.413 134.333 444.748 133.309 439.975C103.637 301.344 178.205 131.049 238.888 18.2808" stroke="#D4E6F3" stroke-miterlimit="10"/>
<path d="M230.98 1445.48C187.47 1330.01 147.544 1194.3 163.186 1076.58C168.831 1034.11 175.757 1003.86 195.186 974.95C209.192 954.091 227.962 935.885 250.134 917.015C324.664 853.559 387.907 827.054 389.025 767.157C391.058 658.314 179.2 645.758 128.218 464.546C126.91 459.891 125.691 455.144 124.595 450.281C93.2671 309.698 169.059 134.836 230.761 19.0358" stroke="#D4E6F3" stroke-miterlimit="10"/>
<path d="M223.332 1451.34C181.381 1342.86 140.104 1203.4 163.471 1082.2C171.761 1039.21 184.507 1006.67 205.147 978.116C220.072 957.454 238.271 939.751 258.258 922.708C326.558 864.452 390.533 836.715 390.901 777.346C391.578 667.911 173.218 658.175 119.714 475.102C118.324 470.381 117.047 465.546 115.882 460.596C82.6393 318.195 159.91 138.638 222.628 19.8172" stroke="#D4E6F3" stroke-miterlimit="10"/>
<path d="M215.68 1457.19C175.29 1355.7 132.713 1211.79 163.753 1087.83C210.555 900.975 392.866 886.541 392.77 787.53C392.661 674.661 155.712 670.051 107.165 470.905C72.0101 326.694 150.76 142.424 214.499 20.5857" stroke="#D4E6F3" stroke-miterlimit="10"/>
</svg>
