<svg width="126" height="134" viewBox="0 0 126 134" fill="none" xmlns="http://www.w3.org/2000/svg">
<path d="M39.75 80.6709C41.4517 79.6884 43.5483 79.6884 45.25 80.6709L63.0654 90.957C64.7671 91.9395 65.8153 93.7549 65.8154 95.7197V116.292C65.8153 118.257 64.7671 120.072 63.0654 121.055L45.25 131.341C43.6546 132.262 41.712 132.32 40.0732 131.514L39.75 131.341L21.9346 121.055C20.2329 120.072 19.1847 118.257 19.1846 116.292V95.7197C19.1847 93.7549 20.2329 91.9395 21.9346 90.957L39.75 80.6709Z" stroke="#2681B2"/>
<path d="M20 42.6606C21.2376 41.946 22.7624 41.946 24 42.6606L34.7224 48.8512C35.96 49.5657 36.7224 50.8862 36.7224 52.3153V64.6965C36.7224 66.1255 35.96 67.446 34.7224 68.1606L24 74.3512C22.7624 75.0657 21.2376 75.0657 20 74.3512L9.27757 68.1606C8.03996 67.446 7.27757 66.1255 7.27757 64.6965V52.3153C7.27757 50.8862 8.03996 49.5657 9.27757 48.8512L20 42.6606Z" fill="#2D9BD6"/>
<path d="M83.625 3.89746C85.5828 2.76722 87.9665 2.6967 89.9775 3.68555L90.375 3.89746L121.346 21.7793C123.434 22.9851 124.721 25.2135 124.721 27.625V63.3867C124.721 65.7983 123.434 68.0267 121.346 69.2324L90.375 87.1143C88.2866 88.3199 85.7134 88.3199 83.625 87.1143L52.6543 69.2324C50.5658 68.0267 49.2793 65.7983 49.2793 63.3867V27.625C49.2793 25.2135 50.5658 22.9851 52.6543 21.7793L83.625 3.89746Z" stroke="#2681B2" stroke-width="2.5"/>
</svg>
