<svg width="12" height="12" viewBox="0 0 12 12" fill="none" xmlns="http://www.w3.org/2000/svg">
<path d="M1.98448 4.23469C2.01931 4.19982 2.06067 4.17216 2.10619 4.15329C2.15171 4.13442 2.20051 4.1247 2.24979 4.1247C2.29907 4.1247 2.34787 4.13442 2.39339 4.15329C2.43892 4.17216 2.48028 4.19982 2.5151 4.23469L5.99979 7.71984L9.48448 4.23469C9.55484 4.16432 9.65028 4.12479 9.74979 4.12479C9.8493 4.12479 9.94474 4.16432 10.0151 4.23469C10.0855 4.30505 10.125 4.40049 10.125 4.5C10.125 4.59951 10.0855 4.69495 10.0151 4.76531L6.2651 8.51531C6.23028 8.55018 6.18892 8.57784 6.14339 8.59671C6.09787 8.61558 6.04907 8.62529 5.99979 8.62529C5.95051 8.62529 5.90171 8.61558 5.85619 8.59671C5.81067 8.57784 5.76931 8.55018 5.73448 8.51531L1.98448 4.76531C1.94961 4.73048 1.92195 4.68913 1.90308 4.6436C1.88421 4.59808 1.8745 4.54928 1.8745 4.5C1.8745 4.45072 1.88421 4.40192 1.90308 4.3564C1.92195 4.31087 1.94961 4.26951 1.98448 4.23469Z" fill="#2D9BD6"/>
</svg>
