<svg width="13" height="12" viewBox="0 0 13 12" fill="none" xmlns="http://www.w3.org/2000/svg">
<path d="M2.48448 4.23469C2.51931 4.19982 2.56067 4.17216 2.60619 4.15329C2.65171 4.13442 2.70051 4.1247 2.74979 4.1247C2.79907 4.1247 2.84787 4.13442 2.89339 4.15329C2.93892 4.17216 2.98028 4.19982 3.0151 4.23469L6.49979 7.71984L9.98448 4.23469C10.0548 4.16432 10.1503 4.12479 10.2498 4.12479C10.3493 4.12479 10.4447 4.16432 10.5151 4.23469C10.5855 4.30505 10.625 4.40049 10.625 4.5C10.625 4.59951 10.5855 4.69495 10.5151 4.76531L6.7651 8.51531C6.73028 8.55018 6.68892 8.57784 6.64339 8.59671C6.59787 8.61558 6.54907 8.62529 6.49979 8.62529C6.45051 8.62529 6.40171 8.61558 6.35619 8.59671C6.31067 8.57784 6.26931 8.55018 6.23448 8.51531L2.48448 4.76531C2.44961 4.73048 2.42195 4.68913 2.40308 4.6436C2.38421 4.59808 2.3745 4.54928 2.3745 4.5C2.3745 4.45072 2.38421 4.40192 2.40308 4.3564C2.42195 4.31087 2.44961 4.26951 2.48448 4.23469Z" fill="#0E2B41"/>
</svg>
