<svg width="25" height="24" viewBox="0 0 25 24" fill="none" xmlns="http://www.w3.org/2000/svg">
<path fill-rule="evenodd" clip-rule="evenodd" d="M19.4711 3.65914C19.2622 3.45021 19.0142 3.28447 18.7412 3.17139C18.4682 3.05832 18.1756 3.00012 17.8801 3.00012C17.5847 3.00012 17.2921 3.05832 17.0191 3.17139C16.7461 3.28447 16.4981 3.45021 16.2891 3.65914L5.34915 14.5991C4.64592 15.3025 4.25091 16.2564 4.251 17.251C4.2511 18.2456 4.64629 19.1994 5.34965 19.9026C6.053 20.6059 7.0069 21.0009 8.0015 21.0008C8.9961 21.0007 9.94992 20.6055 10.6531 19.9021L18.3461 12.2091C18.4883 12.0767 18.6764 12.0045 18.8707 12.008C19.065 12.0114 19.2504 12.0901 19.3878 12.2275C19.5252 12.3649 19.6039 12.5503 19.6073 12.7446C19.6107 12.9389 19.5386 13.127 19.4061 13.2691L11.7131 20.9621C11.228 21.46 10.6488 21.8566 10.0092 22.1288C9.36955 22.4011 8.68222 22.5436 7.98708 22.5481C7.29194 22.5525 6.60283 22.4189 5.95973 22.155C5.31664 21.8911 4.73236 21.502 4.24081 21.0105C3.74927 20.5189 3.36023 19.9347 3.09629 19.2916C2.83234 18.6485 2.69874 17.9593 2.70323 17.2642C2.70773 16.5691 2.85023 15.8817 3.12248 15.2421C3.39472 14.6025 3.79128 14.0233 4.28915 13.5381L15.2281 2.59814C15.9315 1.89492 16.8854 1.49991 17.88 1.5C18.8746 1.50009 19.8284 1.89529 20.5316 2.59864C21.2349 3.30199 21.6299 4.2559 21.6298 5.25049C21.6297 6.24509 21.2345 7.19892 20.5311 7.90214L9.59815 18.8351L9.59015 18.8431L9.58315 18.8501L9.58115 18.8521L9.57815 18.8541C9.15051 19.2533 8.58423 19.4702 7.99937 19.4589C7.41451 19.4475 6.85705 19.2089 6.44518 18.7935C6.0333 18.3781 5.79939 17.8187 5.79304 17.2337C5.78669 16.6488 6.00839 16.0844 6.41115 15.6601L14.2211 7.85014C14.3625 7.71345 14.5519 7.63777 14.7486 7.63938C14.9452 7.641 15.1334 7.71979 15.2725 7.85878C15.4116 7.99777 15.4906 8.18584 15.4924 8.38249C15.4942 8.57914 15.4187 8.76862 15.2821 8.91014L7.47215 16.7201C7.33052 16.8599 7.25022 17.0502 7.24891 17.2492C7.24759 17.4482 7.32538 17.6395 7.46515 17.7811C7.60492 17.9228 7.79522 18.0031 7.9942 18.0044C8.19317 18.0057 8.38452 17.9279 8.52615 17.7881L19.4711 6.84014C19.6801 6.63121 19.8458 6.38317 19.9589 6.11018C20.072 5.8372 20.1302 5.54462 20.1302 5.24914C20.1302 4.95366 20.072 4.66108 19.9589 4.3881C19.8458 4.11511 19.6801 3.86807 19.4711 3.65914Z" fill="#2D9BD6"/>
</svg>
