<svg width="83" height="83" viewBox="0 0 83 83" fill="none" xmlns="http://www.w3.org/2000/svg">
<path d="M48.625 4.97949C44.2161 2.43403 38.7839 2.43403 34.375 4.97949L13.4346 17.0693C9.02579 19.6149 6.3096 24.3193 6.30957 29.4102V53.5898C6.30961 58.6807 9.02579 63.3851 13.4346 65.9307L34.375 78.0205C38.7839 80.566 44.2161 80.566 48.625 78.0205L69.5654 65.9307C73.9742 63.3851 76.6904 58.6807 76.6904 53.5898V29.4102C76.6904 24.3193 73.9742 19.6149 69.5654 17.0693L48.625 4.97949Z" stroke="white" stroke-width="1.5"/>
<path d="M49.125 41.5002C49.125 41.5166 49.1215 41.533 49.1152 41.5481C49.1089 41.5632 49.0995 41.5766 49.0879 41.5881L49.0879 41.5891L42.8379 47.8391C42.8143 47.8627 42.7823 47.8762 42.749 47.8762C42.7157 47.8762 42.6837 47.8626 42.6602 47.8391C42.6366 47.8156 42.6231 47.7835 42.623 47.7502C42.623 47.7169 42.6366 47.685 42.6602 47.6614L47.8437 42.4788L48.6973 41.6252L33.999 41.6252C33.9659 41.6252 33.9336 41.6116 33.9102 41.5881C33.887 41.5648 33.8741 41.5332 33.874 41.5002C33.874 41.4671 33.8867 41.4348 33.9102 41.4114C33.9336 41.3879 33.9659 41.3752 33.999 41.3752L48.6973 41.3752L47.8437 40.5217L42.6602 35.3391C42.6366 35.3156 42.6231 35.2835 42.623 35.2502C42.623 35.2169 42.6366 35.185 42.6602 35.1614C42.6837 35.1378 42.7157 35.1243 42.749 35.1243C42.7823 35.1243 42.8143 35.1378 42.8379 35.1614L49.0879 41.4114C49.0995 41.423 49.1089 41.4372 49.1152 41.4524C49.1215 41.4675 49.125 41.4838 49.125 41.5002Z" fill="black" stroke="white"/>
</svg>
