<svg width="20" height="20" viewBox="0 0 20 20" fill="none" xmlns="http://www.w3.org/2000/svg">
<path d="M9.76179 1.53994C9.83662 1.30961 10.1624 1.30961 10.2373 1.53994L11.8946 6.64075C11.995 6.94977 12.283 7.15899 12.6079 7.15899H17.9712C18.2134 7.15899 18.3141 7.46889 18.1182 7.61124L13.7792 10.7638C13.5163 10.9547 13.4063 11.2933 13.5067 11.6023L15.1641 16.7031C15.2389 16.9334 14.9753 17.125 14.7794 16.9826L10.4403 13.8301C10.1775 13.6391 9.82158 13.6391 9.55871 13.8301L5.2197 16.9826C5.02377 17.125 4.76015 16.9334 4.83499 16.7031L6.49234 11.6023C6.59275 11.2933 6.48276 10.9547 6.21989 10.7638L1.88088 7.61124C1.68495 7.46889 1.78565 7.15899 2.02783 7.15899H7.39114C7.71606 7.15899 8.00403 6.94977 8.10443 6.64075L9.76179 1.53994Z" stroke="#F44336" stroke-width="0.5"/>
<path d="M5.28606 17.1008L10.0008 13.8005V1.17773L8.37229 6.55972C8.30913 6.76845 8.11798 6.91216 7.89993 6.91487L2.50642 6.98181C2.02537 6.98778 1.82947 7.60318 2.21854 7.88614L6.19813 10.7804C6.37755 10.9109 6.44953 11.144 6.37491 11.3529L4.52845 16.523C4.36458 16.9819 4.8869 17.3802 5.28606 17.1008Z" fill="#F44336"/>
<path d="M14.6759 17.0622L10.0626 13.795C10.0212 13.7657 9.98454 13.7302 9.95381 13.6899L8.10223 11.2588C8.03591 11.1717 8 11.0653 8 10.9558V7.57705C8 7.52598 8.00782 7.47522 8.02319 7.42653L10.0002 1.16406L12.1247 6.87536L17.5314 6.97335C18.0086 6.982 18.2035 7.59059 17.8201 7.87489L13.7398 10.9006C13.5609 11.0333 13.4913 11.2682 13.5691 11.4769L15.4334 16.4796C15.6053 16.9408 15.0775 17.3467 14.6759 17.0622Z" fill="#F44336"/>
</svg>
