<svg width="172" height="406" viewBox="0 0 172 406" fill="none" xmlns="http://www.w3.org/2000/svg">
<path d="M100.5 17.3301C95.859 14.6506 90.141 14.6506 85.5 17.3301L25.1558 52.1699C20.5148 54.8494 17.6558 59.8013 17.6558 65.1603V134.84C17.6558 140.199 20.5148 145.151 25.1558 147.83L85.5 182.67C90.141 185.349 95.859 185.349 100.5 182.67L160.844 147.83C165.485 145.151 168.344 140.199 168.344 134.84V65.1603C168.344 59.8013 165.485 54.8494 160.844 52.1699L100.5 17.3301Z" fill="url(#paint0_linear_496_3356)"/>
<path d="M24.5 169.33C19.859 166.651 14.141 166.651 9.5 169.33L-35.2558 195.17C-39.8968 197.849 -42.7558 202.801 -42.7558 208.16V259.84C-42.7558 265.199 -39.8968 270.151 -35.2558 272.83L9.5 298.67C14.141 301.349 19.859 301.349 24.5 298.67L69.2558 272.83C73.8968 270.151 76.7558 265.199 76.7558 259.84V208.16C76.7558 202.801 73.8968 197.849 69.2558 195.17L24.5 169.33Z" fill="url(#paint1_linear_496_3356)"/>
<path d="M-18.875 196.979C-23.2839 194.434 -28.7161 194.434 -33.125 196.979L-93.4688 231.819C-97.8777 234.365 -100.594 239.069 -100.594 244.16V313.84C-100.594 318.931 -97.8777 323.635 -93.4688 326.181L-33.125 361.021C-28.8538 363.486 -23.6222 363.564 -19.291 361.252L-18.875 361.021L41.4688 326.181C45.8777 323.635 48.5937 318.931 48.5938 313.84V244.16C48.5937 239.069 45.8777 234.365 41.4688 231.819L-18.875 196.979Z" stroke="#B8D5EB" stroke-opacity="0.28" stroke-width="1.5"/>
<path d="M24.125 -38.0205C19.7161 -40.566 14.2839 -40.566 9.875 -38.0205L-50.4688 -3.18066C-54.8777 -0.635162 -57.5937 4.06916 -57.5938 9.16016V78.8398C-57.5937 83.9308 -54.8777 88.6352 -50.4688 91.1807L9.875 126.021C14.1462 128.486 19.3778 128.564 23.709 126.252L24.125 126.021L84.4688 91.1807C88.8777 88.6352 91.5937 83.9308 91.5938 78.8398V9.16016C91.5937 4.06916 88.8777 -0.635162 84.4688 -3.18066L24.125 -38.0205Z" stroke="#B8D5EB" stroke-opacity="0.28" stroke-width="1.5"/>
<defs>
<linearGradient id="paint0_linear_496_3356" x1="-5.53592" y1="38.2348" x2="204.273" y2="162.006" gradientUnits="userSpaceOnUse">
<stop stop-color="#55B5E8"/>
<stop offset="1" stop-color="#417FC3"/>
</linearGradient>
<linearGradient id="paint1_linear_496_3356" x1="-61.1492" y1="185.014" x2="105.251" y2="283.177" gradientUnits="userSpaceOnUse">
<stop stop-color="#55B5E8"/>
<stop offset="1" stop-color="#417FC3"/>
</linearGradient>
</defs>
</svg>
