<svg width="730" height="972" viewBox="0 0 730 972" fill="none" xmlns="http://www.w3.org/2000/svg">
<g filter="url(#filter0_f_366_4600)">
<path fill-rule="evenodd" clip-rule="evenodd" d="M550.759 616.712C552.741 600.734 569.114 587.242 579.099 572.412C588.01 559.176 592.369 544.198 606.724 533.59C620.988 523.049 641.857 520.4 659.368 513.093C679.315 504.768 695.491 488.328 717.641 487.301C739.539 486.286 756.296 498.92 773.298 507.81C789.133 516.09 803.46 525.575 813.866 537.614C824.199 549.569 832.975 562.796 833.492 577.454C833.999 591.8 824.553 605.669 816.751 619.411C809.251 632.622 801.599 645.846 788.476 656.747C775.114 667.846 757.586 675.128 740.409 682.824C720.934 691.549 701.93 706.867 680.346 705.192C658.362 703.487 652.232 681.688 633.094 674.499C613.262 667.048 583.816 674.13 567.871 662.939C552.228 651.96 548.701 633.31 550.759 616.712Z" fill="#C0EEFF"/>
</g>
<defs>
<filter id="filter0_f_366_4600" x="0.226562" y="-62.7559" width="1383.29" height="1318.07" filterUnits="userSpaceOnUse" color-interpolation-filters="sRGB">
<feFlood flood-opacity="0" result="BackgroundImageFix"/>
<feBlend mode="normal" in="SourceGraphic" in2="BackgroundImageFix" result="shape"/>
<feGaussianBlur stdDeviation="275" result="effect1_foregroundBlur_366_4600"/>
</filter>
</defs>
</svg>
