<svg width="415" height="162" viewBox="0 0 415 162" fill="none" xmlns="http://www.w3.org/2000/svg">
<path d="M4.97949 94.125C2.43403 89.7161 2.43403 84.2839 4.97949 79.875L39.8193 19.5312C42.3648 15.1223 47.0692 12.4063 52.1602 12.4062L121.84 12.4062C126.931 12.4063 131.635 15.1223 134.181 19.5312L169.021 79.875C171.486 84.1462 171.564 89.3778 169.252 93.709L169.021 94.125L134.181 154.469C131.635 158.878 126.931 161.594 121.84 161.594L52.1602 161.594C47.0692 161.594 42.3648 158.878 39.8193 154.469L4.97949 94.125Z" stroke="#B8D5EB" stroke-opacity="0.3" stroke-width="1.5"/>
<path d="M45.9795 169.125C43.434 164.716 43.434 159.284 45.9795 154.875L80.8193 94.5312C83.3648 90.1223 88.0692 87.4063 93.1602 87.4062L162.84 87.4062C167.931 87.4063 172.635 90.1223 175.181 94.5312L210.021 154.875C212.486 159.146 212.564 164.378 210.252 168.709L210.021 169.125L175.181 229.469C172.635 233.878 167.931 236.594 162.84 236.594L93.1602 236.594C88.0692 236.594 83.3648 233.878 80.8193 229.469L45.9795 169.125Z" stroke="#B8D5EB" stroke-opacity="0.3" stroke-width="1.5"/>
<path d="M4.97949 243.125C2.43403 238.716 2.43403 233.284 4.97949 228.875L39.8193 168.531C42.3648 164.122 47.0692 161.406 52.1602 161.406L121.84 161.406C126.931 161.406 131.635 164.122 134.181 168.531L169.021 228.875C171.486 233.146 171.564 238.378 169.252 242.709L169.021 243.125L134.181 303.469C131.635 307.878 126.931 310.594 121.84 310.594L52.1602 310.594C47.0692 310.594 42.3648 307.878 39.8193 303.469L4.97949 243.125Z" stroke="#B8D5EB" stroke-opacity="0.3" stroke-width="1.5"/>
<path d="M133.979 169.125C131.434 164.716 131.434 159.284 133.979 154.875L168.819 94.5312C171.365 90.1223 176.069 87.4063 181.16 87.4062L250.84 87.4062C255.931 87.4063 260.635 90.1223 263.181 94.5312L298.021 154.875C300.486 159.146 300.564 164.378 298.252 168.709L298.021 169.125L263.181 229.469C260.635 233.878 255.931 236.594 250.84 236.594L181.16 236.594C176.069 236.594 171.365 233.878 168.819 229.469L133.979 169.125Z" stroke="#B8D5EB" stroke-opacity="0.3" stroke-width="1.5"/>
<path d="M306.979 170.125C304.434 165.716 304.434 160.284 306.979 155.875L341.819 95.5312C344.365 91.1223 349.069 88.4063 354.16 88.4062L423.84 88.4062C428.931 88.4063 433.635 91.1223 436.181 95.5312L471.021 155.875C473.486 160.146 473.564 165.378 471.252 169.709L471.021 170.125L436.181 230.469C433.635 234.878 428.931 237.594 423.84 237.594L354.16 237.594C349.069 237.594 344.365 234.878 341.819 230.469L306.979 170.125Z" stroke="#B8D5EB" stroke-opacity="0.3" stroke-width="1.5"/>
<path d="M176.979 97.125C174.434 92.7161 174.434 87.2839 176.979 82.875L211.819 22.5312C214.365 18.1223 219.069 15.4063 224.16 15.4062L293.84 15.4062C298.931 15.4063 303.635 18.1223 306.181 22.5312L341.021 82.875C343.486 87.1462 343.564 92.3778 341.252 96.709L341.021 97.125L306.181 157.469C303.635 161.878 298.931 164.594 293.84 164.594L224.16 164.594C219.069 164.594 214.365 161.878 211.819 157.469L176.979 97.125Z" stroke="#B8D5EB" stroke-opacity="0.3" stroke-width="1.5"/>
<path d="M263.979 97.125C261.434 92.7161 261.434 87.2839 263.979 82.875L298.819 22.5312C301.365 18.1223 306.069 15.4063 311.16 15.4062L380.84 15.4062C385.931 15.4063 390.635 18.1223 393.181 22.5312L428.021 82.875C430.486 87.1462 430.564 92.3778 428.252 96.709L428.021 97.125L393.181 157.469C390.635 161.878 385.931 164.594 380.84 164.594L311.16 164.594C306.069 164.594 301.365 161.878 298.819 157.469L263.979 97.125Z" stroke="#B8D5EB" stroke-opacity="0.3" stroke-width="1.5"/>
</svg>
