<svg width="219" height="290" viewBox="0 0 219 290" fill="none" xmlns="http://www.w3.org/2000/svg">
<path d="M94.125 285.021C89.7161 287.566 84.2839 287.566 79.875 285.021L19.5312 250.181C15.1223 247.635 12.4063 242.931 12.4062 237.84L12.4062 168.16C12.4063 163.069 15.1223 158.365 19.5312 155.819L79.875 120.98C84.1462 118.514 89.3778 118.436 93.709 120.748L94.125 120.979L154.469 155.819C158.878 158.365 161.594 163.069 161.594 168.16L161.594 237.84C161.594 242.931 158.878 247.635 154.469 250.181L94.125 285.021Z" stroke="#B8D5EB" stroke-opacity="0.3" stroke-width="1.5"/>
<path d="M169.125 244.021C164.716 246.566 159.284 246.566 154.875 244.021L94.5312 209.181C90.1223 206.635 87.4063 201.931 87.4062 196.84L87.4062 127.16C87.4063 122.069 90.1223 117.365 94.5312 114.819L154.875 79.9795C159.146 77.5136 164.378 77.4362 168.709 79.7481L169.125 79.9795L229.469 114.819C233.878 117.365 236.594 122.069 236.594 127.16L236.594 196.84C236.594 201.931 233.878 206.635 229.469 209.181L169.125 244.021Z" stroke="#B8D5EB" stroke-opacity="0.3" stroke-width="1.5"/>
<path d="M243.125 285.021C238.716 287.566 233.284 287.566 228.875 285.021L168.531 250.181C164.122 247.635 161.406 242.931 161.406 237.84L161.406 168.16C161.406 163.069 164.122 158.365 168.531 155.819L228.875 120.98C233.146 118.514 238.378 118.436 242.709 120.748L243.125 120.979L303.469 155.819C307.878 158.365 310.594 163.069 310.594 168.16L310.594 237.84C310.594 242.931 307.878 247.635 303.469 250.181L243.125 285.021Z" stroke="#B8D5EB" stroke-opacity="0.3" stroke-width="1.5"/>
<path d="M169.125 156.021C164.716 158.566 159.284 158.566 154.875 156.021L94.5312 121.181C90.1223 118.635 87.4063 113.931 87.4062 108.84L87.4062 39.1602C87.4063 34.0692 90.1223 29.3648 94.5312 26.8193L154.875 -8.0205C159.146 -10.4864 164.378 -10.5638 168.709 -8.25195L169.125 -8.0205L229.469 26.8193C233.878 29.3648 236.594 34.0692 236.594 39.1602L236.594 108.84C236.594 113.931 233.878 118.635 229.469 121.181L169.125 156.021Z" stroke="#B8D5EB" stroke-opacity="0.3" stroke-width="1.5"/>
<path d="M97.125 113.021C92.7161 115.566 87.2839 115.566 82.875 113.021L22.5312 78.1807C18.1223 75.6352 15.4063 70.9309 15.4062 65.8399L15.4062 -3.83983C15.4063 -8.93083 18.1223 -13.6352 22.5312 -16.1807L82.875 -51.0205C87.1462 -53.4864 92.3778 -53.5638 96.709 -51.2519L97.125 -51.0205L157.469 -16.1807C161.878 -13.6352 164.594 -8.93084 164.594 -3.83984L164.594 65.8398C164.594 70.9308 161.878 75.6352 157.469 78.1807L97.125 113.021Z" stroke="#B8D5EB" stroke-opacity="0.3" stroke-width="1.5"/>
<path d="M97.125 26.0205C92.7161 28.566 87.2839 28.566 82.875 26.0205L22.5312 -8.81932C18.1223 -11.3648 15.4063 -16.0691 15.4062 -21.1601L15.4062 -90.8398C15.4063 -95.9308 18.1223 -100.635 22.5312 -103.181L82.875 -138.02C87.1462 -140.486 92.3778 -140.564 96.709 -138.252L97.125 -138.021L157.469 -103.181C161.878 -100.635 164.594 -95.9308 164.594 -90.8398L164.594 -21.1602C164.594 -16.0692 161.878 -11.3648 157.469 -8.81933L97.125 26.0205Z" stroke="#B8D5EB" stroke-opacity="0.3" stroke-width="1.5"/>
</svg>
