<svg width="106" height="122" viewBox="0 0 106 122" fill="none" xmlns="http://www.w3.org/2000/svg">
<path d="M23 77.1547C24.2376 76.4402 25.7624 76.4402 27 77.1547L37.7224 83.3453C38.96 84.0598 39.7224 85.3803 39.7224 86.8094V99.1906C39.7224 100.62 38.96 101.94 37.7224 102.655L27 108.845C25.7624 109.56 24.2376 109.56 23 108.845L12.2776 102.655C11.04 101.94 10.2776 100.62 10.2776 99.1906V86.8094C10.2776 85.3803 11.04 84.0598 12.2776 83.3453L23 77.1547Z" fill="#2D9BD6"/>
<path d="M63.625 3.3916C65.5828 2.26136 67.9665 2.19084 69.9775 3.17969L70.375 3.3916L101.346 21.2734C103.434 22.4792 104.721 24.7076 104.721 27.1191V62.8809C104.721 65.2924 103.434 67.5208 101.346 68.7266L70.375 86.6084C68.2866 87.8141 65.7134 87.8141 63.625 86.6084L32.6543 68.7266C30.5658 67.5208 29.2793 65.2924 29.2793 62.8809V27.1191C29.2793 24.7076 30.5658 22.4792 32.6543 21.2734L63.625 3.3916Z" stroke="#2681B2" stroke-width="2.5"/>
</svg>
