<svg width="118" height="118" viewBox="0 0 118 118" fill="none" xmlns="http://www.w3.org/2000/svg">
<path d="M-10.625 24.6699C-8.69131 23.5536 -6.30868 23.5536 -4.375 24.6699L26.2969 42.3789C28.2305 43.4953 29.4217 45.5583 29.4219 47.791V83.209C29.4217 85.4417 28.2305 87.5047 26.2969 88.6211L-4.375 106.33C-6.30869 107.446 -8.69132 107.446 -10.625 106.33L-41.2969 88.6211C-43.2305 87.5047 -44.4217 85.4417 -44.4219 83.209V47.791C-44.4217 45.5583 -43.2305 43.4953 -41.2969 42.3789L-10.625 24.6699Z" stroke="#B8D5EB" stroke-width="1.5"/>
<path d="M61.375 39.0928C62.6899 38.3336 64.3101 38.3336 65.625 39.0928L81.8428 48.4561C83.1577 49.2152 83.9678 50.6184 83.9678 52.1367V70.8633C83.9678 72.3816 83.1577 73.7848 81.8428 74.5439L65.625 83.9072C64.3923 84.6189 62.8912 84.6637 61.625 84.041L61.375 83.9072L45.1572 74.5439C43.8423 73.7848 43.0322 72.3816 43.0322 70.8633V52.1367C43.0322 50.6184 43.8423 49.2152 45.1572 48.4561L61.375 39.0928Z" stroke="#B8D5EB" stroke-width="1.5"/>
<path d="M36.375 -75.0205C40.7839 -77.566 46.2161 -77.566 50.625 -75.0205L87.1533 -53.9307C91.5623 -51.3852 94.2783 -46.6808 94.2783 -41.5898V0.589844C94.2783 5.68084 91.5623 10.3852 87.1533 12.9307L50.625 34.0205C46.3538 36.4864 41.1222 36.5638 36.791 34.252L36.375 34.0205L-0.15332 12.9307C-4.56226 10.3852 -7.27829 5.68084 -7.27832 0.589844V-41.5898C-7.27829 -46.6808 -4.56226 -51.3852 -0.15332 -53.9307L36.375 -75.0205Z" stroke="#B8D5EB" stroke-width="1.5"/>
</svg>
