<svg width="126" height="133" viewBox="0 0 126 133" fill="none" xmlns="http://www.w3.org/2000/svg">
<path d="M86.25 80.165C84.5483 79.1826 82.4517 79.1826 80.75 80.165L62.9346 90.4512C61.2329 91.4336 60.1847 93.249 60.1846 95.2139V115.786C60.1847 117.751 61.2329 119.566 62.9346 120.549L80.75 130.835C82.3454 131.756 84.288 131.814 85.9268 131.008L86.25 130.835L104.065 120.549C105.767 119.566 106.815 117.751 106.815 115.786V95.2139C106.815 93.249 105.767 91.4336 104.065 90.4512L86.25 80.165Z" stroke="#2681B2"/>
<path d="M106 42.1547C104.762 41.4402 103.238 41.4402 102 42.1547L91.2776 48.3453C90.04 49.0598 89.2776 50.3803 89.2776 51.8094V64.1906C89.2776 65.6197 90.04 66.9402 91.2776 67.6547L102 73.8453C103.238 74.5598 104.762 74.5598 106 73.8453L116.722 67.6547C117.96 66.9402 118.722 65.6197 118.722 64.1906V51.8094C118.722 50.3803 117.96 49.0598 116.722 48.3453L106 42.1547Z" fill="#2D9BD6"/>
<path d="M42.375 3.3916C40.4172 2.26136 38.0335 2.19084 36.0225 3.17969L35.625 3.3916L4.6543 21.2734C2.56584 22.4792 1.2793 24.7076 1.2793 27.1191V62.8809C1.2793 65.2924 2.56584 67.5208 4.6543 68.7266L35.625 86.6084C37.7134 87.8141 40.2866 87.8141 42.375 86.6084L73.3457 68.7266C75.4342 67.5208 76.7207 65.2924 76.7207 62.8809V27.1191C76.7207 24.7076 75.4342 22.4792 73.3457 21.2734L42.375 3.3916Z" stroke="#2681B2" stroke-width="2.5"/>
</svg>
