<svg width="249" height="1565" viewBox="0 0 249 1565" fill="none" xmlns="http://www.w3.org/2000/svg">
<path d="M347.709 232.43C234.037 243.115 148.874 427.552 139.884 570.14C129.539 734.459 222.865 803.502 183.961 926.28C148.491 1038.32 52.5867 1038.06 31.4173 1120.79C11.9653 1196.82 60.7322 1322.95 331.574 1544.75" stroke="#D4E6F3" stroke-miterlimit="10"/>
<path d="M344.928 1536.09C78.0339 1317.04 27.0438 1190.68 44.018 1113.37C56.6642 1056.08 104.627 1037.15 144.158 994.488C164.455 973.237 180.159 946.422 189.861 916.451C221.705 818.281 171.77 754.726 156.293 646.201C152.28 618.533 151.01 590.31 152.51 562.112C159.74 418.811 235.253 235.795 345.052 221.882" stroke="#D4E6F3" stroke-miterlimit="10"/>
<path d="M358.244 1527.42C95.3185 1311.11 42.1195 1184.59 56.6233 1106.16C67.2889 1048.51 113.14 1028.09 150.836 985.207C170.502 963.366 185.862 936.568 195.744 906.855C227.89 810.157 183.34 747.019 168.976 638.201C165.278 610.543 163.992 582.425 165.14 554.296C170.981 410.285 236.455 228.685 342.379 211.543" stroke="#D4E6F3" stroke-miterlimit="10"/>
<path d="M371.522 1518.76C112.619 1305.25 57.2355 1178.49 69.2177 1098.85C77.9449 1040.81 121.638 1018.99 157.525 975.811C176.546 953.428 191.567 926.668 201.631 897.236C234.085 801.916 194.886 739.404 181.662 630.178C178.229 602.514 176.909 574.467 177.72 546.382C181.957 401.67 237.605 221.501 339.655 201.131" stroke="#D4E6F3" stroke-miterlimit="10"/>
<path d="M384.896 1510.11C129.903 1299.34 72.3671 1172.45 81.8327 1091.53C88.6358 1033.15 130.18 1009.83 164.198 966.366C182.584 943.425 197.284 916.654 207.53 887.455C240.292 793.513 206.467 731.557 194.367 621.876C191.249 594.265 189.918 566.351 190.385 538.381C193.018 392.944 238.861 214.207 337.038 190.586" stroke="#D4E6F3" stroke-miterlimit="10"/>
<path d="M398.221 1501.55C147.182 1293.45 85.621 1166.2 94.4251 1084.2C100.655 1025.66 138.583 1000.65 170.883 956.969C188.603 933.48 202.982 906.699 213.42 877.742C246.49 785.179 218.037 723.826 207.069 613.854C204.216 586.271 202.854 558.45 202.993 530.562C203.946 384.395 240.041 207.096 334.363 180.247" stroke="#D4E6F3" stroke-miterlimit="10"/>
<path d="M411.565 1492.78C164.486 1287.54 102.763 1160.37 106.922 1076.88C110.105 1017.94 147.109 991.433 177.593 947.55C194.64 923.54 208.704 896.746 219.333 868.031C252.712 776.846 229.615 716.025 219.781 605.739C217.216 578.184 215.838 550.453 215.651 522.654C215.001 375.761 241.212 199.889 331.718 169.816" stroke="#D4E6F3" stroke-miterlimit="10"/>
<path d="M424.899 1484.12C181.763 1281.7 117.852 1154.34 119.632 1069.57C120.809 1010.33 155.462 982.158 184.261 938.129C200.619 913.617 214.364 886.798 225.166 858.315C258.871 768.532 241.17 708.247 232.413 597.618C230.4 571.879 228.667 544.431 228.21 514.738C225.901 367.093 242.439 192.687 329.032 159.384" stroke="#D4E6F3" stroke-miterlimit="10"/>
<path d="M438.234 1475.47C199.07 1275.74 133.156 1148.34 132.187 1062.26C131.536 1002.73 163.838 972.86 190.916 928.659C206.577 903.643 220.028 876.785 231.044 848.531C265.058 760.126 252.692 700.418 245.11 589.432C243.338 563.593 241.639 536.217 240.835 506.733C236.871 358.546 243.648 185.483 326.348 148.95" stroke="#D4E6F3" stroke-miterlimit="10"/>
<path d="M451.55 1466.79C216.353 1269.83 148.42 1142.32 144.839 1054.93C142.377 995.129 172.259 963.449 197.619 919.308C212.572 893.824 225.735 866.93 236.968 838.913C271.291 751.863 264.3 692.712 257.757 581.381C256.217 555.559 254.52 528.16 253.389 498.886C247.698 349.801 244.74 178.269 323.585 138.509" stroke="#D4E6F3" stroke-miterlimit="10"/>
<path d="M464.888 1458.14C233.637 1263.94 163.727 1136.31 157.432 1047.67C153.177 987.599 180.595 954.197 204.327 909.937C218.544 883.986 231.414 857.037 242.86 829.249C277.49 743.6 275.855 685.004 270.545 573.319C269.285 547.401 267.564 520.07 266.123 491.031C258.694 341.211 246.044 171.144 321.018 128.109" stroke="#D4E6F3" stroke-miterlimit="10"/>
<path d="M478.223 1449.48C250.941 1258.04 179.034 1130.26 170.031 1040.3C164.006 979.931 188.922 944.78 211.019 900.494C223.713 875.036 236.549 848.957 248.757 819.491C283.676 735.219 287.435 677.181 283.24 565.157C282.238 539.188 280.493 511.902 278.749 483.027C269.581 332.473 247.241 163.847 318.359 117.608" stroke="#D4E6F3" stroke-miterlimit="10"/>
<path d="M491.557 1440.83C268.301 1252.13 194.367 1124.37 182.643 1032.99C174.827 972.331 197.207 935.358 217.707 891.072C229.807 864.939 242.339 838.768 254.648 809.776C289.934 726.887 298.988 669.423 295.931 557.038C295.204 531.019 293.439 503.755 291.362 475.16C280.415 323.891 248.426 156.686 315.689 107.221" stroke="#D4E6F3" stroke-miterlimit="10"/>
<path d="M504.886 1432.22C285.522 1246.24 209.736 1118.23 195.253 1025.69C185.705 964.738 205.472 925.938 224.413 881.655C235.883 854.822 248.127 828.583 260.551 800.161C296.088 718.622 310.572 661.766 308.658 548.927C308.171 522.832 306.382 495.636 304.016 467.254C291.254 315.244 249.613 149.483 313.021 96.7911" stroke="#D4E6F3" stroke-miterlimit="10"/>
<path d="M518.206 1423.5C302.805 1240.33 225.136 1112.25 207.848 1018.36C196.551 957.093 213.684 916.488 231.082 872.256C241.902 844.721 253.901 818.37 266.432 790.353C302.273 710.238 322.117 653.892 321.331 540.808C320.905 513.526 319.313 486.325 316.559 459.312C302.074 306.616 250.847 142.21 310.337 86.3566" stroke="#D4E6F3" stroke-miterlimit="10"/>
<path d="M531.538 1414.84C320.105 1234.42 240.487 1106.08 220.433 1011.12C207.406 949.543 221.867 907.106 237.77 862.811C247.921 834.572 259.672 808.157 272.321 780.639C308.473 701.88 333.689 646.113 334.016 532.737C333.882 505.5 332.283 478.348 329.229 451.45C312.774 297.979 252.029 135.074 307.593 75.8946" stroke="#D4E6F3" stroke-miterlimit="10"/>
<path d="M544.873 1406.19C337.387 1228.53 255.977 1099.92 233.034 1003.73C218.311 941.881 230.026 897.584 244.439 853.414C253.901 824.471 265.461 797.995 278.212 770.951C314.671 693.594 345.244 638.359 346.711 524.575C346.844 497.383 345.219 470.275 341.851 443.494C323.612 289.378 253.238 127.872 305.005 65.4698" stroke="#D4E6F3" stroke-miterlimit="10"/>
<path d="M558.211 1397.51C354.769 1222.62 271.396 1093.94 245.647 996.419C229.199 934.192 238.141 888.126 251.128 844.015C259.869 814.271 271.234 787.804 284.106 761.237C320.834 685.255 356.819 630.603 359.423 516.458C359.809 489.312 358.158 462.245 354.489 435.582C334.373 280.767 254.429 120.665 302.341 55.0362" stroke="#D4E6F3" stroke-miterlimit="10"/>
<path d="M571.545 1388.86C371.965 1216.83 286.862 1087.83 258.319 989.098C240.181 926.536 246.311 878.699 257.933 834.605C265.999 804.227 277.143 777.581 290.114 751.535C327.189 676.934 368.511 622.836 372.191 508.349C372.832 481.251 371.154 454.22 367.184 427.678C345.171 272.164 255.762 113.355 299.752 44.6117" stroke="#D4E6F3" stroke-miterlimit="10"/>
<path d="M584.881 1380.2C389.276 1210.82 302.333 1081.69 270.855 981.787C251.012 918.844 254.289 869.255 264.507 825.175C271.73 794.081 282.818 767.407 295.93 741.816C333.312 668.616 379.989 615.074 384.845 500.229C385.75 473.179 384.045 446.178 379.764 419.762C355.795 263.568 256.828 106.257 297.011 34.1733" stroke="#D4E6F3" stroke-miterlimit="10"/>
<path d="M598.198 1371.53C406.56 1204.91 317.899 1075.56 283.444 974.551C261.931 911.252 262.315 859.932 271.188 815.871C277.587 784.063 288.583 757.312 301.757 732.216C339.468 660.372 391.52 607.386 397.492 492.203C398.641 465.196 396.909 438.217 392.339 411.918C366.249 255.147 258.031 99.1462 294.323 23.7862" stroke="#D4E6F3" stroke-miterlimit="10"/>
<path d="M611.53 1362.9C306.921 1096.99 258.182 921.217 277.883 806.36C299.387 680.977 400.593 639.931 410.208 483.997C421.467 301.071 253.732 105.168 291.66 13.31" stroke="#D4E6F3" stroke-miterlimit="10"/>
</svg>
