<svg width="653" height="1548" viewBox="0 0 653 1548" fill="none" xmlns="http://www.w3.org/2000/svg">
<path d="M22.7852 1531.63C14.71 1470.66 -4.29941 1411.65 -33.3295 1357.43C-102.645 1229.35 -190.583 1205.51 -183.229 1152C-171.859 1069.32 41.3755 1103.25 137.989 960.254C208.865 855.379 182.192 706.766 176 672.361C151.927 538.17 81.7891 491.986 111.72 415.784C133.556 360.017 180.478 360.71 233.981 281.71C271.226 226.712 286.003 171.013 292.685 132.084" stroke="#D4E6F3" stroke-miterlimit="10"/>
<path d="M13.7188 1527.73C5.63595 1466.75 -13.3761 1407.73 -42.4049 1353.5C-111.739 1225.41 -199.658 1201.58 -192.315 1148.09C-180.934 1065.39 32.3001 1099.32 128.904 956.342C199.771 851.438 173.097 702.826 166.925 668.43C142.852 534.239 72.7039 488.075 102.645 411.854C124.481 356.086 171.393 356.798 224.906 277.779C262.16 222.762 276.927 167.083 283.609 128.153" stroke="#D4E6F3" stroke-miterlimit="10"/>
<path d="M4.65234 1523.83C-3.4223 1462.85 -22.4348 1403.83 -51.4713 1349.6C-120.805 1221.51 -208.725 1197.68 -201.371 1144.17C-190.03 1061.55 23.2434 1095.4 119.847 952.422C190.705 847.537 164.031 698.924 157.858 664.529C133.766 530.328 63.6473 484.154 93.5784 407.952C115.415 352.185 162.355 352.888 215.858 273.887C253.112 218.87 267.879 163.191 274.562 124.262" stroke="#D4E6F3" stroke-miterlimit="10"/>
<path d="M-4.39453 1519.89C-12.4873 1458.91 -31.509 1399.9 -60.5467 1345.67C-129.881 1217.58 -217.8 1193.75 -210.456 1140.26C-199.076 1057.56 14.1583 1091.49 110.762 948.509C181.629 843.606 154.956 694.993 148.783 660.597C124.691 526.396 54.5622 480.242 84.5031 404.021C106.339 348.253 153.27 348.975 206.783 269.956C244.037 214.939 258.804 159.26 265.486 120.33" stroke="#D4E6F3" stroke-miterlimit="10"/>
<path d="M-13.4766 1516C-21.5594 1455.03 -40.5714 1396.01 -69.6002 1341.78C-138.924 1213.67 -226.872 1189.85 -219.5 1136.35C-208.13 1053.67 5.11452 1087.58 101.718 944.599C172.585 839.696 145.902 691.102 139.739 656.688C115.638 522.506 45.5184 476.332 75.4495 400.13C97.2857 344.362 144.226 345.066 197.729 266.065C234.984 211.048 249.732 155.359 256.433 116.44" stroke="#D4E6F3" stroke-miterlimit="10"/>
<path d="M-22.5273 1512.08C-30.6174 1451.11 -49.629 1392.09 -78.651 1337.86C-147.985 1209.76 -235.923 1185.92 -228.561 1132.44C-217.21 1049.8 -3.94596 1083.67 92.7427 940.715C163.6 835.831 136.926 687.218 130.754 652.822C106.662 518.622 36.5329 472.467 66.4738 396.246C88.31 340.478 135.241 341.2 188.753 262.181C226.008 207.164 240.756 151.475 247.467 112.537" stroke="#D4E6F3" stroke-miterlimit="10"/>
<path d="M-31.5977 1508.13C-39.6922 1447.16 -58.724 1388.14 -87.7783 1333.93C-157.103 1205.82 -245.051 1182 -237.678 1128.5C-226.327 1045.81 -13.0823 1079.72 83.5216 936.737C154.407 831.844 127.724 683.25 121.561 648.835C97.4595 514.653 27.3403 468.48 57.2714 392.278C79.1076 336.51 126.048 337.213 179.551 258.213C216.787 203.186 231.554 147.507 238.255 108.587" stroke="#D4E6F3" stroke-miterlimit="10"/>
<path d="M-40.5977 1504.29C-48.6723 1443.31 -67.6848 1384.29 -96.7213 1330.07C-166.037 1201.98 -253.975 1178.14 -246.631 1124.65C-235.251 1041.95 -22.0163 1075.88 74.5973 932.885C145.473 828.011 118.8 679.398 112.608 644.992C88.5352 510.801 18.4063 464.647 48.3284 388.416C70.1646 332.648 117.105 333.352 170.589 254.342C207.834 199.343 222.601 143.664 229.293 104.716" stroke="#D4E6F3" stroke-miterlimit="10"/>
<path d="M-49.7344 1500.35C-57.8124 1439.37 -76.8212 1380.34 -105.848 1326.11C-175.164 1198.02 -263.112 1174.2 -255.758 1120.69C-244.407 1038.05 -31.1433 1071.92 65.5168 928.973C136.403 824.08 109.719 675.486 103.537 641.061C79.4547 506.889 9.3168 460.706 39.2479 384.504C61.0841 328.736 108.006 329.43 161.509 250.429C198.763 195.412 213.53 139.733 220.213 100.804" stroke="#D4E6F3" stroke-miterlimit="10"/>
<path d="M-58.7734 1496.39C-66.8856 1435.41 -85.9297 1376.39 -114.992 1322.17C-184.326 1194.07 -272.245 1170.24 -264.891 1116.74C-253.521 1034.05 -40.2865 1067.98 56.3271 924.985C127.203 820.111 100.53 671.498 94.338 637.092C70.265 502.901 0.117351 456.737 30.0582 380.516C51.8944 324.748 98.8165 325.442 152.319 246.441C189.564 191.443 204.331 135.764 211.023 96.8159" stroke="#D4E6F3" stroke-miterlimit="10"/>
<path d="M-67.8164 1492.53C-75.9064 1431.55 -94.9181 1372.53 -123.94 1318.3C-193.274 1190.21 -281.194 1166.38 -273.85 1112.89C-262.479 1030.21 -49.2351 1064.12 47.3688 921.14C118.236 816.237 91.5525 667.643 85.3895 633.229C61.3067 499.057 -8.83121 452.873 21.1096 376.652C42.936 320.904 89.8581 321.597 143.37 242.578C180.625 187.561 195.392 131.882 202.074 92.9523" stroke="#D4E6F3" stroke-miterlimit="10"/>
<path d="M-76.9219 1488.61C-85.0047 1427.63 -104.017 1368.61 -133.046 1314.38C-202.38 1186.29 -290.299 1162.46 -282.945 1108.95C-271.575 1026.27 -58.3405 1060.2 38.2731 917.202C109.13 812.317 82.4568 663.705 76.284 629.309C52.1922 495.108 -17.9367 448.953 12.0042 372.732C33.8403 316.965 80.7811 317.668 134.284 238.668C171.528 183.669 186.296 127.99 192.988 89.042" stroke="#D4E6F3" stroke-miterlimit="10"/>
<path d="M-85.9531 1484.65C-94.0504 1423.67 -113.062 1364.66 -142.077 1310.42C-211.411 1182.33 -299.33 1158.5 -291.986 1105.01C-280.617 1022.38 -67.2968 1056.28 29.2127 913.298C100.08 808.395 73.3964 659.801 67.2334 625.386C43.1318 491.204 -26.9874 445.031 2.95346 368.81C24.7799 313.061 71.7207 313.764 125.233 234.745C162.488 179.728 177.236 124.039 183.937 85.1194" stroke="#D4E6F3" stroke-miterlimit="10"/>
<path d="M-95.0469 1480.79C-103.13 1419.81 -122.142 1360.79 -151.171 1306.56C-220.504 1178.47 -308.443 1154.63 -301.07 1101.13C-289.7 1018.45 -76.4655 1052.38 20.1481 909.38C91.0054 804.495 64.3318 655.882 58.1493 621.505C34.0575 487.305 -36.0714 441.15 -6.13057 364.929C15.7056 309.161 62.6464 309.864 116.149 230.864C153.394 175.866 168.142 120.177 174.853 81.2384" stroke="#D4E6F3" stroke-miterlimit="10"/>
<path d="M-104.102 1476.86C-112.192 1415.89 -131.203 1356.87 -160.225 1302.64C-229.559 1174.55 -317.497 1150.71 -310.135 1097.23C-298.774 1014.56 -85.5202 1048.45 11.065 905.467C81.9319 800.563 55.2486 651.969 49.0856 617.555C24.984 483.373 -45.1351 437.199 -15.1943 360.978C6.63216 305.23 53.5729 305.933 107.085 226.914C144.321 171.887 159.088 116.208 165.789 77.2881" stroke="#D4E6F3" stroke-miterlimit="10"/>
<path d="M-113.156 1472.89C-121.224 1411.91 -140.237 1352.89 -169.28 1298.67C-238.595 1170.59 -326.533 1146.75 -319.161 1093.25C-307.839 1010.61 -94.5187 1044.52 2.00953 901.545C72.8855 796.67 46.212 648.058 40.0392 613.662C15.9474 479.461 -54.1815 433.306 -24.2407 357.085C-2.40448 301.318 44.5363 302.021 98.0389 223.021C135.265 168.013 150.032 112.333 156.743 73.395" stroke="#D4E6F3" stroke-miterlimit="10"/>
<path d="M-122.262 1469.02C-130.336 1408.04 -149.349 1349.02 -178.385 1294.8C-247.701 1166.71 -335.639 1142.87 -328.295 1089.38C-316.925 1006.7 -103.68 1040.61 -7.0765 897.635C63.8092 792.741 37.1259 644.147 30.9442 609.723C6.86136 475.551 -63.2766 429.367 -33.3358 353.146C-11.4996 297.379 35.4128 298.091 88.925 219.072C126.18 164.055 140.947 108.376 147.629 69.4465" stroke="#D4E6F3" stroke-miterlimit="10"/>
<path d="M-131.309 1465.13C-139.383 1404.15 -158.396 1345.13 -187.432 1290.9C-256.747 1162.82 -344.686 1138.98 -337.332 1085.47C-325.972 1002.81 -112.727 1036.72 -16.1511 893.704C54.7249 788.829 28.0514 640.216 21.8598 605.811C-2.21323 471.62 -72.3609 425.455 -42.4201 349.234C-20.5839 293.467 26.3381 294.16 79.8406 215.16C117.085 160.162 131.853 104.482 138.545 65.5343" stroke="#D4E6F3" stroke-miterlimit="10"/>
<path d="M-140.336 1461.15C-148.419 1400.17 -167.431 1341.15 -196.46 1286.93C-265.794 1158.83 -353.713 1135 -346.369 1081.51C-335.066 998.869 -121.736 1032.75 -25.1799 889.82C45.6871 784.916 19.0135 636.304 12.8408 601.908C-11.242 467.736 -81.38 421.553 -51.4391 345.332C-29.603 289.564 17.3094 290.276 70.8216 211.257C108.076 156.24 122.843 100.561 129.525 61.6314" stroke="#D4E6F3" stroke-miterlimit="10"/>
<path d="M-149.492 1457.28C-157.567 1396.3 -176.579 1337.28 -205.616 1283.05C-274.95 1154.96 -362.869 1131.13 -355.516 1077.62C-344.145 994.941 -130.911 1028.87 -34.2972 885.872C36.6163 781.016 9.94271 632.404 3.76994 598.008C-20.3219 463.807 -90.4508 417.653 -60.51 341.432C-38.6738 285.664 8.26699 286.367 61.7695 207.367C99.0144 152.369 113.781 96.6893 120.473 57.7411" stroke="#D4E6F3" stroke-miterlimit="10"/>
<path d="M-158.488 1453.38C-166.571 1392.41 -185.583 1333.39 -214.612 1279.16C-283.946 1151.07 -371.865 1127.24 -364.522 1073.75C-353.151 991.067 -139.907 1024.98 -43.378 881.959C27.489 777.056 0.815421 628.443 -5.35735 594.047C-29.4589 459.865 -99.5781 413.692 -69.6372 337.471C-47.8011 281.703 -0.870021 282.425 52.6422 203.406C89.8968 148.389 104.664 92.7098 111.346 53.7804" stroke="#D4E6F3" stroke-miterlimit="10"/>
<path d="M-167.523 1449.41C-175.606 1388.43 -194.618 1329.41 -223.647 1275.18C-292.981 1147.09 -380.919 1123.25 -373.547 1069.75C-362.291 987.108 -148.961 1020.99 -52.3674 878.078C18.4899 773.193 -8.18366 624.58 -14.3564 590.184C-38.4482 455.984 -108.577 409.829 -78.6362 333.608C-56.8 277.84 -9.85928 278.544 43.6432 199.543C80.8881 144.545 95.6461 88.8373 102.347 49.9176" stroke="#D4E6F3" stroke-miterlimit="10"/>
<path d="M-176.711 1445.51C-184.801 1384.54 -203.813 1325.52 -232.835 1271.29C-302.169 1143.2 -390.107 1119.36 -382.744 1065.88C-371.374 983.196 -158.13 1017.11 -61.5257 874.127C9.435 769.272 -17.2385 620.66 -23.4113 586.264C-47.5031 452.063 -117.632 405.908 -87.6912 329.687C-65.855 273.92 -18.924 274.642 34.5883 195.623C71.8429 140.606 86.5912 84.9166 93.2922 45.997" stroke="#D4E6F3" stroke-miterlimit="10"/>
<path d="M-185.703 1441.65C-193.773 1380.68 -212.779 1321.66 -241.808 1267.44C-311.142 1139.34 -399.08 1115.5 -391.708 1062C-380.356 979.314 -167.122 1013.24 -70.4894 870.255C0.367859 765.37 -26.3057 616.757 -32.4785 582.362C-56.5703 448.161 -126.689 401.987 -96.7584 325.785C-74.9222 270.018 -27.9813 270.721 25.5212 191.72C62.7473 136.712 77.524 81.0144 84.2251 42.0947" stroke="#D4E6F3" stroke-miterlimit="10"/>
<path d="M-194.715 1437.66C-202.789 1376.68 -221.802 1317.66 -250.838 1263.43C-320.154 1135.35 -408.092 1111.51 -400.748 1058.02C-389.501 975.346 -176.171 1009.23 -79.5685 866.344C-8.68275 761.451 -35.3563 612.838 -41.5478 578.432C-65.6209 444.242 -135.75 398.087 -105.828 321.856C-83.9915 266.088 -37.0604 266.81 16.4331 187.782C53.6877 132.764 68.4547 77.0853 75.1369 38.1559" stroke="#D4E6F3" stroke-miterlimit="10"/>
<path d="M-203.82 1433.83C-211.895 1372.85 -230.907 1313.83 -259.944 1259.6C-329.259 1131.52 -417.197 1107.68 -409.844 1054.17C-398.474 971.492 -185.229 1005.4 -88.6253 862.423C-17.7493 757.548 -44.3667 608.964 -50.6047 574.511C-74.6875 440.339 -144.825 394.155 -114.894 317.953C-93.0581 262.186 -46.1361 262.879 7.36645 183.879C44.621 128.862 59.3881 73.1824 66.0704 34.253" stroke="#D4E6F3" stroke-miterlimit="10"/>
<path d="M-212.883 1429.91C-220.966 1368.93 -239.978 1309.91 -269.006 1255.68C-338.34 1127.59 -426.26 1103.76 -418.916 1050.27C-407.536 967.572 -194.301 1001.5 -97.6976 858.521C-26.8118 753.628 -53.4854 605.015 -59.6769 570.61C-83.75 436.419 -153.898 390.254 -123.957 314.033C-102.121 258.266 -55.2083 258.978 -1.69599 179.959C35.5586 124.942 50.3256 69.2625 57.0079 30.3331" stroke="#D4E6F3" stroke-miterlimit="10"/>
</svg>
