<svg width="197" height="473" viewBox="0 0 197 473" fill="none" xmlns="http://www.w3.org/2000/svg">
<path d="M-31.875 131.979C-36.2839 129.434 -41.7161 129.434 -46.125 131.979L-106.469 166.819C-110.878 169.365 -113.594 174.069 -113.594 179.16V248.84C-113.594 253.931 -110.878 258.635 -106.469 261.181L-46.125 296.021C-41.8538 298.486 -36.6222 298.564 -32.291 296.252L-31.875 296.021L28.4688 261.181C32.8777 258.635 35.5937 253.931 35.5938 248.84V179.16C35.5937 174.069 32.8777 169.365 28.4688 166.819L-31.875 131.979Z" stroke="#B8D5EB" stroke-opacity="0.47" stroke-width="1.5"/>
<path d="M43.125 172.979C38.7161 170.434 33.2839 170.434 28.875 172.979L-31.4688 207.819C-35.8777 210.365 -38.5937 215.069 -38.5938 220.16V289.84C-38.5937 294.931 -35.8777 299.635 -31.4688 302.181L28.875 337.021C33.1462 339.486 38.3778 339.564 42.709 337.252L43.125 337.021L103.469 302.181C107.878 299.635 110.594 294.931 110.594 289.84V220.16C110.594 215.069 107.878 210.365 103.469 207.819L43.125 172.979Z" stroke="#B8D5EB" stroke-opacity="0.47" stroke-width="1.5"/>
<path d="M117.125 131.979C112.716 129.434 107.284 129.434 102.875 131.979L42.5312 166.819C38.1223 169.365 35.4063 174.069 35.4062 179.16V248.84C35.4063 253.931 38.1223 258.635 42.5312 261.181L102.875 296.021C107.146 298.486 112.378 298.564 116.709 296.252L117.125 296.021L177.469 261.181C181.878 258.635 184.594 253.931 184.594 248.84V179.16C184.594 174.069 181.878 169.365 177.469 166.819L117.125 131.979Z" stroke="#B8D5EB" stroke-opacity="0.47" stroke-width="1.5"/>
<path d="M43.125 260.979C38.7161 258.434 33.2839 258.434 28.875 260.979L-31.4688 295.819C-35.8777 298.365 -38.5937 303.069 -38.5938 308.16V377.84C-38.5937 382.931 -35.8777 387.635 -31.4688 390.181L28.875 425.021C33.1462 427.486 38.3778 427.564 42.709 425.252L43.125 425.021L103.469 390.181C107.878 387.635 110.594 382.931 110.594 377.84V308.16C110.594 303.069 107.878 298.365 103.469 295.819L43.125 260.979Z" stroke="#B8D5EB" stroke-opacity="0.47" stroke-width="1.5"/>
<path d="M43.125 2.97949C38.7161 0.434026 33.2839 0.434026 28.875 2.97949L-31.4688 37.8193C-35.8777 40.3648 -38.5937 45.0692 -38.5938 50.1602V119.84C-38.5937 124.931 -35.8777 129.635 -31.4688 132.181L28.875 167.021C33.1462 169.486 38.3778 169.564 42.709 167.252L43.125 167.021L103.469 132.181C107.878 129.635 110.594 124.931 110.594 119.84V50.1602C110.594 45.0692 107.878 40.3648 103.469 37.8193L43.125 2.97949Z" stroke="#B8D5EB" stroke-opacity="0.47" stroke-width="1.5"/>
<path d="M-28.875 303.979C-33.2839 301.434 -38.7161 301.434 -43.125 303.979L-103.469 338.819C-107.878 341.365 -110.594 346.069 -110.594 351.16V420.84C-110.594 425.931 -107.878 430.635 -103.469 433.181L-43.125 468.021C-38.8538 470.486 -33.6222 470.564 -29.291 468.252L-28.875 468.021L31.4688 433.181C35.8777 430.635 38.5937 425.931 38.5938 420.84V351.16C38.5937 346.069 35.8777 341.365 31.4688 338.819L-28.875 303.979Z" stroke="#B8D5EB" stroke-opacity="0.47" stroke-width="1.5"/>
</svg>
