<svg width="1920" height="1092" viewBox="0 0 1920 1092" fill="none" xmlns="http://www.w3.org/2000/svg">
<g clip-path="url(#clip0_366_3399)">
<rect width="1920" height="1092" fill="#214C9F"/>
<g filter="url(#filter0_f_366_3399)">
<path fill-rule="evenodd" clip-rule="evenodd" d="M1717.38 502.666C1666.86 479.132 1640.09 424.96 1602.01 384.108C1568.02 347.65 1523.37 319.752 1503.92 273.701C1484.6 227.941 1498.42 176.111 1493.26 126.602C1487.38 70.2048 1450.68 13.0028 1471.23 -39.8977C1491.55 -92.1976 1551.3 -116.345 1598.97 -145.498C1643.37 -172.65 1690.11 -194.856 1741.03 -204.888C1791.59 -214.851 1844.67 -219.677 1893.53 -203.536C1941.36 -187.739 1976.86 -149.286 2013.72 -114.816C2049.15 -81.6812 2084.46 -48.174 2106.2 -4.65022C2128.34 39.6624 2133.4 89.184 2140.2 138.371C2147.91 194.141 2177.85 256.615 2149.01 304.998C2119.63 354.277 2041.17 342.783 1996.79 378.932C1950.81 416.393 1942.33 493.483 1888.21 517.445C1835.13 540.953 1769.85 527.113 1717.38 502.666Z" fill="#73BCE4"/>
</g>
<g filter="url(#filter1_f_366_3399)">
<path fill-rule="evenodd" clip-rule="evenodd" d="M126.658 1142.97C56.4034 1110.24 19.173 1034.9 -33.7945 978.084C-81.0636 927.381 -143.159 888.583 -170.207 824.537C-197.083 760.898 -177.859 688.816 -185.035 619.962C-193.211 541.528 -244.248 461.975 -215.666 388.404C-187.409 315.668 -104.319 282.086 -38.0202 241.541C23.7276 203.78 88.7324 172.898 159.548 158.945C229.872 145.09 303.685 138.379 371.643 160.826C438.155 182.795 487.525 236.274 538.786 284.212C588.062 330.294 637.174 376.894 667.412 437.424C698.199 499.051 705.234 567.923 714.69 636.33C725.412 713.891 767.054 800.776 726.942 868.063C686.087 936.597 576.965 920.613 515.251 970.886C451.297 1022.98 439.5 1130.2 364.246 1163.52C290.418 1196.22 199.635 1176.97 126.658 1142.97Z" fill="#73BCE4"/>
</g>
<path d="M379.875 432.979C384.284 430.434 389.716 430.434 394.125 432.979L514.225 502.319C518.634 504.865 521.35 509.569 521.35 514.66V653.34C521.35 658.431 518.634 663.135 514.225 665.681L394.125 735.021C389.854 737.486 384.622 737.564 380.291 735.252L379.875 735.021L259.775 665.681C255.366 663.135 252.65 658.431 252.65 653.34V514.66C252.65 509.569 255.366 504.865 259.775 502.319L379.875 432.979Z" stroke="#B8D5EB" stroke-opacity="0.28" stroke-width="1.5"/>
<path d="M245.875 291.979C250.284 289.434 255.716 289.434 260.125 291.979L380.225 361.319C384.634 363.865 387.35 368.569 387.35 373.66V512.34C387.35 517.431 384.634 522.135 380.225 524.681L260.125 594.021C255.854 596.486 250.622 596.564 246.291 594.252L245.875 594.021L125.775 524.681C121.366 522.135 118.65 517.431 118.65 512.34V373.66C118.65 368.569 121.366 363.865 125.775 361.319L245.875 291.979Z" stroke="#B8D5EB" stroke-opacity="0.28" stroke-width="1.5"/>
<path d="M111.375 365.979C115.646 363.514 120.878 363.436 125.209 365.748L125.625 365.979L245.292 435.069C249.701 437.615 252.417 442.319 252.417 447.41V585.59C252.417 590.681 249.701 595.385 245.292 597.931L125.625 667.021C121.354 669.486 116.122 669.564 111.791 667.252L111.375 667.021L-8.29199 597.931C-12.7009 595.385 -15.417 590.681 -15.417 585.59V447.41C-15.417 442.319 -12.7009 437.615 -8.29199 435.069L111.375 365.979Z" stroke="#B8D5EB" stroke-opacity="0.28" stroke-width="1.5"/>
<path d="M245.375 133.979C249.646 131.514 254.878 131.436 259.209 133.748L259.625 133.979L379.292 203.069C383.701 205.615 386.417 210.319 386.417 215.41V353.59C386.417 358.681 383.701 363.385 379.292 365.931L259.625 435.021C255.354 437.486 250.122 437.564 245.791 435.252L245.375 435.021L125.708 365.931C121.299 363.385 118.583 358.681 118.583 353.59V215.41C118.583 210.319 121.299 205.615 125.708 203.069L245.375 133.979Z" stroke="#B8D5EB" stroke-opacity="0.28" stroke-width="1.5"/>
<path d="M-23.125 291.979C-18.7161 289.434 -13.2839 289.434 -8.875 291.979L111.225 361.319C115.634 363.865 118.35 368.569 118.35 373.66V512.34C118.35 517.431 115.634 522.135 111.225 524.681L-8.875 594.021C-13.1462 596.486 -18.3778 596.564 -22.709 594.252L-23.125 594.021L-143.225 524.681C-147.634 522.135 -150.35 517.431 -150.35 512.34V373.66C-150.35 368.569 -147.634 363.865 -143.225 361.319L-23.125 291.979Z" stroke="#B8D5EB" stroke-opacity="0.28" stroke-width="1.5"/>
<path d="M111.375 523.979C115.646 521.514 120.878 521.436 125.209 523.748L125.625 523.979L245.292 593.069C249.701 595.615 252.417 600.319 252.417 605.41V743.59C252.417 748.681 249.701 753.385 245.292 755.931L125.625 825.021C121.354 827.486 116.122 827.564 111.791 825.252L111.375 825.021L-8.29199 755.931C-12.7009 753.385 -15.417 748.681 -15.417 743.59V605.41C-15.417 600.319 -12.7009 595.615 -8.29199 593.069L111.375 523.979Z" stroke="#B8D5EB" stroke-opacity="0.28" stroke-width="1.5"/>
<path d="M112.875 58.9795C117.284 56.434 122.716 56.434 127.125 58.9795L247.225 128.319C251.634 130.865 254.35 135.569 254.35 140.66V279.34C254.35 284.431 251.634 289.135 247.225 291.681L127.125 361.021C122.854 363.486 117.622 363.564 113.291 361.252L112.875 361.021L-7.22461 291.681C-11.6335 289.135 -14.3496 284.431 -14.3496 279.34V140.66C-14.3496 135.569 -11.6335 130.865 -7.22461 128.319L112.875 58.9795Z" stroke="#B8D5EB" stroke-opacity="0.28" stroke-width="1.5"/>
<path d="M240.875 599.979C245.284 597.434 250.716 597.434 255.125 599.979L375.225 669.319C379.634 671.865 382.35 676.569 382.35 681.66V820.34C382.35 825.431 379.634 830.135 375.225 832.681L255.125 902.021C250.854 904.486 245.622 904.564 241.291 902.252L240.875 902.021L120.775 832.681C116.366 830.135 113.65 825.431 113.65 820.34V681.66C113.65 676.569 116.366 671.865 120.775 669.319L240.875 599.979Z" stroke="#B8D5EB" stroke-opacity="0.28" stroke-width="1.5"/>
<path d="M1877.62 191.67C1875.69 190.554 1873.31 190.554 1871.38 191.67L1795.67 235.379C1793.74 236.495 1792.55 238.558 1792.54 240.791V328.209C1792.55 330.442 1793.74 332.505 1795.67 333.621L1871.38 377.33C1873.19 378.377 1875.4 378.442 1877.26 377.526L1877.62 377.33L1953.33 333.621C1955.26 332.505 1956.45 330.442 1956.46 328.209V240.791C1956.45 238.558 1955.26 236.495 1953.33 235.379L1877.62 191.67Z" stroke="#B8D5EB" stroke-opacity="0.28" stroke-width="1.5"/>
<path d="M1721.12 224.093C1719.81 223.334 1718.19 223.334 1716.88 224.093L1675.11 248.206C1673.79 248.965 1672.98 250.368 1672.98 251.887V300.113C1672.98 301.632 1673.79 303.035 1675.11 303.794L1716.88 327.907C1718.19 328.666 1719.81 328.666 1721.12 327.907L1762.89 303.794C1764.21 303.035 1765.02 301.632 1765.02 300.113V251.887C1765.02 250.368 1764.21 248.965 1762.89 248.206L1721.12 224.093Z" stroke="#B8D5EB" stroke-opacity="0.28" stroke-width="1.5"/>
<path d="M1770.12 -30.0205C1765.85 -32.4864 1760.62 -32.5638 1756.29 -30.252L1755.88 -30.0205L1657.43 26.8193C1653.02 29.3648 1650.3 34.0692 1650.3 39.1602V152.84C1650.3 157.931 1653.02 162.635 1657.43 165.181L1755.88 222.021C1760.15 224.486 1765.38 224.564 1769.71 222.252L1770.12 222.021L1868.57 165.181C1872.98 162.635 1875.7 157.931 1875.7 152.84V39.1602C1875.7 34.0692 1872.98 29.3648 1868.57 26.8193L1770.12 -30.0205Z" stroke="#B8D5EB" stroke-opacity="0.28" stroke-width="1.5"/>
<path d="M1454.62 712.33C1452.69 713.446 1450.31 713.446 1448.38 712.33L1372.67 668.621C1370.74 667.505 1369.55 665.442 1369.54 663.209V575.791C1369.55 573.558 1370.74 571.495 1372.67 570.379L1448.38 526.67C1450.19 525.623 1452.4 525.558 1454.26 526.474L1454.62 526.67L1530.33 570.379C1532.26 571.495 1533.45 573.558 1533.46 575.791V663.209C1533.45 665.442 1532.26 667.505 1530.33 668.621L1454.62 712.33Z" stroke="#B8D5EB" stroke-opacity="0.28" stroke-width="1.5"/>
<path d="M1298.12 679.907C1296.81 680.666 1295.19 680.666 1293.88 679.907L1252.11 655.794C1250.79 655.035 1249.98 653.632 1249.98 652.113V603.887C1249.98 602.368 1250.79 600.965 1252.11 600.206L1293.88 576.093C1295.19 575.334 1296.81 575.334 1298.12 576.093L1339.89 600.206C1341.21 600.965 1342.02 602.368 1342.02 603.887V652.113C1342.02 653.632 1341.21 655.035 1339.89 655.794L1298.12 679.907Z" stroke="#B8D5EB" stroke-opacity="0.28" stroke-width="1.5"/>
<path d="M1347.12 934.021C1342.85 936.486 1337.62 936.564 1333.29 934.252L1332.88 934.021L1234.43 877.181C1230.02 874.635 1227.3 869.931 1227.3 864.84V751.16C1227.3 746.069 1230.02 741.365 1234.43 738.819L1332.88 681.979C1337.15 679.514 1342.38 679.436 1346.71 681.748L1347.12 681.979L1445.57 738.819C1449.98 741.365 1452.7 746.069 1452.7 751.16V864.84C1452.7 869.931 1449.98 874.635 1445.57 877.181L1347.12 934.021Z" stroke="#B8D5EB" stroke-opacity="0.28" stroke-width="1.5"/>
</g>
<defs>
<filter id="filter0_f_366_3399" x="915.043" y="-764.044" width="1796.26" height="1843.6" filterUnits="userSpaceOnUse" color-interpolation-filters="sRGB">
<feFlood flood-opacity="0" result="BackgroundImageFix"/>
<feBlend mode="normal" in="SourceGraphic" in2="BackgroundImageFix" result="shape"/>
<feGaussianBlur stdDeviation="275" result="effect1_foregroundBlur_366_3399"/>
</filter>
<filter id="filter1_f_366_3399" x="-774.277" y="-403.787" width="2068.31" height="2134.16" filterUnits="userSpaceOnUse" color-interpolation-filters="sRGB">
<feFlood flood-opacity="0" result="BackgroundImageFix"/>
<feBlend mode="normal" in="SourceGraphic" in2="BackgroundImageFix" result="shape"/>
<feGaussianBlur stdDeviation="275" result="effect1_foregroundBlur_366_3399"/>
</filter>
<clipPath id="clip0_366_3399">
<rect width="1920" height="1092" fill="white"/>
</clipPath>
</defs>
</svg>
