<svg width="235" height="1296" viewBox="0 0 235 1296" fill="none" xmlns="http://www.w3.org/2000/svg">
<path d="M-94.903 1100.16C14.4668 1088.88 95.6572 935.645 103.705 818.426C112.966 683.344 22.8419 628.735 59.7683 527.117C93.4343 434.383 185.748 432.487 205.773 364.125C224.174 301.299 176.698 198.859 -84.9413 22.7958" stroke="#D4E6F3" stroke-miterlimit="10"/>
<path d="M-98.144 30.066C159.68 203.965 209.296 306.547 193.286 370.368C181.356 417.667 135.27 434.257 97.4021 470.137C77.956 488.024 62.9538 510.377 53.7426 535.188C23.5078 616.455 71.8421 667.515 87.1992 756.24C91.1797 778.858 92.5217 801.992 91.1978 825.167C84.8464 942.932 12.9391 1094.79 -92.6866 1108.63" stroke="#D4E6F3" stroke-miterlimit="10"/>
<path d="M-111.308 37.3576C142.685 209.091 194.427 311.757 180.8 376.44C170.778 423.987 126.732 441.751 90.6299 477.777C71.7935 496.135 57.1231 518.466 47.7371 543.069C17.2059 623.135 60.355 673.971 74.6427 762.961C78.3197 785.578 79.6763 808.626 78.6908 831.737C73.6802 950.053 11.4295 1100.53 -90.4532 1116.93" stroke="#D4E6F3" stroke-miterlimit="10"/>
<path d="M-124.435 44.6312C125.674 214.16 179.521 316.966 168.326 382.589C160.172 430.421 118.208 449.283 83.8485 485.513C65.6354 504.301 51.2904 526.593 41.7284 550.969C10.8945 629.911 48.8912 680.352 62.0831 769.701C65.505 792.329 66.8938 815.318 66.2323 838.385C62.769 957.242 9.96954 1106.33 -88.1708 1125.29" stroke="#D4E6F3" stroke-miterlimit="10"/>
<path d="M-137.652 51.9007C108.687 219.267 164.607 322.136 155.84 388.756C149.539 436.815 109.649 456.871 77.0896 493.287C59.4896 512.519 45.4531 534.814 35.7151 559.003C4.57795 636.821 37.3994 686.923 49.5114 776.671C52.6302 799.263 54.0303 822.142 53.6993 845.107C51.7819 964.524 8.41427 1112.22 -85.9867 1133.77" stroke="#D4E6F3" stroke-miterlimit="10"/>
<path d="M-150.825 59.0956C91.7077 224.355 151.507 327.436 143.38 394.925C137.631 443.101 101.228 464.465 70.3216 501.024C53.3638 520.691 39.6365 542.987 29.7122 566.981C-1.7288 643.675 25.9208 693.401 36.9452 783.413C39.8089 805.987 41.2374 828.79 41.2218 851.68C40.9248 971.66 6.93284 1117.96 -83.7476 1142.07" stroke="#D4E6F3" stroke-miterlimit="10"/>
<path d="M-164.012 66.4624C74.7094 229.462 134.667 332.473 131.017 401.079C128.204 449.525 92.694 472.094 63.5355 508.779C47.2271 528.859 33.8017 551.159 23.6921 574.959C-8.05308 650.529 14.4386 699.936 24.3738 790.231C26.9598 812.789 28.4044 835.517 28.7018 858.328C29.9509 978.868 5.46563 1123.78 -81.5323 1150.46" stroke="#D4E6F3" stroke-miterlimit="10"/>
<path d="M-177.191 73.7333C57.7341 234.512 119.802 337.626 118.448 407.243C117.566 455.881 84.3255 479.767 56.7873 516.535C41.1436 537.012 28.0253 559.326 17.7476 582.939C-14.319 657.366 2.97691 706.452 11.8773 797.052C13.9246 818.132 15.7087 840.621 16.2753 864.98C19.125 986.101 3.94375 1129.6 -79.2779 1158.84" stroke="#D4E6F3" stroke-miterlimit="10"/>
<path d="M-190.366 81.0043C40.7428 239.658 104.744 342.771 106.042 413.395C106.922 462.237 75.949 487.459 50.0665 524.332C35.0946 545.207 22.2583 567.546 11.7718 590.976C-20.6 664.279 -8.44104 713.01 -0.670218 803.93C1.14558 825.097 2.89713 847.527 3.79644 871.707C8.24222 993.238 2.45141 1135.42 -77.0145 1167.22" stroke="#D4E6F3" stroke-miterlimit="10"/>
<path d="M-203.522 88.2961C23.7757 244.766 89.7262 347.919 93.5449 419.564C96.1701 468.589 67.5316 495.247 43.3016 532.032C29.0117 553.276 16.4516 575.638 5.75505 598.879C-26.9237 671.077 -19.9414 719.47 -13.1681 810.696C-11.5761 831.855 -9.82592 854.304 -8.61253 878.305C-2.50013 1000.53 1.07597 1141.25 -74.6714 1175.61" stroke="#D4E6F3" stroke-miterlimit="10"/>
<path d="M-216.698 95.5673C6.81236 249.856 74.6754 353.065 81.1131 425.677C85.4652 474.886 59.2046 502.904 36.5398 539.751C22.9593 561.363 10.6808 583.763 -0.223658 606.822C-33.2072 677.877 -31.3836 725.932 -25.7961 817.477C-24.4729 838.721 -22.6993 861.114 -21.1888 884.915C-13.3986 1007.71 -0.495574 1147.01 -72.5098 1183.98" stroke="#D4E6F3" stroke-miterlimit="10"/>
<path d="M-229.869 102.838C-10.1643 254.963 59.63 358.25 68.6827 431.886C74.742 481.298 50.8952 510.696 29.8018 547.529C17.6848 568.702 5.43284 590.388 -6.19914 614.841C-39.4709 684.774 -42.8446 732.49 -38.3294 824.339C-37.2534 845.63 -35.4578 867.986 -33.6548 891.646C-24.1862 1015.01 -1.95545 1152.91 -70.2508 1192.43" stroke="#D4E6F3" stroke-miterlimit="10"/>
<path d="M-243.038 110.11C-27.1905 260.07 44.5666 363.3 56.2478 438.038C64.0336 487.653 42.6333 518.49 23.0755 555.289C11.5312 577.003 -0.428372 598.758 -12.162 622.824C-45.7974 691.631 -54.275 738.993 -50.8526 831.164C-50.0425 852.503 -48.2264 874.841 -46.1044 898.264C-34.9178 1022.18 -3.39521 1158.7 -67.9738 1200.78" stroke="#D4E6F3" stroke-miterlimit="10"/>
<path d="M-256.203 117.343C-44.0816 265.161 29.4724 368.559 43.8188 444.19C53.2757 494.006 34.397 526.286 16.3375 563.048C5.40184 585.324 -6.28275 607.129 -18.1307 630.73C-52.0201 698.435 -65.7325 745.418 -63.4094 837.988C-62.8293 859.395 -60.9896 881.677 -58.5905 904.92C-45.6494 1029.4 -4.82986 1164.53 -65.6918 1209.17" stroke="#D4E6F3" stroke-miterlimit="10"/>
<path d="M-269.352 124.673C-61.0198 270.271 14.3649 373.685 31.4215 450.364C42.5676 500.4 26.2311 534.105 9.65444 570.792C-0.654136 593.63 -12.1044 615.521 -24.0592 638.793C-58.255 705.336 -77.1359 752.02 -75.8985 844.818C-75.3726 867.201 -73.7223 889.491 -70.9543 911.602C-56.348 1036.61 -6.28922 1170.42 -63.3742 1217.57" stroke="#D4E6F3" stroke-miterlimit="10"/>
<path d="M-282.517 131.944C-77.9741 275.38 -0.693624 378.966 19.0373 456.461C31.8549 506.717 18.097 541.867 2.9582 578.573C-6.70459 601.974 -17.9176 623.914 -29.9922 646.779C-64.5001 712.218 -88.5663 758.545 -88.3994 851.609C-88.1546 873.962 -86.4981 896.212 -83.4402 918.222C-66.9294 1043.83 -7.69159 1176.2 -60.9917 1225.99" stroke="#D4E6F3" stroke-miterlimit="10"/>
<path d="M-295.675 139.215C-94.8972 280.471 -15.8685 384.242 6.65862 462.693C21.1145 513.13 10.0094 549.747 -3.69773 586.319C-12.696 610.284 -23.7281 632.269 -35.9057 654.747C-70.7239 719.045 -99.963 765.054 -100.894 858.479C-100.906 880.802 -99.2237 903.016 -95.8631 924.924C-77.6255 1051.02 -9.09655 1182.03 -58.7363 1234.39" stroke="#D4E6F3" stroke-miterlimit="10"/>
<path d="M-308.769 146.506C-111.696 285.587 -30.6902 389.386 -5.42641 468.871C10.7112 519.59 2.27823 557.601 -10.0669 594.096C-18.3758 618.705 -29.2307 640.681 -41.5399 662.772C-76.6605 725.953 -111.155 771.607 -113.182 865.362C-113.44 887.654 -111.731 909.837 -108.077 931.644C-88.0052 1058.28 -10.1746 1187.95 -56.1324 1242.87" stroke="#D4E6F3" stroke-miterlimit="10"/>
<path d="M-321.86 153.777C-128.322 290.614 -45.5588 394.642 -17.5634 475.067C0.22519 526.028 -5.49255 565.435 -16.5322 601.89C-24.1956 627.006 -34.8481 649.127 -47.2673 670.795C-82.766 732.856 -122.455 778.178 -125.523 872.247C-126.026 894.507 -124.29 916.662 -120.341 938.364C-98.4133 1065.55 -11.3627 1193.96 -53.5672 1251.36" stroke="#D4E6F3" stroke-miterlimit="10"/>
<path d="M-334.954 161.048C-145.072 295.81 -60.4414 399.919 -29.5748 481.251C-10.1165 532.493 -13.0742 573.279 -22.768 609.695C-29.6203 635.384 -40.2291 657.528 -52.8006 678.828C-88.6385 739.752 -133.55 784.74 -137.756 879.139C-138.516 901.368 -136.752 923.499 -132.5 945.094C-108.653 1072.81 -12.276 1199.79 -50.8278 1259.86" stroke="#D4E6F3" stroke-miterlimit="10"/>
<path d="M-348.031 168.339C-161.81 300.931 -75.4318 405.193 -41.6474 487.376C-20.5528 538.879 -20.7057 581.027 -29.1067 617.402C-35.1648 643.662 -45.695 665.87 -58.3403 686.767C-94.5385 746.591 -144.7 791.245 -149.989 885.956C-150.986 908.157 -149.195 930.273 -144.659 951.767C-118.734 1079.92 -13.3099 1205.63 -48.1203 1268.31" stroke="#D4E6F3" stroke-miterlimit="10"/>
<path d="M-361.128 175.591C-64.8421 387.254 -16.8652 530.525 -35.4641 625.281C-55.7645 728.721 -153.652 764.657 -162.302 892.925C-172.43 1043.39 -9.06627 1200.58 -45.4242 1276.85" stroke="#D4E6F3" stroke-miterlimit="10"/>
</svg>
