<svg width="91" height="102" viewBox="0 0 91 102" fill="none" xmlns="http://www.w3.org/2000/svg">
<path d="M27.75 55.165C29.3454 54.2439 31.288 54.1862 32.9268 54.9922L33.25 55.165L43.2715 60.9512C44.9731 61.9336 46.0214 63.749 46.0215 65.7139V77.2861C46.0214 79.251 44.9731 81.0664 43.2715 82.0488L33.25 87.835C31.5483 88.8174 29.4517 88.8174 27.75 87.835L17.7285 82.0488C16.0269 81.0664 14.9786 79.251 14.9785 77.2861V65.7139C14.9786 63.749 16.0269 61.9336 17.7285 60.9512L27.75 55.165Z" stroke="#2681B2"/>
<path d="M14.5 29.1547C15.7376 28.4402 17.2624 28.4402 18.5 29.1547L24.4593 32.5953C25.6969 33.3098 26.4593 34.6303 26.4593 36.0594V42.9406C26.4593 44.3697 25.6969 45.6902 24.4593 46.4047L18.5 49.8453C17.2624 50.5598 15.7376 50.5598 14.5 49.8453L8.54071 46.4047C7.3031 45.6902 6.54071 44.3697 6.54071 42.9406V36.0594C6.54071 34.6303 7.3031 33.3098 8.54071 32.5953L14.5 29.1547Z" fill="#2D9BD6"/>
<path d="M57.125 3.3916C59.2134 2.18594 61.7866 2.18594 63.875 3.3916L82.2891 14.0234C84.3773 15.2293 85.6641 17.4577 85.6641 19.8691V41.1309C85.6641 43.5423 84.3773 45.7707 82.2891 46.9766L63.875 57.6084C61.9172 58.7386 59.5335 58.8092 57.5225 57.8203L57.125 57.6084L38.7109 46.9766C36.6227 45.7707 35.3359 43.5423 35.3359 41.1309V19.8691C35.3359 17.4577 36.6227 15.2293 38.7109 14.0234L57.125 3.3916Z" stroke="#2681B2" stroke-width="2.5"/>
</svg>
