<svg width="91" height="102" viewBox="0 0 91 102" fill="none" xmlns="http://www.w3.org/2000/svg">
<path d="M27.75 46.835C29.3454 47.7561 31.288 47.8138 32.9268 47.0078L33.25 46.835L43.2715 41.0488C44.9731 40.0664 46.0214 38.251 46.0215 36.2861V24.7139C46.0214 22.749 44.9731 20.9336 43.2715 19.9512L33.25 14.165C31.5483 13.1826 29.4517 13.1826 27.75 14.165L17.7285 19.9512C16.0269 20.9336 14.9786 22.749 14.9785 24.7139V36.2861C14.9786 38.251 16.0269 40.0664 17.7285 41.0488L27.75 46.835Z" stroke="#2681B2"/>
<path d="M14.5 72.8453C15.7376 73.5598 17.2624 73.5598 18.5 72.8453L24.4593 69.4047C25.6969 68.6902 26.4593 67.3697 26.4593 65.9406V59.0594C26.4593 57.6303 25.6969 56.3098 24.4593 55.5953L18.5 52.1547C17.2624 51.4402 15.7376 51.4402 14.5 52.1547L8.54071 55.5953C7.3031 56.3098 6.54071 57.6303 6.54071 59.0594V65.9406C6.54071 67.3697 7.3031 68.6902 8.54071 69.4047L14.5 72.8453Z" fill="#2D9BD6"/>
<path d="M57.125 98.6084C59.2134 99.8141 61.7866 99.8141 63.875 98.6084L82.2891 87.9766C84.3773 86.7707 85.6641 84.5423 85.6641 82.1309V60.8691C85.6641 58.4577 84.3773 56.2293 82.2891 55.0234L63.875 44.3916C61.9172 43.2614 59.5335 43.1908 57.5225 44.1797L57.125 44.3916L38.7109 55.0234C36.6227 56.2293 35.3359 58.4577 35.3359 60.8691V82.1309C35.3359 84.5423 36.6227 86.7707 38.7109 87.9766L57.125 98.6084Z" stroke="#2681B2" stroke-width="2.5"/>
</svg>
