<svg width="174" height="1534" viewBox="0 0 174 1534" fill="none" xmlns="http://www.w3.org/2000/svg">
<path d="M-97.199 218.615C15.6402 236.02 89.7186 425.182 90.2393 568.052C90.8252 732.695 -6.43056 796.084 25.1266 920.952C53.8916 1034.9 149.642 1040.33 165.87 1124.17C180.78 1201.22 124.622 1324.23 -158.893 1529.58" stroke="#D4E6F3" stroke-miterlimit="10"/>
<path d="M-171.711 1520.15C107.699 1317.31 166.091 1194.19 153.73 1116.01C144.503 1058.07 97.7462 1036.33 60.8144 991.401C41.8132 968.985 27.7262 941.286 19.8183 910.792C-6.15018 810.907 47.4653 750.424 69.3485 643.007C74.9951 615.627 77.936 587.528 78.1105 559.291C79.3886 415.813 14.8584 228.642 -93.9219 208.244" stroke="#D4E6F3" stroke-miterlimit="10"/>
<path d="M-184.489 1510.7C90.7976 1310.36 151.404 1187.21 141.575 1108.06C134.346 1049.88 89.786 1026.79 54.6985 981.739C36.3621 958.77 22.6183 931.108 14.5148 900.862C-11.8418 802.428 36.3734 742.042 57.1635 634.267C62.4949 606.877 65.4451 578.885 65.9669 550.737C68.6743 406.633 14.0813 221.471 -90.6402 198.079" stroke="#D4E6F3" stroke-miterlimit="10"/>
<path d="M-197.228 1501.27C73.8769 1303.48 136.678 1180.24 129.438 1100.03C124.168 1041.56 81.844 1017.2 48.5804 971.964C30.9201 948.492 17.5118 920.889 9.21039 890.912C-17.5357 793.836 25.3014 733.757 44.9775 625.508C50.0446 598.096 53.0243 570.176 53.8796 542.093C58.2303 397.384 13.3608 214.233 -87.3019 187.848" stroke="#D4E6F3" stroke-miterlimit="10"/>
<path d="M-210.068 1491.84C56.9714 1296.56 121.929 1173.3 117.277 1091.96C113.947 1033.29 73.8585 1007.54 42.4774 962.139C25.484 938.148 12.3965 910.553 3.90004 880.797C-23.2354 785.078 14.2032 725.237 32.784 616.466C37.5338 589.088 40.5178 561.302 41.7097 533.354C47.7034 388.016 12.5379 206.877 -84.0663 177.476" stroke="#D4E6F3" stroke-miterlimit="10"/>
<path d="M-222.864 1482.51C40.0703 1289.66 109.068 1166.28 105.14 1083.9C102.391 1025.1 66.0132 997.881 36.3599 952.363C20.0633 927.865 7.29749 900.278 -1.40506 870.754C-28.93 776.392 3.11081 716.834 20.5792 607.706C25.0628 580.341 28.0711 552.649 29.5855 524.802C37.2998 378.835 11.7801 199.708 -80.7846 167.315" stroke="#D4E6F3" stroke-miterlimit="10"/>
<path d="M-235.663 1472.96C23.1491 1282.73 92.3032 1159.44 93.1005 1075.86C93.4183 1016.83 58.0503 988.175 30.2221 942.562C14.6285 917.584 2.17731 890.003 -6.73009 860.709C-34.6444 767.705 -7.98301 708.36 8.37255 598.851C12.5665 571.497 15.5864 543.896 17.4206 516.157C26.7779 369.561 11.04 192.444 -77.5242 157.059" stroke="#D4E6F3" stroke-miterlimit="10"/>
<path d="M-248.459 1463.53C6.24957 1275.88 77.5986 1152.53 80.8477 1067.8C83.184 1008.6 50.2628 978.421 24.1245 932.762C9.24842 907.323 -2.88226 879.736 -11.9761 850.664C-40.299 759.041 -19.0558 699.91 -3.75505 589.996C-0.219508 564.421 3.13697 537.124 5.35416 507.511C16.4124 360.262 10.2429 185.182 -74.2236 146.804" stroke="#D4E6F3" stroke-miterlimit="10"/>
<path d="M-261.258 1454.1C-10.6736 1268.9 62.6776 1145.63 68.7481 1059.76C72.9277 1000.37 42.453 968.644 18.043 922.914C3.89253 897.014 -7.9425 869.405 -17.2646 840.548C-45.9769 750.283 -30.093 691.413 -15.9445 581.071C-12.6437 555.383 -9.32511 528.156 -6.77447 498.771C5.96822 351.08 9.46254 177.919 -70.9257 136.547" stroke="#D4E6F3" stroke-miterlimit="10"/>
<path d="M-274.038 1444.65C-27.5771 1261.98 47.7952 1138.72 56.5507 1051.7C62.5546 992.145 34.6024 958.75 11.9045 913.184C-1.51179 886.857 -13.0574 859.23 -22.6094 830.597C-51.7115 741.665 -41.2261 683.033 -28.0935 572.285C-25.0258 546.6 -21.7076 519.35 -18.8429 490.194C-4.32347 341.709 8.79845 170.654 -67.5504 126.29" stroke="#D4E6F3" stroke-miterlimit="10"/>
<path d="M-286.836 1435.22C-44.4793 1255.08 32.8749 1131.82 44.4135 1043.7C52.2221 983.988 26.8326 949.019 5.76664 903.43C-6.88703 876.682 -18.1363 849.017 -27.9152 820.599C-57.4064 733.048 -52.3 674.652 -40.378 563.479C-37.5839 537.681 -34.2452 510.5 -31.0856 481.597C-14.7872 332.482 7.9225 163.463 -64.3681 116.059" stroke="#D4E6F3" stroke-miterlimit="10"/>
<path d="M-299.633 1425.79C-61.3996 1248.15 17.9555 1124.87 32.2763 1035.6C41.87 975.693 19.0817 939.126 -0.351112 893.608C-11.5132 867.443 -22.7811 840.649 -33.2205 810.51C-63.0817 724.316 -63.3932 666.158 -52.5649 554.579C-50.0243 528.715 -46.6655 501.581 -43.212 472.86C-25.1346 323.114 7.16259 156.109 -61.0883 105.736" stroke="#D4E6F3" stroke-miterlimit="10"/>
<path d="M-312.431 1416.36C-78.3807 1241.23 2.99707 1118.08 20.1181 1027.56C31.5163 967.464 11.3672 929.23 -6.47105 883.807C-17.0007 857.003 -27.9587 830.134 -38.5277 800.464C-68.8366 715.628 -74.4686 657.729 -64.7536 545.723C-62.486 519.793 -59.1075 492.681 -55.339 464.259C-35.4434 313.906 6.40207 148.891 -57.8094 95.5252" stroke="#D4E6F3" stroke-miterlimit="10"/>
<path d="M-325.23 1406.98C-95.2259 1234.33 -11.9847 1111.03 7.9596 1019.52C21.1039 959.239 3.67168 919.335 -12.6108 874.007C-22.4695 846.541 -33.1367 819.623 -43.8534 790.513C-74.4938 707.011 -85.5819 649.397 -76.9816 536.87C-74.9484 510.849 -71.5495 483.808 -67.5058 455.615C-45.7536 304.63 5.64053 141.629 -54.5315 85.2703" stroke="#D4E6F3" stroke-miterlimit="10"/>
<path d="M-338.01 1397.48C-112.129 1227.4 -27.0023 1104.15 -4.179 1011.45C10.7306 950.965 -3.96502 909.415 -18.7105 864.229C-27.8788 836.101 -38.2947 809.085 -49.142 780.374C-80.1712 698.276 -96.6389 640.852 -89.1505 528.014C-87.1083 500.805 -83.9058 473.746 -79.5556 446.944C-56.0432 295.375 4.84001 134.296 -51.2334 75.0136" stroke="#D4E6F3" stroke-miterlimit="10"/>
<path d="M-350.806 1388.05C-129.048 1220.48 -41.9612 1097.08 -16.3134 1003.48C0.342054 942.786 -11.5785 899.566 -24.8275 854.407C-33.2859 825.616 -43.4499 798.55 -54.4459 770.331C-85.8649 689.567 -107.731 632.403 -101.335 519.207C-99.5869 492.026 -96.381 465.017 -91.7375 438.347C-66.2133 286.121 4.08313 127.104 -47.8744 64.7349" stroke="#D4E6F3" stroke-miterlimit="10"/>
</svg>
