<svg width="241" height="220" viewBox="0 0 241 220" fill="none" xmlns="http://www.w3.org/2000/svg">
<path d="M62.875 69.2266C63.2135 69.0312 63.621 69.0067 63.9766 69.1533L64.125 69.2266L117.117 99.8223C117.504 100.045 117.742 100.458 117.742 100.904V162.096C117.742 162.542 117.504 162.955 117.117 163.178L64.125 193.773C63.7865 193.969 63.379 193.993 63.0234 193.847L62.875 193.773L9.88281 163.178C9.49618 162.955 9.25796 162.542 9.25781 162.096V100.904C9.25796 100.458 9.49618 100.045 9.88281 99.8223L62.875 69.2266Z" stroke="#B8D5EB" stroke-width="1.5"/>
<path d="M109.372 1.2334C109.76 1.00761 110.24 1.00761 110.628 1.2334L169.25 35.3203C169.635 35.5441 169.872 35.9553 169.872 36.4004V104.6C169.872 105.045 169.635 105.456 169.25 105.68L110.628 139.767C110.24 139.992 109.76 139.992 109.372 139.767L50.75 105.68C50.3652 105.456 50.128 105.045 50.1279 104.6V36.4004C50.128 35.9553 50.3652 35.5441 50.75 35.3203L109.372 1.2334Z" stroke="#B8D5EB" stroke-width="1.5"/>
<path d="M158.375 57.2266C158.762 57.0034 159.238 57.0034 159.625 57.2266L228.639 97.0723C229.025 97.2955 229.264 97.7079 229.264 98.1543V177.846C229.264 178.292 229.025 178.705 228.639 178.928L159.625 218.773C159.238 218.997 158.762 218.997 158.375 218.773L89.3613 178.928C88.9747 178.705 88.7365 178.292 88.7363 177.846V98.1543C88.7365 97.7079 88.9747 97.2955 89.3613 97.0723L158.375 57.2266Z" stroke="#B8D5EB" stroke-width="1.5"/>
</svg>
