<svg width="174" height="213" viewBox="0 0 174 213" fill="none" xmlns="http://www.w3.org/2000/svg">
<path d="M45.375 119.67C47.3087 118.554 49.6913 118.554 51.625 119.67L82.2969 137.379C84.2305 138.495 85.4217 140.558 85.4219 142.791V178.209C85.4217 180.442 84.2305 182.505 82.2969 183.621L51.625 201.33C49.6913 202.446 47.3087 202.446 45.375 201.33L14.7031 183.621C12.7695 182.505 11.5783 180.442 11.5781 178.209V142.791C11.5783 140.558 12.7695 138.495 14.7031 137.379L45.375 119.67Z" stroke="#B8D5EB" stroke-width="1.5"/>
<path d="M117.375 134.093C118.69 133.334 120.31 133.334 121.625 134.093L137.843 143.456C139.158 144.215 139.968 145.618 139.968 147.137V165.863C139.968 167.382 139.158 168.785 137.843 169.544L121.625 178.907C120.392 179.619 118.891 179.664 117.625 179.041L117.375 178.907L101.157 169.544C99.8423 168.785 99.0322 167.382 99.0322 165.863V147.137C99.0322 145.618 99.8423 144.215 101.157 143.456L117.375 134.093Z" stroke="#B8D5EB" stroke-width="1.5"/>
<path d="M92.375 19.9795C96.7839 17.434 102.216 17.434 106.625 19.9795L143.153 41.0693C147.562 43.6148 150.278 48.3192 150.278 53.4102V95.5898C150.278 100.681 147.562 105.385 143.153 107.931L106.625 129.021C102.354 131.486 97.1222 131.564 92.791 129.252L92.375 129.021L55.8467 107.931C51.4377 105.385 48.7217 100.681 48.7217 95.5898V53.4102C48.7217 48.3192 51.4377 43.6148 55.8467 41.0693L92.375 19.9795Z" stroke="#B8D5EB" stroke-width="1.5"/>
</svg>
