<svg width="476" height="213" viewBox="0 0 476 213" fill="none" xmlns="http://www.w3.org/2000/svg">
<path d="M302.557 134.5C303.45 136.047 303.45 137.953 302.557 139.5L276.943 183.863C276.05 185.41 274.4 186.363 272.613 186.363L221.387 186.363C219.6 186.363 217.95 185.41 217.057 183.863L191.443 139.5C190.55 137.953 190.55 136.047 191.443 134.5L217.057 90.1366C217.95 88.5896 219.6 87.6366 221.387 87.6366L272.613 87.6366C274.4 87.6366 276.05 88.5895 276.943 90.1366L302.557 134.5Z" fill="url(#paint0_linear_496_3363)"/>
<path d="M358.907 124.375C359.666 125.69 359.666 127.31 358.907 128.625L339.544 162.163C338.785 163.478 337.382 164.288 335.863 164.288L297.137 164.288C295.618 164.288 294.215 163.478 293.456 162.163L274.093 128.625C273.334 127.31 273.334 125.69 274.093 124.375L293.456 90.8369C294.215 89.522 295.618 88.7119 297.137 88.7119L335.863 88.7119C337.382 88.7119 338.785 89.522 339.544 90.8369L358.907 124.375Z" stroke="#B8D5EB" stroke-opacity="0.3" stroke-width="1.5"/>
<path d="M216.557 200.5C217.45 202.047 217.45 203.953 216.557 205.5L187.943 255.06C187.05 256.607 185.4 257.56 183.613 257.56L126.387 257.56C124.6 257.56 122.95 256.607 122.057 255.06L93.4434 205.5C92.5502 203.953 92.5502 202.047 93.4434 200.5L122.057 150.94C122.95 149.393 124.6 148.44 126.387 148.44L183.613 148.44C185.4 148.44 187.05 149.393 187.943 150.94L216.557 200.5Z" fill="url(#paint1_linear_496_3363)"/>
<path d="M370.525 169.976C371.436 171.535 371.436 173.465 370.525 175.024L353.448 204.232C352.551 205.765 350.908 206.708 349.131 206.708L314.869 206.708C313.092 206.708 311.449 205.765 310.552 204.232L293.475 175.024C292.564 173.465 292.564 171.535 293.475 169.976L310.552 140.768C311.449 139.235 313.092 138.292 314.869 138.292L349.131 138.292C350.908 138.292 352.551 139.235 353.448 140.768L370.525 169.976Z" fill="url(#paint2_linear_496_3363)"/>
<path d="M254.021 189.875C256.566 194.284 256.566 199.716 254.021 204.125L235.681 235.891C233.135 240.299 228.431 243.016 223.34 243.016L186.66 243.016C181.569 243.016 176.865 240.299 174.319 235.891L155.979 204.125C153.434 199.716 153.434 194.284 155.979 189.875L174.319 158.109C176.865 153.701 181.569 150.984 186.66 150.984L223.34 150.984C228.431 150.984 233.135 153.701 235.681 158.109L254.021 189.875Z" stroke="#B8D5EB" stroke-opacity="0.3" stroke-width="1.5"/>
<defs>
<linearGradient id="paint0_linear_496_3363" x1="287.467" y1="201.558" x2="206.376" y2="64.0967" gradientUnits="userSpaceOnUse">
<stop stop-color="#55B5E8"/>
<stop offset="1" stop-color="#417FC3"/>
</linearGradient>
<linearGradient id="paint1_linear_496_3363" x1="199.727" y1="274.354" x2="110.099" y2="122.423" gradientUnits="userSpaceOnUse">
<stop stop-color="#55B5E8"/>
<stop offset="1" stop-color="#417FC3"/>
</linearGradient>
<linearGradient id="paint2_linear_496_3363" x1="360.398" y1="217.238" x2="304.547" y2="121.364" gradientUnits="userSpaceOnUse">
<stop stop-color="#55B5E8"/>
<stop offset="1" stop-color="#417FC3"/>
</linearGradient>
</defs>
</svg>
