<svg width="61" height="81" viewBox="0 0 61 81" fill="none" xmlns="http://www.w3.org/2000/svg">
<path d="M32.75 40.876C31.3578 40.0723 29.6422 40.0723 28.25 40.876L17.2285 47.2393C15.8362 48.0431 14.9785 49.529 14.9785 51.1367V63.8633C14.9785 65.471 15.8362 66.9569 17.2285 67.7607L28.25 74.124C29.5553 74.8776 31.1446 74.9241 32.4854 74.2646L32.75 74.124L43.7715 67.7607C45.1638 66.9569 46.0215 65.471 46.0215 63.8633V51.1367C46.0215 49.529 45.1638 48.0431 43.7715 47.2393L32.75 40.876Z" stroke="#226CA3"/>
<path d="M46 14.866C45.0718 14.3301 43.9282 14.3301 43 14.866L36.0407 18.884C35.1125 19.4199 34.5407 20.4103 34.5407 21.4821V29.5179C34.5407 30.5897 35.1125 31.5801 36.0407 32.116L43 36.134C43.9282 36.6699 45.0718 36.6699 46 36.134L52.9593 32.116C53.8875 31.5801 54.4593 30.5897 54.4593 29.5179V21.4821C54.4593 20.4103 53.8875 19.4199 52.9593 18.884L46 14.866Z" fill="#4D96CE"/>
</svg>
