<svg width="224" height="476" viewBox="0 0 224 476" fill="none" xmlns="http://www.w3.org/2000/svg">
<path d="M-4.875 471.021C-9.28393 473.566 -14.7161 473.566 -19.125 471.021L-79.4688 436.181C-83.8777 433.635 -86.5937 428.931 -86.5938 423.84L-86.5938 354.16C-86.5937 349.069 -83.8777 344.365 -79.4688 341.819L-19.125 306.98C-14.8538 304.514 -9.62221 304.436 -5.29103 306.748L-4.87501 306.979L55.4687 341.819C59.8777 344.365 62.5937 349.069 62.5937 354.16L62.5937 423.84C62.5937 428.931 59.8777 433.635 55.4687 436.181L-4.875 471.021Z" stroke="#B8D5EB" stroke-opacity="0.3" stroke-width="1.5"/>
<path d="M70.125 430.021C65.7161 432.566 60.2839 432.566 55.875 430.021L-4.46875 395.181C-8.8777 392.635 -11.5937 387.931 -11.5938 382.84L-11.5938 313.16C-11.5937 308.069 -8.8777 303.365 -4.46876 300.819L55.875 265.98C60.1462 263.514 65.3778 263.436 69.709 265.748L70.125 265.979L130.469 300.819C134.878 303.365 137.594 308.069 137.594 313.16L137.594 382.84C137.594 387.931 134.878 392.635 130.469 395.181L70.125 430.021Z" stroke="#B8D5EB" stroke-opacity="0.3" stroke-width="1.5"/>
<path d="M144.125 471.021C139.716 473.566 134.284 473.566 129.875 471.021L69.5312 436.181C65.1223 433.635 62.4063 428.931 62.4062 423.84L62.4062 354.16C62.4063 349.069 65.1223 344.365 69.5312 341.819L129.875 306.98C134.146 304.514 139.378 304.436 143.709 306.748L144.125 306.979L204.469 341.819C208.878 344.365 211.594 349.069 211.594 354.16L211.594 423.84C211.594 428.931 208.878 433.635 204.469 436.181L144.125 471.021Z" stroke="#B8D5EB" stroke-opacity="0.3" stroke-width="1.5"/>
<path d="M70.125 342.021C65.7161 344.566 60.2839 344.566 55.875 342.021L-4.46875 307.181C-8.8777 304.635 -11.5937 299.931 -11.5938 294.84L-11.5938 225.16C-11.5937 220.069 -8.8777 215.365 -4.46876 212.819L55.875 177.98C60.1462 175.514 65.3778 175.436 69.709 177.748L70.125 177.979L130.469 212.819C134.878 215.365 137.594 220.069 137.594 225.16L137.594 294.84C137.594 299.931 134.878 304.635 130.469 307.181L70.125 342.021Z" stroke="#B8D5EB" stroke-opacity="0.3" stroke-width="1.5"/>
<path d="M71.125 169.021C66.7161 171.566 61.2839 171.566 56.875 169.021L-3.46875 134.181C-7.8777 131.635 -10.5937 126.931 -10.5938 121.84L-10.5938 52.1602C-10.5937 47.0692 -7.8777 42.3648 -3.46876 39.8193L56.875 4.9795C61.1462 2.51356 66.3778 2.4362 70.709 4.74805L71.125 4.9795L131.469 39.8193C135.878 42.3648 138.594 47.0692 138.594 52.1602L138.594 121.84C138.594 126.931 135.878 131.635 131.469 134.181L71.125 169.021Z" stroke="#B8D5EB" stroke-opacity="0.3" stroke-width="1.5"/>
<path d="M-1.875 299.021C-6.28393 301.566 -11.7161 301.566 -16.125 299.021L-76.4688 264.181C-80.8777 261.635 -83.5937 256.931 -83.5938 251.84L-83.5938 182.16C-83.5937 177.069 -80.8777 172.365 -76.4688 169.819L-16.125 134.98C-11.8538 132.514 -6.62221 132.436 -2.29103 134.748L-1.87501 134.979L58.4687 169.819C62.8777 172.365 65.5937 177.069 65.5937 182.16L65.5937 251.84C65.5937 256.931 62.8777 261.635 58.4687 264.181L-1.875 299.021Z" stroke="#B8D5EB" stroke-opacity="0.3" stroke-width="1.5"/>
<path d="M-1.875 212.021C-6.28393 214.566 -11.7161 214.566 -16.125 212.021L-76.4688 177.181C-80.8777 174.635 -83.5937 169.931 -83.5938 164.84L-83.5938 95.1602C-83.5937 90.0692 -80.8777 85.3648 -76.4688 82.8193L-16.125 47.9795C-11.8538 45.5136 -6.62221 45.4362 -2.29103 47.7481L-1.87501 47.9795L58.4687 82.8193C62.8777 85.3648 65.5937 90.0692 65.5937 95.1602L65.5937 164.84C65.5937 169.931 62.8777 174.635 58.4687 177.181L-1.875 212.021Z" stroke="#B8D5EB" stroke-opacity="0.3" stroke-width="1.5"/>
</svg>
