<svg width="360" height="1079" viewBox="0 0 360 1079" fill="none" xmlns="http://www.w3.org/2000/svg">
<path d="M2.32031 1100.32C34.3557 1062.33 72.9834 1030.43 116.347 1006.15C219.29 949.119 289.537 971.165 307.821 931.535C336.068 870.294 176.125 800.578 172.59 661.169C169.985 558.917 252.832 469.348 272.023 448.619C346.822 367.737 414.676 366.823 427.467 301.914C436.874 254.441 404.627 234.49 402.587 157.416C401.169 103.76 415.352 59.4077 427.748 29.9949" stroke="#D4E6F3" stroke-miterlimit="10"/>
<path d="M10.1953 1101.61C42.2396 1063.62 80.8728 1031.71 124.241 1007.42C227.2 950.395 297.431 972.439 315.713 932.826C343.962 871.568 184.019 801.853 180.482 662.46C177.896 560.193 260.743 470.624 279.917 449.893C354.716 369.011 422.568 368.114 435.36 303.188C444.768 255.716 412.519 235.781 410.481 158.69C409.064 105.017 423.246 60.6819 435.641 31.2691" stroke="#D4E6F3" stroke-miterlimit="10"/>
<path d="M18.0664 1102.9C50.1059 1064.9 88.7401 1032.99 132.112 1008.71C235.071 951.685 305.302 973.729 323.586 934.099C351.829 872.91 191.891 803.126 188.355 663.733C185.767 561.483 268.614 471.914 287.788 451.183C362.604 370.302 430.441 369.387 443.231 304.478C452.639 257.006 420.374 237.052 418.335 159.979C416.918 106.306 431.1 61.9704 443.495 32.5576" stroke="#D4E6F3" stroke-miterlimit="10"/>
<path d="M25.9375 1104.16C57.988 1066.17 96.6265 1034.27 139.998 1009.99C242.958 952.959 313.188 975.004 331.471 935.39C359.72 874.133 199.776 804.417 196.24 665.025C193.653 562.758 276.5 473.188 295.674 452.458C370.49 371.577 438.326 370.678 451.118 305.753C460.525 258.28 428.259 238.344 426.221 161.253C424.805 107.58 438.987 63.2449 451.382 33.8321" stroke="#D4E6F3" stroke-miterlimit="10"/>
<path d="M33.8086 1105.47C65.8529 1067.47 104.486 1035.56 147.854 1011.28C250.815 954.231 321.061 976.294 339.328 936.662C367.575 875.422 207.633 805.689 204.097 666.297C201.51 564.029 284.356 474.477 303.531 453.729C378.346 372.865 446.183 371.95 458.974 307.042C468.381 259.569 436.116 239.616 434.077 162.542C432.66 108.869 446.859 64.5352 459.238 35.1209" stroke="#D4E6F3" stroke-miterlimit="10"/>
<path d="M41.6797 1106.74C73.7282 1068.75 112.361 1036.84 155.725 1012.55C258.685 955.52 328.932 977.566 347.198 937.951C375.442 876.745 215.503 806.978 211.9 667.563C209.312 565.312 292.159 475.743 311.333 455.012C386.149 374.132 453.984 373.233 466.777 308.308C476.184 260.835 443.918 240.899 441.88 163.808C440.464 110.135 454.662 65.8013 467.042 36.3699" stroke="#D4E6F3" stroke-miterlimit="10"/>
<path d="M49.5703 1108C81.6223 1070.01 120.267 1038.11 163.647 1013.85C266.608 956.799 336.854 978.862 355.121 939.23C383.385 877.992 223.443 808.259 219.907 668.866C217.303 566.598 300.149 477.045 319.324 456.298C394.139 375.434 461.976 374.518 474.766 309.61C484.174 262.137 451.909 242.184 449.87 165.11C448.47 111.439 462.652 67.1033 475.03 37.689" stroke="#D4E6F3" stroke-miterlimit="10"/>
<path d="M57.375 1109.3C89.4145 1071.3 128.049 1039.39 171.42 1015.11C274.363 958.077 344.61 980.124 362.893 940.51C391.142 879.253 231.198 809.537 227.664 670.128C225.058 567.876 307.905 478.307 327.096 457.577C401.895 376.695 469.731 375.797 482.54 310.873C491.947 263.4 459.683 243.447 457.66 166.375C456.242 112.719 470.424 68.3833 482.821 38.9535" stroke="#D4E6F3" stroke-miterlimit="10"/>
<path d="M65.3125 1110.59C97.356 1072.59 135.99 1040.68 179.359 1016.39C282.302 959.357 352.548 981.42 370.832 941.79C399.076 880.583 239.137 810.817 235.55 671.42C232.946 569.151 315.792 479.599 334.984 458.852C409.782 377.987 477.636 377.073 490.427 312.165C499.834 264.692 467.586 244.74 465.547 167.667C464.13 113.994 478.312 69.6582 490.708 40.2455" stroke="#D4E6F3" stroke-miterlimit="10"/>
<path d="M73.1914 1111.83C105.258 1073.84 143.914 1041.95 187.302 1017.69C290.261 960.655 360.492 982.7 378.776 943.069C407.023 881.829 247.08 812.113 243.545 672.704C240.94 570.452 323.787 480.883 342.978 460.154C417.777 379.271 485.629 378.374 498.421 313.449C507.829 265.976 475.581 246.024 473.542 168.951C472.124 115.295 486.305 70.9593 498.702 41.5295" stroke="#D4E6F3" stroke-miterlimit="10"/>
<path d="M81.0273 1113.14C113.076 1075.14 151.708 1043.24 195.073 1018.95C298.032 961.918 368.263 983.963 386.545 944.349C414.792 883.109 254.851 813.376 251.314 673.984C248.728 571.717 331.573 482.165 350.749 461.417C425.546 380.551 493.4 379.638 506.192 314.712C515.598 267.256 483.351 247.305 481.313 170.214C479.896 116.541 494.078 72.2057 506.473 42.7929" stroke="#D4E6F3" stroke-miterlimit="10"/>
<path d="M88.9336 1114.43C120.978 1076.43 159.611 1044.53 202.979 1020.24C305.939 963.213 376.169 985.257 394.453 945.627C422.7 884.387 262.757 814.671 259.222 675.261C256.634 573.011 339.481 483.442 358.655 462.711C433.471 381.83 501.306 380.932 514.099 316.006C523.506 268.534 491.241 248.581 489.202 171.507C487.784 117.851 501.966 73.5155 514.363 44.0857" stroke="#D4E6F3" stroke-miterlimit="10"/>
<path d="M96.8047 1115.67C128.857 1077.68 167.489 1045.78 210.85 1021.48C313.81 964.45 384.04 986.495 402.323 946.882C430.55 885.674 270.56 815.902 267.089 676.55C264.502 574.283 347.347 484.731 366.523 463.983C441.337 383.119 509.174 382.204 521.967 317.278C531.373 269.822 499.108 249.869 497.07 172.779C495.654 119.106 509.852 74.7717 522.231 45.3574" stroke="#D4E6F3" stroke-miterlimit="10"/>
<path d="M104.676 1116.99C136.72 1079 175.353 1047.09 218.721 1022.8C321.681 965.774 391.928 987.821 410.195 948.189C438.442 886.948 278.499 817.232 274.964 677.823C272.376 575.573 355.223 486.004 374.396 465.29C449.212 384.409 517.047 383.511 529.839 318.585C539.247 271.112 506.982 251.159 504.943 174.086C503.525 120.43 517.723 76.0956 530.103 46.6643" stroke="#D4E6F3" stroke-miterlimit="10"/>
<path d="M112.551 1118.27C144.599 1080.27 183.232 1048.37 226.596 1024.08C329.556 967.048 399.803 989.095 418.069 949.48C446.314 888.256 286.374 818.506 282.855 679.116C280.268 576.848 363.113 487.296 382.289 466.548C457.104 385.685 524.94 384.769 537.733 319.844C547.139 272.388 514.874 252.435 512.836 175.344C511.437 121.673 525.618 77.3372 537.997 47.9229" stroke="#D4E6F3" stroke-miterlimit="10"/>
<path d="M120.441 1119.51C152.477 1081.5 191.112 1049.59 234.487 1025.32C337.429 968.287 407.677 990.333 425.944 950.701C454.203 889.513 294.214 819.742 290.725 680.388C288.12 578.136 370.967 488.567 390.141 467.836C464.957 386.956 532.793 386.057 545.585 321.132C554.992 273.659 522.728 253.706 520.688 176.632C519.287 122.978 533.469 78.6422 545.849 49.2109" stroke="#D4E6F3" stroke-miterlimit="10"/>
<path d="M128.324 1120.83C160.364 1082.83 198.998 1050.92 242.37 1026.64C345.312 969.612 415.56 991.658 433.842 952.045C462.089 890.804 302.147 821.072 298.611 681.679C296.008 579.411 378.853 489.858 398.046 469.112C472.843 388.247 540.697 387.333 553.489 322.407C562.897 274.935 530.647 255 528.61 177.909C527.193 124.236 541.375 79.901 553.77 50.4882" stroke="#D4E6F3" stroke-miterlimit="10"/>
<path d="M136.184 1122.12C168.223 1084.12 206.857 1052.21 250.229 1027.93C353.172 970.901 423.419 992.948 441.703 953.317C469.949 892.094 310.007 822.361 306.506 682.955C303.901 580.703 386.748 491.134 405.939 470.404C480.738 389.522 548.59 388.625 561.383 323.7C570.79 276.227 538.542 256.275 536.503 179.202C535.085 125.546 549.267 81.2102 561.664 51.7805" stroke="#D4E6F3" stroke-miterlimit="10"/>
<path d="M144.062 1123.34C176.107 1085.35 214.74 1053.44 258.108 1029.15C361.067 972.124 431.298 994.169 449.58 954.555C477.857 893.369 317.869 823.581 314.345 684.241C311.758 581.974 394.605 492.404 413.779 471.674C488.577 390.808 556.431 389.895 569.223 324.969C578.63 277.496 546.381 257.561 544.343 180.471C542.927 126.798 557.109 82.4624 569.504 53.0497" stroke="#D4E6F3" stroke-miterlimit="10"/>
<path d="M151.977 1124.69C184.016 1086.69 222.65 1054.78 266.022 1030.5C368.982 973.47 439.212 995.514 457.496 955.884C485.743 894.644 325.8 824.928 322.265 685.519C319.626 583.264 402.473 493.694 421.647 472.964C496.463 392.083 564.298 391.185 577.091 326.259C586.498 278.786 554.233 258.833 552.194 181.759C550.776 128.104 564.958 83.768 577.355 54.3382" stroke="#D4E6F3" stroke-miterlimit="10"/>
<path d="M159.801 1125.96C191.845 1087.96 230.478 1056.05 273.846 1031.77C376.806 974.739 447.036 996.784 465.319 957.17C493.566 895.93 333.624 826.197 330.156 686.811C327.569 584.544 410.416 494.975 429.59 474.244C504.405 393.38 572.241 392.465 585.034 327.539C594.441 280.066 562.175 260.13 560.137 183.04C558.721 129.367 572.902 85.0312 585.298 55.6184" stroke="#D4E6F3" stroke-miterlimit="10"/>
<path d="M167.676 1127.18C199.72 1089.18 238.353 1057.28 281.721 1032.99C384.681 975.96 454.928 998.006 473.195 958.374C501.504 897.208 341.516 827.42 337.958 688.077C335.37 585.827 418.217 496.257 437.391 475.527C512.207 394.646 580.042 393.747 592.835 328.822C602.242 281.349 569.978 261.396 567.938 184.322C566.52 130.666 580.72 86.3155 593.099 56.9012" stroke="#D4E6F3" stroke-miterlimit="10"/>
<path d="M175.625 1128.53C207.673 1090.53 246.306 1058.63 289.67 1034.34C392.63 977.308 462.877 999.354 481.143 959.739C509.39 898.499 349.448 828.766 345.912 689.374C343.24 587.099 426.087 497.53 445.261 476.799C520.077 395.918 587.913 395.02 600.705 330.094C610.112 282.621 577.846 262.685 575.808 185.594C574.392 131.922 588.591 87.5876 600.969 58.1733" stroke="#D4E6F3" stroke-miterlimit="10"/>
<path d="M183.434 1129.81C215.468 1091.81 254.096 1059.9 297.462 1035.62C400.422 978.592 470.669 1000.64 488.936 961.006C517.2 899.767 357.257 830.051 353.705 690.641C351.117 588.39 433.964 498.821 453.138 478.09C527.954 397.209 595.791 396.294 608.582 331.386C617.989 283.913 585.724 263.96 583.685 186.886C582.284 133.232 596.467 88.8791 608.846 59.4648" stroke="#D4E6F3" stroke-miterlimit="10"/>
<path d="M191.309 1131.02C223.348 1093.01 261.982 1061.11 305.354 1036.83C408.297 979.796 478.544 1001.84 496.827 962.229C525.154 901.047 365.166 831.259 361.59 691.932C358.986 589.663 441.833 500.094 461.024 479.364C535.823 398.482 603.658 397.584 616.468 332.66C625.875 285.187 593.609 265.251 591.588 188.161C590.171 134.489 604.353 90.1531 616.749 60.7403" stroke="#D4E6F3" stroke-miterlimit="10"/>
<path d="M199.172 1132.37C231.211 1094.37 269.846 1062.46 313.217 1038.19C416.16 981.154 486.407 1003.2 504.691 963.569C532.939 902.329 372.997 832.596 369.46 693.204C366.855 590.952 449.651 501.378 468.895 480.637C543.692 399.771 611.546 398.858 624.337 333.949C633.744 286.476 601.497 266.525 599.457 189.451C598.041 135.778 612.223 91.4426 624.618 62.0298" stroke="#D4E6F3" stroke-miterlimit="10"/>
<path d="M207.047 1133.65C239.091 1095.65 277.724 1063.74 321.092 1039.46C424.052 982.428 494.282 1004.47 512.565 964.859C540.814 903.602 380.87 833.886 377.334 694.494C374.73 592.225 457.577 502.656 476.768 481.927C551.567 401.044 619.42 400.148 632.212 335.222C641.619 287.749 609.37 267.815 607.332 190.724C605.916 137.051 620.098 92.7156 632.493 63.3028" stroke="#D4E6F3" stroke-miterlimit="10"/>
</svg>
