<svg width="257" height="343" viewBox="0 0 257 343" fill="none" xmlns="http://www.w3.org/2000/svg">
<path d="M2.125 -67.0205C-2.28393 -69.566 -7.71607 -69.566 -12.125 -67.0205L-72.4688 -32.1807C-76.8777 -29.6352 -79.5937 -24.9308 -79.5938 -19.8398V49.8398C-79.5937 54.9308 -76.8777 59.6352 -72.4688 62.1807L-12.125 97.0205C-7.85382 99.4864 -2.62219 99.5638 1.70898 97.252L2.125 97.0205L62.4688 62.1807C66.8777 59.6352 69.5937 54.9308 69.5938 49.8398V-19.8398C69.5937 -24.9308 66.8777 -29.6352 62.4688 -32.1807L2.125 -67.0205Z" stroke="#B8D5EB" stroke-opacity="0.47" stroke-width="1.5"/>
<path d="M77.125 -26.0205C72.7161 -28.566 67.2839 -28.566 62.875 -26.0205L2.53125 8.81934C-1.87769 11.3648 -4.59371 16.0692 -4.59375 21.1602V90.8398C-4.59371 95.9308 -1.87769 100.635 2.53125 103.181L62.875 138.021C67.1462 140.486 72.3778 140.564 76.709 138.252L77.125 138.021L137.469 103.181C141.878 100.635 144.594 95.9308 144.594 90.8398V21.1602C144.594 16.0692 141.878 11.3648 137.469 8.81934L77.125 -26.0205Z" stroke="#B8D5EB" stroke-opacity="0.47" stroke-width="1.5"/>
<path d="M151.125 -67.0205C146.716 -69.566 141.284 -69.566 136.875 -67.0205L76.5312 -32.1807C72.1223 -29.6352 69.4063 -24.9308 69.4062 -19.8398V49.8398C69.4063 54.9308 72.1223 59.6352 76.5312 62.1807L136.875 97.0205C141.146 99.4864 146.378 99.5638 150.709 97.252L151.125 97.0205L211.469 62.1807C215.878 59.6352 218.594 54.9308 218.594 49.8398V-19.8398C218.594 -24.9308 215.878 -29.6352 211.469 -32.1807L151.125 -67.0205Z" stroke="#B8D5EB" stroke-opacity="0.47" stroke-width="1.5"/>
<path d="M77.125 61.9795C72.7161 59.434 67.2839 59.434 62.875 61.9795L2.53125 96.8193C-1.87769 99.3648 -4.59371 104.069 -4.59375 109.16V178.84C-4.59371 183.931 -1.87769 188.635 2.53125 191.181L62.875 226.021C67.1462 228.486 72.3778 228.564 76.709 226.252L77.125 226.021L137.469 191.181C141.878 188.635 144.594 183.931 144.594 178.84V109.16C144.594 104.069 141.878 99.3648 137.469 96.8193L77.125 61.9795Z" stroke="#B8D5EB" stroke-opacity="0.47" stroke-width="1.5"/>
<path d="M5.125 104.979C0.716071 102.434 -4.71607 102.434 -9.125 104.979L-69.4688 139.819C-73.8777 142.365 -76.5937 147.069 -76.5938 152.16V221.84C-76.5937 226.931 -73.8777 231.635 -69.4688 234.181L-9.125 269.021C-4.85382 271.486 0.377807 271.564 4.70898 269.252L5.125 269.021L65.4688 234.181C69.8777 231.635 72.5937 226.931 72.5938 221.84V152.16C72.5937 147.069 69.8777 142.365 65.4688 139.819L5.125 104.979Z" stroke="#B8D5EB" stroke-opacity="0.47" stroke-width="1.5"/>
</svg>
