<svg width="126" height="134" viewBox="0 0 126 134" fill="none" xmlns="http://www.w3.org/2000/svg">
<path d="M86.25 80.6709C84.5483 79.6884 82.4517 79.6884 80.75 80.6709L62.9346 90.957C61.2329 91.9395 60.1847 93.7549 60.1846 95.7197V116.292C60.1847 118.257 61.2329 120.072 62.9346 121.055L80.75 131.341C82.3454 132.262 84.288 132.32 85.9268 131.514L86.25 131.341L104.065 121.055C105.767 120.072 106.815 118.257 106.815 116.292V95.7197C106.815 93.7549 105.767 91.9395 104.065 90.957L86.25 80.6709Z" stroke="#2681B2"/>
<path d="M106 42.6606C104.762 41.946 103.238 41.946 102 42.6606L91.2776 48.8512C90.04 49.5657 89.2776 50.8862 89.2776 52.3153V64.6965C89.2776 66.1255 90.04 67.446 91.2776 68.1606L102 74.3512C103.238 75.0657 104.762 75.0657 106 74.3512L116.722 68.1606C117.96 67.446 118.722 66.1255 118.722 64.6965V52.3153C118.722 50.8862 117.96 49.5657 116.722 48.8512L106 42.6606Z" fill="#2D9BD6"/>
<path d="M42.375 3.89746C40.4172 2.76722 38.0335 2.6967 36.0225 3.68555L35.625 3.89746L4.6543 21.7793C2.56584 22.9851 1.2793 25.2135 1.2793 27.625V63.3867C1.2793 65.7983 2.56584 68.0267 4.6543 69.2324L35.625 87.1143C37.7134 88.3199 40.2866 88.3199 42.375 87.1143L73.3457 69.2324C75.4342 68.0267 76.7207 65.7983 76.7207 63.3867V27.625C76.7207 25.2135 75.4342 22.9851 73.3457 21.7793L42.375 3.89746Z" stroke="#2681B2" stroke-width="2.5"/>
</svg>
