<svg width="639" height="1549" viewBox="0 0 639 1549" fill="none" xmlns="http://www.w3.org/2000/svg">
<path d="M8.78516 1532.14C0.709988 1471.17 -18.2994 1412.16 -47.3295 1357.94C-116.645 1229.86 -204.583 1206.02 -197.229 1152.51C-185.859 1069.83 27.3755 1103.76 123.989 960.76C194.865 855.885 168.192 707.272 162 672.867C137.927 538.676 67.7891 492.492 97.7202 416.29C119.556 360.523 166.478 361.216 219.981 282.216C257.226 227.217 272.003 171.519 278.685 132.59" stroke="#D4E6F3" stroke-miterlimit="10"/>
<path d="M-0.28125 1528.23C-8.36405 1467.26 -27.3761 1408.24 -56.4049 1354.01C-125.739 1225.92 -213.658 1202.09 -206.315 1148.6C-194.934 1065.9 18.3001 1099.83 114.904 956.848C185.771 851.944 159.097 703.332 152.925 668.936C128.852 534.745 58.7039 488.58 88.6447 412.359C110.481 356.592 157.393 357.304 210.906 278.285C248.16 223.268 262.927 167.589 269.609 128.659" stroke="#D4E6F3" stroke-miterlimit="10"/>
<path d="M-9.34766 1524.33C-17.4223 1463.35 -36.4348 1404.33 -65.4713 1350.11C-134.805 1222.02 -222.725 1198.19 -215.371 1144.68C-204.03 1062.05 9.24343 1095.91 105.847 952.927C176.705 848.043 150.031 699.43 143.858 665.034C119.766 530.834 49.6473 484.66 79.5784 408.458C101.415 352.691 148.355 353.394 201.858 274.393C239.112 219.376 253.879 163.697 260.562 124.768" stroke="#D4E6F3" stroke-miterlimit="10"/>
<path d="M-18.3945 1520.39C-26.4873 1459.42 -45.509 1400.4 -74.5467 1346.18C-143.881 1218.08 -231.8 1194.25 -224.456 1140.76C-213.076 1058.07 0.158349 1091.99 96.7623 949.015C167.629 844.111 140.956 695.499 134.783 661.103C110.691 526.902 40.5622 480.747 70.5031 404.526C92.3393 348.759 139.27 349.481 192.783 270.462C230.037 215.445 244.804 159.765 251.486 120.836" stroke="#D4E6F3" stroke-miterlimit="10"/>
<path d="M-27.4766 1516.51C-35.5594 1455.53 -54.5714 1396.52 -83.6002 1342.29C-152.924 1214.17 -240.872 1190.35 -233.5 1136.85C-222.13 1054.17 -8.88548 1088.08 87.7184 945.105C158.585 840.202 131.902 691.608 125.739 657.193C101.638 523.011 31.5184 476.838 61.4495 400.636C83.2857 344.868 130.226 345.571 183.729 266.571C220.984 211.554 235.732 155.865 242.433 116.945" stroke="#D4E6F3" stroke-miterlimit="10"/>
<path d="M-36.5273 1512.59C-44.6174 1451.61 -63.629 1392.6 -92.651 1338.36C-161.985 1210.27 -249.923 1186.43 -242.561 1132.95C-231.21 1050.31 -17.946 1084.18 78.7427 941.221C149.6 836.337 122.926 687.724 116.754 653.328C92.6618 519.127 22.5329 472.973 52.4738 396.752C74.31 340.984 121.241 341.706 174.753 262.687C212.008 207.67 226.756 151.981 233.467 113.043" stroke="#D4E6F3" stroke-miterlimit="10"/>
<path d="M-45.5977 1508.64C-53.6922 1447.66 -72.724 1388.65 -101.778 1334.43C-171.103 1206.32 -259.051 1182.5 -251.678 1129C-240.327 1046.31 -27.0823 1080.22 69.5216 937.243C140.407 832.35 113.724 683.756 107.561 649.341C83.4595 515.159 13.3403 468.986 43.2714 392.784C65.1076 337.016 112.048 337.719 165.551 258.719C202.787 203.692 217.554 148.013 224.255 109.093" stroke="#D4E6F3" stroke-miterlimit="10"/>
<path d="M-54.5977 1504.8C-62.6723 1443.82 -81.6848 1384.8 -110.721 1330.57C-180.037 1202.49 -267.975 1178.65 -260.631 1125.16C-249.251 1042.46 -36.0163 1076.39 60.5973 933.391C131.473 828.517 104.8 679.904 98.6083 645.498C74.5352 511.307 4.40633 465.153 34.3284 388.922C56.1646 333.154 103.105 333.858 156.589 254.847C193.834 199.849 208.601 144.17 215.293 105.222" stroke="#D4E6F3" stroke-miterlimit="10"/>
<path d="M-63.7344 1500.86C-71.8124 1439.87 -90.8212 1380.85 -119.848 1326.61C-189.164 1198.53 -277.112 1174.71 -269.758 1121.2C-258.407 1038.56 -45.1433 1072.43 51.5168 929.479C122.403 824.586 95.7193 675.992 89.5375 641.567C65.4547 507.395 -4.6832 461.212 25.2479 385.01C47.0841 329.242 94.0061 329.936 147.509 250.935C184.763 195.918 199.53 140.239 206.213 101.31" stroke="#D4E6F3" stroke-miterlimit="10"/>
<path d="M-72.7734 1496.9C-80.8856 1435.92 -99.9297 1376.9 -128.992 1322.67C-198.326 1194.58 -286.245 1170.75 -278.891 1117.24C-267.521 1034.56 -54.2865 1068.49 42.3271 925.491C113.203 820.617 86.5296 672.004 80.338 637.598C56.265 503.407 -13.8826 457.243 16.0582 381.022C37.8944 325.254 84.8165 325.948 138.319 246.947C175.564 191.949 190.331 136.27 197.023 97.3217" stroke="#D4E6F3" stroke-miterlimit="10"/>
<path d="M-81.8164 1493.03C-89.9064 1432.06 -108.918 1373.04 -137.94 1318.81C-207.274 1190.72 -295.194 1166.89 -287.85 1113.4C-276.479 1030.72 -63.2351 1064.62 33.3688 921.646C104.236 816.743 77.5525 668.149 71.3895 633.735C47.3067 499.562 -22.8312 453.379 7.10961 377.158C28.936 321.409 75.8581 322.103 129.37 243.084C166.625 188.067 181.392 132.388 188.074 93.4582" stroke="#D4E6F3" stroke-miterlimit="10"/>
<path d="M-90.9219 1489.11C-99.0047 1428.14 -118.017 1369.12 -147.046 1314.89C-216.38 1186.8 -304.299 1162.97 -296.945 1109.46C-285.575 1026.78 -72.3405 1060.7 24.2731 917.708C95.1304 812.823 68.4568 664.21 62.284 629.815C38.1922 495.614 -31.9367 449.459 -1.99584 373.238C19.8403 317.471 66.7811 318.174 120.284 239.174C157.528 184.175 172.296 128.496 178.988 89.5479" stroke="#D4E6F3" stroke-miterlimit="10"/>
<path d="M-99.9531 1485.15C-108.05 1424.18 -127.062 1365.16 -156.077 1310.93C-225.411 1182.84 -313.33 1159.01 -305.986 1105.52C-294.617 1022.88 -81.2968 1056.78 15.2127 913.804C86.0797 808.901 59.3964 660.307 53.2334 625.892C29.1318 491.71 -40.9874 445.537 -11.0465 369.316C10.7799 313.567 57.7207 314.27 111.233 235.251C148.488 180.234 163.236 124.545 169.937 85.6253" stroke="#D4E6F3" stroke-miterlimit="10"/>
<path d="M-109.047 1481.29C-117.13 1420.31 -136.142 1361.3 -165.171 1307.07C-234.504 1178.97 -322.443 1155.13 -315.07 1101.64C-303.7 1018.95 -90.4655 1052.88 6.14814 909.885C77.0054 805.001 50.3318 656.388 44.1493 622.011C20.0575 487.81 -50.0714 441.656 -20.1306 365.435C1.70561 309.667 48.6464 310.37 102.149 231.37C139.394 176.372 154.142 120.683 160.853 81.7442" stroke="#D4E6F3" stroke-miterlimit="10"/>
<path d="M-118.102 1477.37C-126.192 1416.39 -145.203 1357.38 -174.225 1303.14C-243.559 1175.05 -331.497 1151.21 -324.135 1097.73C-312.774 1015.07 -99.5202 1048.96 -2.93505 905.973C67.9319 801.069 41.2486 652.475 35.0856 618.061C10.984 483.879 -59.1351 437.705 -29.1943 361.484C-7.36784 305.736 39.5729 306.439 93.0852 227.42C130.321 172.393 145.088 116.714 151.789 77.794" stroke="#D4E6F3" stroke-miterlimit="10"/>
<path d="M-127.156 1473.4C-135.224 1412.42 -154.237 1353.4 -183.28 1299.18C-252.595 1171.09 -340.533 1147.25 -333.161 1093.75C-321.839 1011.12 -108.519 1045.02 -11.9905 902.051C58.8855 797.176 32.212 648.563 26.0392 614.168C1.94739 479.967 -68.1815 433.812 -38.2407 357.591C-16.4045 301.824 30.5363 302.527 84.0389 223.526C121.265 168.518 136.032 112.839 142.743 73.9009" stroke="#D4E6F3" stroke-miterlimit="10"/>
<path d="M-136.262 1469.53C-144.336 1408.55 -163.349 1349.53 -192.385 1295.3C-261.701 1167.22 -349.639 1143.38 -342.295 1089.89C-330.925 1007.21 -117.68 1041.12 -21.0765 898.141C49.8092 793.247 23.1259 644.653 16.9442 610.229C-7.13864 476.057 -77.2766 429.873 -47.3358 353.652C-25.4996 297.885 21.4128 298.597 74.925 219.578C112.18 164.561 126.947 108.882 133.629 69.9523" stroke="#D4E6F3" stroke-miterlimit="10"/>
<path d="M-145.309 1465.63C-153.383 1404.66 -172.396 1345.64 -201.432 1291.41C-270.747 1163.33 -358.686 1139.49 -351.332 1085.98C-339.972 1003.32 -126.727 1037.23 -30.1511 894.21C40.7249 789.335 14.0514 640.722 7.85984 606.317C-16.2132 472.126 -86.3609 425.961 -56.4201 349.74C-34.5839 293.973 12.3381 294.666 65.8406 215.666C103.085 160.668 117.853 104.988 124.545 66.0401" stroke="#D4E6F3" stroke-miterlimit="10"/>
<path d="M-154.336 1461.66C-162.419 1400.68 -181.431 1341.66 -210.46 1287.43C-279.794 1159.34 -367.713 1135.51 -360.369 1082.02C-349.066 999.375 -135.736 1033.26 -39.1799 890.326C31.6871 785.422 5.01354 636.81 -1.15923 602.414C-25.242 468.242 -95.38 422.058 -65.4391 345.837C-43.603 290.07 3.30937 290.782 56.8216 211.763C94.0762 156.746 108.843 101.067 115.525 62.1372" stroke="#D4E6F3" stroke-miterlimit="10"/>
<path d="M-163.492 1457.78C-171.567 1396.8 -190.579 1337.78 -219.616 1283.56C-288.95 1155.47 -376.869 1131.64 -369.516 1078.13C-358.145 995.447 -144.911 1029.37 -48.2972 886.378C22.6163 781.522 -4.05729 632.91 -10.2301 598.514C-34.3219 464.313 -104.451 418.158 -74.51 341.937C-52.6738 286.17 -5.73301 286.873 47.7695 207.873C85.0144 152.874 99.7814 97.1952 106.473 58.247" stroke="#D4E6F3" stroke-miterlimit="10"/>
<path d="M-172.488 1453.89C-180.571 1392.91 -199.583 1333.89 -228.612 1279.67C-297.946 1151.57 -385.865 1127.74 -378.522 1074.25C-367.151 991.573 -153.907 1025.48 -57.378 882.465C13.489 777.562 -13.1846 628.949 -19.3573 594.553C-43.4589 460.371 -113.578 414.198 -83.6372 337.977C-61.8011 282.209 -14.87 282.931 38.6422 203.912C75.8968 148.895 90.6639 93.2157 97.3462 54.2863" stroke="#D4E6F3" stroke-miterlimit="10"/>
<path d="M-181.523 1449.91C-189.606 1388.94 -208.618 1329.92 -237.647 1275.69C-306.981 1147.6 -394.919 1123.76 -387.547 1070.26C-376.291 987.614 -162.961 1021.5 -66.3674 878.583C4.48991 773.699 -22.1837 625.086 -28.3564 590.69C-52.4482 456.49 -122.577 410.335 -92.6362 334.114C-70.8 278.346 -23.8593 279.049 29.6432 200.049C66.8881 145.051 81.6461 89.3431 88.3471 50.4234" stroke="#D4E6F3" stroke-miterlimit="10"/>
<path d="M-190.711 1446.02C-198.801 1385.04 -217.813 1326.03 -246.835 1271.79C-316.169 1143.7 -404.107 1119.86 -396.744 1066.38C-385.374 983.702 -172.13 1017.61 -75.5257 874.633C-4.565 769.778 -31.2385 621.165 -37.4113 586.77C-61.5031 452.569 -131.632 406.414 -101.691 330.193C-79.855 274.426 -32.924 275.148 20.5883 196.129C57.8429 141.112 72.5912 85.4225 79.2922 46.5028" stroke="#D4E6F3" stroke-miterlimit="10"/>
<path d="M-199.703 1442.16C-207.773 1381.18 -226.779 1322.17 -255.808 1267.94C-325.142 1139.85 -413.08 1116.01 -405.708 1062.51C-394.356 979.82 -181.122 1013.75 -84.4894 870.76C-13.6321 765.876 -40.3057 617.263 -46.4785 582.867C-70.5703 448.667 -140.689 402.493 -110.758 326.291C-88.9222 270.524 -41.9813 271.227 11.5212 192.226C48.7473 137.218 63.524 81.5203 70.2251 42.6006" stroke="#D4E6F3" stroke-miterlimit="10"/>
<path d="M-208.715 1438.16C-216.789 1377.18 -235.802 1318.16 -264.838 1263.94C-334.154 1135.85 -422.092 1112.01 -414.748 1058.52C-403.501 975.852 -190.171 1009.73 -93.5685 866.85C-22.6827 761.957 -49.3563 613.344 -55.5478 578.938C-79.6209 444.747 -149.75 398.593 -119.828 322.362C-97.9915 266.594 -51.0604 267.316 2.43308 188.287C39.6877 133.27 54.4547 77.5912 61.1369 38.6617" stroke="#D4E6F3" stroke-miterlimit="10"/>
<path d="M-217.82 1434.33C-225.895 1373.36 -244.907 1314.34 -273.944 1260.11C-343.259 1132.03 -431.197 1108.19 -423.844 1054.68C-412.474 971.998 -199.229 1005.91 -102.625 862.928C-31.7493 758.054 -58.3667 609.47 -64.6047 575.017C-88.6875 440.844 -158.825 394.661 -128.894 318.459C-107.058 262.691 -60.1361 263.385 -6.63355 184.385C30.621 129.368 45.3881 73.6883 52.0704 34.7588" stroke="#D4E6F3" stroke-miterlimit="10"/>
<path d="M-226.883 1430.41C-234.966 1369.44 -253.978 1310.42 -283.006 1256.19C-352.34 1128.1 -440.26 1104.27 -432.916 1050.78C-421.536 968.078 -208.301 1002.01 -111.698 859.027C-40.8118 754.134 -67.4854 605.521 -73.6769 571.115C-97.75 436.925 -167.898 390.76 -137.957 314.539C-116.121 258.772 -69.2083 259.484 -15.696 180.465C21.5586 125.448 36.3256 69.7683 43.0079 30.8389" stroke="#D4E6F3" stroke-miterlimit="10"/>
</svg>
