<svg width="224" height="1556" viewBox="0 0 224 1556" fill="none" xmlns="http://www.w3.org/2000/svg">
<path d="M-102.866 1327.38C10.6123 1314.81 92.6894 1128.97 99.3017 986.257C106.908 821.789 12.4432 754.31 49.2961 630.902C82.8938 518.282 178.789 516.945 198.577 433.874C216.759 357.529 165.897 232.23 -108.604 14.9809" stroke="#D4E6F3" stroke-miterlimit="10"/>
<path d="M-121.813 23.8542C148.694 238.426 201.783 363.921 186.1 441.504C174.41 499.001 126.769 518.726 87.9552 562.039C68.0155 583.625 52.7602 610.698 43.5592 640.827C13.3552 739.513 64.3429 802.227 81.6258 910.48C86.0998 938.076 87.8398 966.274 86.8101 994.493C81.969 1137.9 9.51647 1322.14 -100.035 1337.89" stroke="#D4E6F3" stroke-miterlimit="10"/>
<path d="M-134.981 32.7538C131.513 244.648 186.813 370.268 173.618 448.925C163.915 506.744 118.41 527.92 81.434 571.43C62.1348 593.596 47.224 620.647 37.8382 650.52C7.30824 747.74 52.9047 810.127 69.0802 918.691C73.2389 946.283 74.9928 974.376 74.3139 1002.52C70.8741 1146.61 8.4353 1329.27 -97.1884 1348.18" stroke="#D4E6F3" stroke-miterlimit="10"/>
<path d="M-148.115 41.6314C114.311 250.798 171.799 376.611 161.146 456.439C153.387 514.625 110.063 537.161 74.9008 580.937C56.2558 603.634 41.6826 630.641 32.1105 660.236C1.24938 756.083 41.4857 817.934 56.528 926.924C60.4217 954.527 62.2081 982.548 61.8652 1010.64C60.0414 1155.41 7.40302 1336.48 -94.2932 1358.54" stroke="#D4E6F3" stroke-miterlimit="10"/>
<path d="M-161.341 50.5039C97.1293 256.996 156.772 382.908 148.656 463.976C142.827 522.457 101.677 546.47 68.3887 590.492C50.3878 613.736 36.1354 640.748 26.3779 670.115C-4.81439 764.589 30.0385 825.973 43.9643 935.437C47.5424 962.992 49.3389 990.88 49.338 1018.85C49.1289 1164.32 6.27146 1343.79 -91.4985 1369.05" stroke="#D4E6F3" stroke-miterlimit="10"/>
<path d="M-174.522 59.2854C79.95 263.171 143.624 389.38 136.187 471.514C130.933 530.144 93.4277 555.787 61.8604 599.999C44.534 623.78 30.6035 650.797 20.65 679.924C-10.8736 773.026 18.5985 833.896 31.3976 943.67C34.7103 971.201 36.5351 998.996 36.8607 1026.88C38.3439 1173.05 5.20925 1350.92 -88.6526 1379.34" stroke="#D4E6F3" stroke-miterlimit="10"/>
<path d="M-187.719 68.2768C62.7468 269.368 126.581 395.492 123.813 479.034C121.614 538.023 85.0562 565.144 55.3084 609.528C38.6638 633.819 25.0479 660.844 14.8995 689.732C-16.9553 781.461 7.15143 841.888 18.8226 951.996C21.8462 979.503 23.6866 1007.21 24.3362 1035C27.4341 1181.86 4.15808 1358.15 -85.8344 1389.72" stroke="#D4E6F3" stroke-miterlimit="10"/>
<path d="M-200.908 77.151C45.5673 275.496 111.592 401.767 111.225 486.565C111.035 545.808 76.8568 574.557 48.7953 619.059C32.8481 643.841 19.5521 670.885 9.22681 699.544C-22.9772 789.876 -4.27466 849.858 6.32533 960.325C8.76713 986.028 10.9566 1013.44 11.909 1043.12C16.6785 1190.71 3.04896 1365.37 -82.9772 1400.11" stroke="#D4E6F3" stroke-miterlimit="10"/>
<path d="M-214.096 86.0254C28.3636 281.739 96.3915 408.03 98.7949 494.081C100.438 553.591 68.6385 583.992 42.3008 628.638C27.0588 653.911 14.0573 680.99 3.51315 709.424C-29.0221 798.383 -15.6628 857.877 -6.23228 968.722C-4.02982 994.527 -1.87524 1021.87 -0.579888 1051.34C5.85354 1199.44 1.96098 1372.59 -80.1183 1410.5" stroke="#D4E6F3" stroke-miterlimit="10"/>
<path d="M-227.265 94.9252C11.1826 287.937 81.2306 414.296 86.2673 501.616C89.7264 561.368 60.3756 593.542 35.7554 638.099C21.2287 663.829 8.51554 690.939 -2.24872 719.138C-35.1164 806.748 -27.1407 865.775 -18.7424 976.982C-16.7728 1002.77 -14.6195 1030.14 -13.0006 1059.39C-4.82591 1208.36 0.990156 1379.82 -77.181 1420.89" stroke="#D4E6F3" stroke-miterlimit="10"/>
<path d="M-240.456 103.8C-6.00067 294.112 66.0272 420.559 73.7981 509.084C79.0533 569.078 52.1959 602.932 29.2051 647.581C15.4224 673.766 3.00367 700.926 -7.97806 728.901C-41.1757 815.115 -38.564 873.675 -31.3934 985.256C-29.7018 1011.15 -27.5252 1038.45 -25.6009 1067.46C-15.6757 1217.13 -0.193742 1386.97 -74.44 1431.25" stroke="#D4E6F3" stroke-miterlimit="10"/>
<path d="M-253.644 112.674C-23.2027 300.308 50.8232 426.868 61.3244 516.668C68.355 576.925 44.0283 612.487 22.6722 657.135C10.4045 682.801 -1.99565 709.09 -13.7107 738.756C-47.2201 823.598 -50.0112 881.691 -43.9505 993.629C-42.5151 1019.58 -40.3165 1046.83 -38.0907 1075.67C-26.4151 1226.05 -1.26844 1394.28 -71.6052 1441.7" stroke="#D4E6F3" stroke-miterlimit="10"/>
<path d="M-266.831 121.549C-40.4611 306.503 35.5913 433.013 48.837 524.182C57.6624 584.704 35.9013 622.045 16.1424 666.666C4.47937 692.996 -7.61435 719.373 -19.4389 748.566C-53.3377 832.032 -61.4334 889.638 -56.5033 1001.96C-55.3434 1027.96 -53.124 1055.19 -50.5709 1083.75C-37.1046 1234.81 -2.33352 1401.46 -68.7622 1452.04" stroke="#D4E6F3" stroke-miterlimit="10"/>
<path d="M-280.018 130.377C-57.5845 312.68 20.3236 439.412 36.3475 531.695C46.9096 592.478 27.7917 631.602 9.59118 676.195C-1.42969 703.215 -13.2351 729.655 -25.1833 758.28C-59.3564 840.4 -72.8911 897.489 -69.0969 1010.28C-68.175 1036.36 -65.9323 1063.53 -63.0945 1091.87C-47.8002 1243.64 -3.40325 1408.68 -65.9238 1462.43" stroke="#D4E6F3" stroke-miterlimit="10"/>
<path d="M-293.189 139.324C-74.765 318.879 5.02869 445.647 23.8785 539.233C36.1953 600.302 19.7413 641.188 3.08248 685.704C-7.27683 713.415 -18.8353 739.962 -30.897 768.185C-65.3987 848.885 -84.3 905.555 -81.6299 1018.61C-80.7497 1045.88 -78.704 1073.05 -75.5006 1100.01C-58.4726 1252.45 -4.5133 1415.98 -63.0636 1472.81" stroke="#D4E6F3" stroke-miterlimit="10"/>
<path d="M-306.379 148.198C-91.9683 325.076 -10.2221 452.071 11.4113 546.678C25.4634 608.032 11.7108 650.704 -3.45178 695.257C-13.1301 723.661 -24.4391 750.269 -36.6283 777.994C-71.4626 857.344 -95.746 913.524 -94.1832 1026.89C-93.5954 1054.12 -91.5441 1081.24 -88.0421 1108.09C-69.0321 1261.26 -5.5802 1423.13 -60.15 1483.23" stroke="#D4E6F3" stroke-miterlimit="10"/>
<path d="M-319.565 157.072C-109.147 331.25 -25.6045 458.487 -1.06102 554.285C14.6902 615.875 3.71529 660.361 -9.95991 704.765C-18.9379 733.862 -30.0555 760.527 -42.3543 787.779C-77.5184 865.734 -107.167 921.47 -106.738 1035.26C-106.417 1062.45 -104.34 1089.53 -100.526 1116.25C-79.722 1270.04 -6.66632 1430.35 -57.3862 1493.61" stroke="#D4E6F3" stroke-miterlimit="10"/>
<path d="M-332.756 165.971C-126.427 337.443 -40.9218 464.72 -13.551 561.799C3.93158 623.743 -4.24104 669.952 -16.491 714.273C-24.7351 744.159 -35.6574 770.811 -48.0851 797.589C-83.5416 874.173 -118.611 929.417 -119.312 1043.59C-119.246 1070.74 -117.144 1097.77 -113.031 1124.37C-90.3379 1278.83 -7.73661 1437.58 -54.5483 1504" stroke="#D4E6F3" stroke-miterlimit="10"/>
<path d="M-345.944 174.845C-143.525 343.529 -56.2845 471.091 -26.0994 569.332C-6.92153 631.582 -12.253 679.515 -23.1386 723.797C-30.6978 754.304 -41.3964 781.133 -53.9311 807.391C-89.7576 882.6 -130.172 937.379 -131.944 1051.91C-132.133 1079.02 -130.005 1106.02 -125.593 1132.49C-100.991 1287.61 -8.94804 1444.91 -51.7869 1514.38" stroke="#D4E6F3" stroke-miterlimit="10"/>
<path d="M-359.135 183.72C-160.735 349.818 -71.6513 477.484 -38.5133 576.849C-17.6235 639.453 -20.0737 689.09 -29.556 733.333C-36.2597 764.543 -46.9015 791.398 -59.5858 817.204C-95.7421 891.017 -141.521 945.33 -144.462 1060.24C-144.916 1087.3 -142.761 1114.27 -138.041 1140.61C-111.472 1296.38 -9.89684 1452.02 -48.8729 1524.77" stroke="#D4E6F3" stroke-miterlimit="10"/>
<path d="M-372.304 192.619C-177.916 356.017 -87.1109 483.873 -50.9773 584.294C-28.413 647.226 -27.9419 698.545 -36.0792 742.748C-41.9467 774.659 -52.4955 801.589 -65.2492 826.901C-101.757 899.363 -152.919 953.209 -156.971 1068.48C-157.67 1095.5 -155.489 1122.45 -150.481 1148.66C-121.782 1304.98 -10.9787 1459.15 -46.0104 1535.11" stroke="#D4E6F3" stroke-miterlimit="10"/>
<path d="M-385.491 201.47C-76.4934 462.269 -24.8316 637.201 -42.6162 752.371C-62.0276 878.094 -162.535 920.821 -169.55 1076.89C-177.759 1259.98 -6.7824 1453.06 -43.1745 1545.54" stroke="#D4E6F3" stroke-miterlimit="10"/>
</svg>
