<svg width="187" height="755" viewBox="0 0 187 755" fill="none" xmlns="http://www.w3.org/2000/svg">
<path d="M287.743 690.011C232.698 561.56 169.942 516.795 121.969 500.038C68.4293 481.338 9.31458 489.145 6.05681 470.113C3.96993 457.926 26.2887 443.458 75.1103 416.636C223.156 335.3 262.037 334.211 272.88 298.452C288.079 248.358 222.253 215.885 225.326 138.454C227.586 81.5846 265.578 36.3313 299.14 5.99915" stroke="#D4E6F3" stroke-miterlimit="10"/>
<path d="M281.876 692.943C227.998 568.101 167.076 520.88 122.163 502.939C71.971 482.89 15.902 490.669 13.6564 471.856C12.2114 459.761 34.1479 445.565 81.2967 419.657C224.56 340.919 263.938 339.216 274.277 303.723C288.767 253.322 218.103 222.101 218.79 143.799C218.805 142.091 218.841 140.411 218.919 138.73C221.528 83.2184 259.552 37.3094 292.925 6.30919" stroke="#D4E6F3" stroke-miterlimit="10"/>
<path d="M276.006 695.865C223.301 574.641 164.317 525.003 122.357 505.832C75.5871 484.465 22.4942 492.18 21.2571 473.591C20.4559 461.584 42.0119 447.659 87.4858 422.671C225.96 346.549 265.961 344.25 275.673 308.981C289.623 258.322 213.916 228.288 212.25 149.13C212.213 147.393 212.176 145.662 212.221 143.933C213.705 87.4789 252.545 39.1586 286.706 6.60985" stroke="#D4E6F3" stroke-miterlimit="10"/>
<path d="M270.139 698.795C218.591 581.172 161.688 529.194 122.555 508.731C79.2819 486.104 29.0944 493.689 28.8621 475.334C28.71 463.408 49.8765 449.771 93.6758 425.691C227.377 352.175 267.917 349.265 277.071 314.244C290.386 263.3 209.703 234.47 205.713 154.466C205.624 152.69 205.54 150.916 205.525 149.15C205.041 91.7397 245.54 41.0223 280.486 6.92489" stroke="#D4E6F3" stroke-miterlimit="10"/>
<path d="M264.269 701.723C213.893 587.709 159.19 533.472 122.749 511.63C83.0474 487.832 35.6987 495.189 36.464 477.073C36.9629 465.228 57.7399 451.875 99.8645 428.707C228.784 357.799 269.864 354.277 278.464 319.506C291.138 268.262 205.456 240.643 199.166 159.801C199.028 157.986 198.891 156.169 198.82 154.348C196.816 95.9953 238.528 42.8714 274.267 7.21986" stroke="#D4E6F3" stroke-miterlimit="10"/>
<path d="M258.398 704.651C209.193 594.244 156.834 537.864 122.944 514.523C86.8795 489.687 42.3072 496.689 44.0633 478.808C45.2203 467.04 65.6006 453.976 106.052 431.722C230.189 363.418 271.804 359.281 279.858 324.764C291.883 273.224 201.18 246.809 192.63 165.132C192.435 163.276 192.237 161.42 192.125 159.551C188.613 100.257 231.524 44.715 268.052 7.52069" stroke="#D4E6F3" stroke-miterlimit="10"/>
<path d="M252.53 707.577C204.49 600.78 154.623 542.403 123.14 517.424C90.7496 491.727 48.928 498.178 51.6673 480.552C53.4842 468.856 73.4713 456.084 112.241 434.745C231.596 369.047 273.741 364.289 281.253 330.03C292.623 278.182 196.883 252.981 186.091 170.471C185.843 168.568 185.587 166.677 185.429 164.765C180.421 104.535 224.523 46.5758 261.835 7.83286" stroke="#D4E6F3" stroke-miterlimit="10"/>
<path d="M246.662 710.505C199.789 607.317 147.27 552.636 123.337 520.322C90.4992 500.361 55.5577 499.669 59.2698 482.291C61.7536 470.668 81.33 458.187 118.441 437.761C233.014 374.671 275.68 369.293 282.659 335.292C293.363 283.138 192.57 259.15 179.562 175.807C179.26 173.87 178.949 171.93 178.741 169.969C172.252 108.799 217.522 48.4174 255.627 8.13167" stroke="#D4E6F3" stroke-miterlimit="10"/>
<path d="M240.791 713.434C195.086 613.853 144.027 557.755 123.531 523.219C93.6506 503.079 62.1935 501.161 66.8715 484.031C70.0258 472.479 89.1878 460.292 124.621 440.78C234.411 380.306 277.594 374.294 284.045 340.553C294.075 288.09 188.214 265.321 173.012 181.143C172.655 179.166 172.289 177.185 172.032 175.176C164.075 113.066 210.506 50.2785 249.399 8.43657" stroke="#D4E6F3" stroke-miterlimit="10"/>
<path d="M234.923 716.362C190.385 620.389 140.79 562.875 123.727 526.119C96.8023 505.798 68.8385 502.652 74.4735 485.77C78.3035 474.291 97.053 462.396 130.809 443.799C235.825 385.921 279.51 379.291 285.438 345.815C294.787 293.037 183.848 271.497 166.47 186.477C166.059 184.461 165.639 182.438 165.333 180.382C155.916 117.332 203.497 52.1314 243.179 8.741" stroke="#D4E6F3" stroke-miterlimit="10"/>
<path d="M229.056 719.289C185.685 626.923 137.552 567.994 123.926 529.016C99.9586 508.515 75.495 504.146 82.0782 487.512C86.591 476.106 104.921 464.5 136.995 446.816C237.224 391.546 281.418 384.288 286.833 351.077C295.488 297.985 179.462 277.677 159.929 191.813C159.461 189.756 158.991 187.691 158.632 185.591C147.767 121.596 196.49 53.9849 236.959 9.04592" stroke="#D4E6F3" stroke-miterlimit="10"/>
<path d="M223.186 722.218C180.986 633.464 134.313 573.109 124.129 531.912C103.12 511.231 82.1616 505.642 89.6895 489.254C94.8902 477.925 112.792 466.606 143.199 449.837C238.645 397.173 283.335 389.286 288.24 356.338C296.195 302.928 175.078 283.862 153.403 197.148C152.88 195.05 152.356 192.952 151.955 190.798C139.647 125.858 189.501 55.8386 230.76 9.35115" stroke="#D4E6F3" stroke-miterlimit="10"/>
<path d="M217.317 725.146C176.285 639.999 131.073 578.235 124.318 534.811C106.266 513.95 88.8216 507.147 97.284 490.991C103.176 479.743 120.65 468.709 149.382 452.853C240.046 402.788 285.226 394.278 289.63 361.602C296.87 307.873 170.651 290.058 146.857 202.483C146.276 200.348 145.702 198.199 145.244 195.998C131.511 130.11 182.477 57.6857 224.532 9.64982" stroke="#D4E6F3" stroke-miterlimit="10"/>
<path d="M211.446 728.068C171.581 646.536 127.833 583.355 124.515 537.708C109.42 516.669 95.49 508.656 104.885 492.73C111.472 481.566 128.51 470.812 155.568 455.869C241.452 408.418 287.12 399.271 291.024 366.863C297.541 312.812 166.211 296.259 140.316 207.82C139.678 205.643 139.052 203.452 138.544 201.21C123.381 134.371 175.474 59.5443 218.312 9.94836" stroke="#D4E6F3" stroke-miterlimit="10"/>
<path d="M205.576 731.001C166.878 653.073 124.593 588.473 124.708 540.606C112.57 519.386 102.161 510.169 112.491 494.47C119.774 483.394 136.376 472.916 161.76 458.896C242.862 414.051 289.003 404.273 292.421 372.133C298.204 317.761 161.783 302.475 133.777 213.163C133.084 210.947 132.408 208.713 131.848 206.426C115.266 138.63 168.471 61.4053 212.096 10.2703" stroke="#D4E6F3" stroke-miterlimit="10"/>
<path d="M199.709 733.929C162.179 659.61 121.355 593.593 124.905 543.505C115.725 522.103 108.839 511.689 120.091 496.209C128.074 485.226 144.239 475.021 167.949 461.905C244.267 419.668 290.88 409.258 293.815 377.386C298.853 322.692 157.324 308.683 127.246 218.49C126.495 216.235 125.769 213.958 125.159 211.616C107.155 142.871 161.463 63.2506 205.87 10.567" stroke="#D4E6F3" stroke-miterlimit="10"/>
<path d="M193.838 736.858C157.476 666.145 118.12 598.714 125.098 546.403C118.87 524.832 115.515 513.216 127.692 497.949C136.375 487.064 152.099 477.125 174.129 464.924C245.665 425.293 292.744 414.252 295.2 382.648C299.479 327.633 152.852 314.909 120.688 223.825C119.878 221.531 119.104 219.212 118.442 216.832C99.0479 147.116 154.455 65.0986 199.656 10.8722" stroke="#D4E6F3" stroke-miterlimit="10"/>
<path d="M187.964 739.786C152.769 672.682 114.87 603.834 125.29 549.302C122.023 527.541 122.187 514.748 135.288 499.692C144.664 488.905 159.957 479.23 180.319 467.944C247.071 430.919 294.612 419.247 296.598 387.912C300.113 332.573 148.389 321.141 114.162 229.16C113.293 226.829 112.47 224.465 111.756 222.04C90.9523 151.356 147.453 66.9574 193.449 11.1769" stroke="#D4E6F3" stroke-miterlimit="10"/>
<path d="M182.096 742.712C148.081 679.22 133.7 610.141 125.492 552.198C122.421 530.516 128.872 516.282 142.898 501.43C152.975 490.747 167.828 481.333 186.516 470.96C248.49 436.543 296.48 424.24 298.001 393.173C300.726 337.516 143.908 327.382 107.617 234.496C106.692 232.127 105.82 229.714 105.054 227.247C82.8528 155.594 140.443 68.8166 187.222 11.4798" stroke="#D4E6F3" stroke-miterlimit="10"/>
<path d="M176.228 745.641C143.369 685.75 113.319 615.485 125.684 555.095C130.146 533.31 135.545 517.824 150.497 503.169C161.276 492.594 175.687 483.438 192.702 473.978C249.894 442.165 298.33 429.237 299.392 398.435C301.323 342.461 139.418 333.631 101.074 239.832C100.09 237.423 99.1748 234.967 98.3537 232.453C74.8934 159.777 133.436 70.6637 181.003 11.7784" stroke="#D4E6F3" stroke-miterlimit="10"/>
<path d="M170.362 748.569C138.67 692.292 107.6 620.084 125.882 557.993C132.368 535.968 142.225 519.369 158.101 504.909C169.581 494.446 183.555 485.542 198.892 476.997C251.304 447.791 300.304 434.236 300.791 403.697C301.687 347.404 134.802 339.952 94.5371 245.168C93.4911 242.723 92.5314 240.221 91.658 237.662C66.7402 164.029 126.43 72.5173 174.784 12.0892" stroke="#D4E6F3" stroke-miterlimit="10"/>
<path d="M164.493 751.498C133.97 698.828 101.922 624.314 126.079 560.892C162.503 465.283 301.915 459.897 302.185 408.957C302.493 350.889 121.38 345.866 84.9596 242.868C58.5861 168.283 119.422 74.3627 168.568 12.3937" stroke="#D4E6F3" stroke-miterlimit="10"/>
</svg>
