<svg width="176" height="220" viewBox="0 0 176 220" fill="none" xmlns="http://www.w3.org/2000/svg">
<path d="M-2.125 69.2266C-1.78653 69.0312 -1.37904 69.0067 -1.02344 69.1533L-0.875 69.2266L52.1172 99.8223C52.5038 100.045 52.742 100.458 52.7422 100.904V162.096C52.742 162.542 52.5038 162.955 52.1172 163.178L-0.875 193.773C-1.21347 193.969 -1.62096 193.993 -1.97656 193.847L-2.125 193.773L-55.1172 163.178C-55.5038 162.955 -55.742 162.542 -55.7422 162.096V100.904C-55.742 100.458 -55.5038 100.045 -55.1172 99.8223L-2.125 69.2266Z" stroke="#B8D5EB" stroke-width="1.5"/>
<path d="M44.3721 1.2334C44.7605 1.00761 45.2395 1.00761 45.6279 1.2334L104.25 35.3203C104.635 35.5441 104.872 35.9553 104.872 36.4004V104.6C104.872 105.045 104.635 105.456 104.25 105.68L45.6279 139.767C45.2395 139.992 44.7605 139.992 44.3721 139.767L-14.25 105.68C-14.6348 105.456 -14.872 105.045 -14.8721 104.6V36.4004C-14.872 35.9553 -14.6348 35.5441 -14.25 35.3203L44.3721 1.2334Z" stroke="#B8D5EB" stroke-width="1.5"/>
<path d="M93.375 57.2266C93.7617 57.0034 94.2383 57.0034 94.625 57.2266L163.639 97.0723C164.025 97.2955 164.264 97.7079 164.264 98.1543V177.846C164.264 178.292 164.025 178.705 163.639 178.928L94.625 218.773C94.2383 218.997 93.7617 218.997 93.375 218.773L24.3613 178.928C23.9747 178.705 23.7365 178.292 23.7363 177.846V98.1543C23.7365 97.7079 23.9747 97.2955 24.3613 97.0723L93.375 57.2266Z" stroke="#B8D5EB" stroke-width="1.5"/>
</svg>
