<svg width="104" height="117" viewBox="0 0 104 117" fill="none" xmlns="http://www.w3.org/2000/svg">
<path d="M89.25 51.985L82.9792 45.7142C82.3959 45.1309 81.7153 44.8645 80.9375 44.915C80.1597 44.9656 79.4792 45.2806 78.8959 45.86C78.3125 46.4395 78.0209 47.12 78.0209 47.9017C78.0209 48.6834 78.3125 49.3639 78.8959 49.9434L85.1667 56.2142C86.3334 57.3809 87.6945 57.9642 89.25 57.9642C90.8056 57.9642 92.1667 57.3809 93.3334 56.2142L107.771 41.6309C108.354 41.0475 108.646 40.367 108.646 39.5892C108.646 38.8114 108.354 38.1309 107.771 37.5475C107.188 36.9642 106.507 36.6725 105.729 36.6725C104.951 36.6725 104.271 36.9642 103.688 37.5475L89.25 51.985ZM23.3334 117.173C21.6806 117.173 20.2961 116.613 19.18 115.493C18.0639 114.373 17.5039 112.988 17.5 111.339C17.4961 109.69 18.0561 108.306 19.18 107.186C20.3039 106.066 21.6884 105.506 23.3334 105.506H81.6667C83.3195 105.506 84.7059 106.066 85.8259 107.186C86.9459 108.306 87.5039 109.69 87.5 111.339C87.4961 112.988 86.9361 114.374 85.82 115.498C84.7039 116.622 83.3195 117.18 81.6667 117.173H23.3334ZM93.3334 76.3392C85.2639 76.3392 78.3864 73.4945 72.7009 67.805C67.0153 62.1156 64.1706 55.2381 64.1667 47.1725C64.1628 39.107 67.0075 32.2295 72.7009 26.54C78.3942 20.8506 85.2717 18.0059 93.3334 18.0059C101.395 18.0059 108.274 20.8506 113.972 26.54C119.669 32.2295 122.512 39.107 122.5 47.1725C122.488 55.2381 119.644 62.1175 113.966 67.8109C108.288 73.5042 101.411 76.347 93.3334 76.3392ZM23.3334 70.5059C21.6806 70.5059 20.2961 69.9459 19.18 68.8259C18.0639 67.7059 17.5039 66.3214 17.5 64.6725C17.4961 63.0236 18.0561 61.6392 19.18 60.5192C20.3039 59.3992 21.6884 58.8392 23.3334 58.8392H50.6042C52.257 58.8392 53.6434 59.3992 54.7634 60.5192C55.8834 61.6392 56.4414 63.0236 56.4375 64.6725C56.4375 66.2281 55.8775 67.5892 54.7575 68.7559C53.6375 69.9225 52.2531 70.5059 50.6042 70.5059H23.3334ZM23.3334 93.8392C21.6806 93.8392 20.2961 93.2792 19.18 92.1592C18.0639 91.0392 17.5039 89.6548 17.5 88.0059C17.4961 86.357 18.0561 84.9725 19.18 83.8525C20.3039 82.7325 21.6884 82.1725 23.3334 82.1725H69.5625C71.2153 82.1725 72.6017 82.7325 73.7217 83.8525C74.8417 84.9725 75.3997 86.357 75.3959 88.0059C75.3959 89.5614 74.8611 90.9225 73.7917 92.0892C72.7222 93.2559 71.3125 93.8392 69.5625 93.8392H23.3334Z" fill="#EAF2F6" fill-opacity="0.64"/>
</svg>
